<svg width="40" height="40" fill="none" xmlns="http://www.w3.org/2000/svg"><path d="M20 40c11.046 0 20-8.954 20-20S31.046 0 20 0 0 8.954 0 20s8.954 20 20 20z" fill="#324A5E"/><path d="M30.78 9.465H9.22a.698.698 0 00-.697.697v17.133c0 .388.317.697.697.697h21.56a.698.698 0 00.697-.697V10.162a.693.693 0 00-.697-.697z" fill="#E6E9EE"/><path d="M29.83 11.097H10.17v13.212h19.66V11.097z" fill="#84DBFF"/><path d="M23.287 28h-6.574v2.852h6.574V28z" fill="#CED5E0"/><path d="M27.018 33.038H12.982c0-1.212.982-2.187 2.186-2.187h9.664a2.18 2.18 0 012.186 2.187z" fill="#E6E9EE"/><path d="M20 26.764a.657.657 0 100-1.315.657.657 0 000 1.315z" fill="#324A5E"/><path d="M16.895 15.667h-2.376v6.978h2.376v-6.978z" fill="#FFD05B"/><path d="M21.188 12.95h-2.376v9.688h2.376V12.95z" fill="#324A5E"/><path d="M25.489 6.962h-2.376v15.676h2.376V6.962z" fill="#FF7058"/></svg>