<svg width="40" height="40" fill="none" xmlns="http://www.w3.org/2000/svg"><path d="M20 40c11.046 0 20-8.954 20-20S31.046 0 20 0 0 8.954 0 20s8.954 20 20 20z" fill="#84DBFF"/><path d="M29.917 7.96H10.083v24.08h13.782l6.052-6.06V7.96z" fill="#fff"/><path d="M21.71 12.016l.04-.159a1.67 1.67 0 00.016-.198c0-.855-.776-1.552-1.734-1.552-.959 0-1.735.697-1.735 1.552 0 .072.008.135.016.198l.032.159c-.151.063-.254.293-.222.554.023.301.206.531.388.515.024 0 .04-.008.055-.016l.491 2.29h1.878l.53-2.313c.032.015.056.031.095.031.19.016.365-.214.388-.515.032-.253-.07-.49-.237-.546z" fill="#324A5E"/><path d="M20 15.041l-1.188-.823L20 17.869l1.196-3.651L20 15.04z" fill="#CED5E0"/><path d="M20.46 15.89l-.46-.452-.451.451.348.349-.23 1.299.333.332.333-.332-.23-1.291.356-.357z" fill="#fff"/><path d="M23.192 15.28c-1.275-.143-1.996-1.062-1.996-1.062l-1.188 3.651h4.293c-.008 0 .167-2.447-1.109-2.59zm-4.388-1.062s-.72.91-1.996 1.061c-1.275.143-1.109 2.59-1.109 2.59H20l-1.196-3.651z" fill="#FF7058"/><path d="M27.327 20.238H12.68v.998h14.646v-.998zm0 2.717H12.68v.998h14.646v-.998zm-6.194 2.708H12.68v.998h8.452v-.998zm-1.386 2.709H12.68v.998h7.066v-.998z" fill="#CED5E0"/><path d="M23.865 32.04l6.052-6.06h-6.052v6.06z" fill="#ACB3BA"/></svg>