<svg width="40" height="40" viewBox="0 0 40 40" fill="none" xmlns="http://www.w3.org/2000/svg">
<path d="M20 40C31.0457 40 40 31.0457 40 20C40 8.9543 31.0457 0 20 0C8.9543 0 0 8.9543 0 20C0 31.0457 8.9543 40 20 40Z" fill="#324A5E"/>
<path d="M30.7801 9.46533H9.21973C8.83162 9.46533 8.52271 9.78216 8.52271 10.1624V27.295C8.52271 27.6832 8.83954 27.9921 9.21973 27.9921H30.7801C31.1682 27.9921 31.4772 27.6752 31.4772 27.295V10.1624C31.4772 9.77424 31.1682 9.46533 30.7801 9.46533Z" fill="#E6E9EE"/>
<path d="M29.8296 11.0969H10.1702V24.3088H29.8296V11.0969Z" fill="#84DBFF"/>
<path d="M23.2872 28H16.7129V30.8515H23.2872V28Z" fill="#CED5E0"/>
<path d="M27.0178 33.0375H12.9822C12.9822 31.8256 13.9644 30.8514 15.1683 30.8514H24.8317C26.0356 30.8434 27.0178 31.8256 27.0178 33.0375Z" fill="#E6E9EE"/>
<path d="M20 26.7643C20.363 26.7643 20.6574 26.47 20.6574 26.1069C20.6574 25.7438 20.363 25.4495 20 25.4495C19.6369 25.4495 19.3425 25.7438 19.3425 26.1069C19.3425 26.47 19.6369 26.7643 20 26.7643Z" fill="#324A5E"/>
<path d="M16.895 15.6672H14.5188V22.6455H16.895V15.6672Z" fill="#FFD05B"/>
<path d="M21.1883 12.9504H18.812V22.6376H21.1883V12.9504Z" fill="#324A5E"/>
<path d="M25.489 6.9624H23.1128V22.6376H25.489V6.9624Z" fill="#FF7058"/>
</svg>
