<svg width="41" height="41" fill="none" xmlns="http://www.w3.org/2000/svg"><path d="M20.5 41C31.822 41 41 31.822 41 20.5S31.822 0 20.5 0 0 9.178 0 20.5 9.178 41 20.5 41z" fill="#84DBFF"/><path d="M26.33 27.498H7.712v2.858h18.616v-2.858z" fill="#FF7058"/><path d="M20.955 13.591a4.292 4.292 0 00-4.458-4.287c-2.216.081-4.043 1.924-4.116 4.133a4.437 4.437 0 00.22 1.518c1.08 3.19 1.802 6.487 1.802 9.856v.999h4.522v-.439c0-3.483.463-6.982 1.737-10.23.187-.478.293-.998.293-1.55z" fill="#324A5E"/><path d="M25.217 25.566H8.825v1.932h16.392v-1.932z" fill="#324A5E"/><path d="M34.53 15.004a2.892 2.892 0 01-.666-1.616 1.988 1.988 0 00-1.819-1.819 2.846 2.846 0 01-1.616-.674 1.993 1.993 0 00-1.282-.47c-.487 0-.934.178-1.283.47a2.893 2.893 0 01-1.616.666 1.988 1.988 0 00-1.818 1.819 2.893 2.893 0 01-.666 1.615c-.292.35-.471.796-.471 1.283a2 2 0 00.47 1.283c.382.455.618 1.023.667 1.616a1.988 1.988 0 001.818 1.818 2.892 2.892 0 011.616.666c.349.292.796.47 1.283.47.487 0 .933-.178 1.282-.47a2.892 2.892 0 011.616-.666 1.988 1.988 0 001.819-1.818 2.892 2.892 0 01.665-1.616c.293-.35.471-.796.471-1.283 0-.479-.178-.925-.47-1.274z" fill="#FF7058"/><path d="M29.146 19.924a3.63 3.63 0 100-7.259 3.63 3.63 0 000 7.259z" fill="#F1543F"/></svg>