<svg width="40" height="40" fill="none" xmlns="http://www.w3.org/2000/svg"><path d="M20 40c11.046 0 20-8.954 20-20S31.046 0 20 0 0 8.954 0 20s8.954 20 20 20z" fill="#84DBFF"/><path d="M30.083 7.612H9.925v22.186h20.158V7.612z" fill="#fff"/><path d="M27.913 9.877H12.079v1.37h15.834v-1.37zm0 3.929H12.079v1.37h15.834v-1.37zm0 3.929H12.079v1.37h15.834v-1.37zm0 3.936H12.079v1.37h15.834v-1.37zm0 3.929H12.079v1.37h15.834V25.6z" fill="#4CDBC4"/><path d="M26.733 33.441l-1.806-1.631-1.798 1.631V25.6h3.604v7.841z" fill="#F1543F"/><path d="M28.388 23.144a.656.656 0 01-.293-.704 1.196 1.196 0 00-.309-1.125 1.163 1.163 0 00-1.125-.31.656.656 0 01-.704-.292 1.178 1.178 0 00-2.028 0 .656.656 0 01-.705.293 1.196 1.196 0 00-1.125.309 1.163 1.163 0 00-.309 1.124.656.656 0 01-.293.705 1.178 1.178 0 000 2.028.656.656 0 01.293.705c-.095.388.008.824.31 1.125.308.309.736.412 1.124.309a.656.656 0 01.705.293 1.178 1.178 0 002.028 0 .656.656 0 01.704-.293c.389.095.824-.008 1.125-.31.301-.3.412-.736.31-1.124a.656.656 0 01.292-.705c.349-.206.578-.586.578-1.014a1.213 1.213 0 00-.578-1.014z" fill="#FF7058"/><path d="M24.927 26.139a1.98 1.98 0 100-3.96 1.98 1.98 0 000 3.96z" fill="#E6E9EE"/></svg>