<svg width="40" height="40" fill="none" xmlns="http://www.w3.org/2000/svg"><path d="M20 40c11.046 0 20-8.954 20-20S31.046 0 20 0 0 8.954 0 20s8.954 20 20 20z" fill="#324A5E"/><path d="M32.555 27.224c-4.127-.507-8.444.047-12.563 1.616V10.725c3.976-1.466 8.135-1.98 12.119-1.505.15 5.861.293 11.857.444 18.004z" fill="#E6E9EE"/><path d="M30.392 11.85c-2.851-.127-5.766.237-8.61 1.077v-.721c2.844-.84 5.75-1.204 8.594-1.077.008.245.016.483.016.72zm.056 2.558c-2.868-.127-5.79.238-8.658 1.085v-.729a26.337 26.337 0 018.642-1.085c.008.238.008.483.016.729zm.055 2.574a26.235 26.235 0 00-8.697 1.101v-.736c2.875-.856 5.814-1.228 8.689-1.093 0 .237 0 .483.008.728zm.055 2.606c-2.89-.134-5.853.246-8.744 1.11v-.745a26.432 26.432 0 018.729-1.11c0 .246.008.492.015.745zm.056 2.63c-2.907-.135-5.885.245-8.784 1.125v-.753c2.899-.871 5.869-1.251 8.776-1.117-.008.246 0 .491.008.745zm.056 2.653c-2.923-.134-5.91.246-8.832 1.133v-.76c2.915-.88 5.9-1.268 8.823-1.133-.008.253 0 .507.008.76z" fill="#4CDBC4"/><path d="M7.446 27.224c4.126-.507 8.443.047 12.562 1.616V10.725c-3.976-1.466-8.135-1.98-12.119-1.505-.15 5.861-.293 11.857-.443 18.004z" fill="#fff"/><path d="M9.608 11.85c2.851-.127 5.766.237 8.61 1.077v-.721c-2.844-.84-5.75-1.204-8.594-1.077-.008.245-.016.483-.016.72zm-.056 2.558c2.868-.127 5.79.238 8.658 1.085v-.729a26.337 26.337 0 00-8.642-1.085c-.008.238-.008.483-.016.729zm-.055 2.574a26.235 26.235 0 018.697 1.101v-.736c-2.875-.856-5.814-1.228-8.69-1.093 0 .237 0 .483-.007.728zm-.056 2.606c2.891-.134 5.854.246 8.745 1.11v-.745a26.432 26.432 0 00-8.729-1.11c0 .246-.008.492-.016.745zm-.055 2.63c2.907-.135 5.885.245 8.792 1.125v-.753c-2.899-.871-5.87-1.251-8.776-1.117 0 .246-.008.491-.016.745zm-.056 2.653c2.923-.134 5.91.246 8.832 1.133v-.76c-2.915-.88-5.9-1.268-8.824-1.133.008.253 0 .507-.007.76z" fill="#4CDBC4"/><path d="M30.17 21.616a.89.89 0 00-.934.879v-.246c0-.475-.357-.91-.84-.934a.89.89 0 00-.935.879v-.246c0-.475-.356-.91-.84-.934a.89.89 0 00-.934.879v-4.11c0-.476-.356-.912-.84-.936a.89.89 0 00-.934.88v10.431h-.008l-.65-.966v-.887c0-.959-.776-1.735-1.734-1.735v3.58l2.384 2.773h5.917c.641 0 1.164-.523 1.164-1.165v-7.24a.874.874 0 00-.816-.902z" fill="#FF7058"/></svg>