<svg width="40" height="40" fill="none" xmlns="http://www.w3.org/2000/svg"><path d="M20 40c11.046 0 20-8.954 20-20S31.046 0 20 0 0 8.954 0 20s8.954 20 20 20z" fill="#90DFAA"/><path d="M26.527 7.081H13.48v13.323h13.046V7.08z" fill="#fff"/><path d="M30.685 18.305h-1.26a.18.18 0 00-.181.182v1.014H10.757v-1.014a.18.18 0 00-.183-.182H9.315a.18.18 0 00-.182.182v3.287c0 .103.079.182.182.182h1.26a.18.18 0 00.182-.182V20.76h18.487v1.014c0 .103.079.182.182.182h1.26a.18.18 0 00.181-.182v-3.287a.184.184 0 00-.182-.182z" fill="#FF7058"/><path d="M24.11 17.061c-.672 1.3-2.264 2.21-4.11 2.21-1.853 0-3.438-.91-4.11-2.21h-4.017v4.563h16.262V17.06H24.11z" fill="#2B3B4E"/><path d="M29.465 31.47H10.543l1.33-9.846h16.262l1.33 9.845z" fill="#324A5E"/><path d="M14.392 23.263h-.966c-.111 0-.206.08-.222.175l-.095.847c-.008.095.071.182.182.182h.982c.11 0 .214-.079.222-.182l.071-.847c.016-.095-.063-.175-.174-.175zm3.05 0h-.967c-.11 0-.206.08-.214.175l-.047.847c-.008.095.08.182.19.182h.982c.111 0 .206-.079.214-.182l.032-.847c0-.095-.08-.175-.19-.175zm3.041 0h-.966c-.111 0-.198.08-.206.175l-.008.847c0 .095.087.182.206.182h.982c.111 0 .206-.079.206-.182l-.008-.847c0-.095-.095-.175-.206-.175zm3.05 0h-.967c-.11 0-.198.08-.19.175l.032.847c0 .095.095.182.214.182h.982c.11 0 .198-.079.19-.182l-.047-.847c-.008-.095-.103-.175-.214-.175zm3.041 0h-.966c-.111 0-.19.08-.182.175l.07.847c.009.095.112.182.223.182h.982c.11 0 .198-.079.182-.182l-.095-.847c0-.095-.103-.175-.214-.175zm-12.61 4.721h-1.037a.24.24 0 00-.238.198l-.11.982c-.017.111.078.206.197.206h1.062c.118 0 .23-.095.237-.206l.087-.982c.008-.11-.079-.198-.198-.198zm3.279 0h-1.037c-.119 0-.222.087-.23.198l-.055.982c-.008.111.087.206.206.206h1.061a.232.232 0 00.23-.206l.04-.982c0-.11-.096-.198-.215-.198zm3.28 0h-1.038c-.119 0-.214.087-.214.198l-.008.982c0 .111.095.206.214.206h1.061c.12 0 .222-.095.214-.206l-.008-.982a.218.218 0 00-.221-.198zm3.279 0h-1.038c-.119 0-.214.087-.206.198l.04.982a.226.226 0 00.23.206h1.053c.119 0 .214-.095.206-.206l-.055-.982c-.008-.11-.111-.198-.23-.198zm3.279 0h-1.037c-.12 0-.207.087-.198.198l.087.982c.008.111.118.206.237.206h1.062a.193.193 0 00.198-.206l-.111-.982a.24.24 0 00-.238-.198zm-11.319-2.447h-.998c-.11 0-.214.087-.222.19l-.079.91c-.008.104.08.19.198.19h1.022c.119 0 .214-.086.222-.19l.055-.91c.008-.103-.079-.19-.198-.19zm3.16 0h-.998c-.11 0-.213.087-.213.19l-.032.91c0 .104.087.19.206.19h1.022c.119 0 .213-.086.213-.19l.016-.91a.21.21 0 00-.213-.19zm3.161 0h-.998c-.11 0-.206.087-.206.19l.016.91c0 .104.095.19.214.19h1.022c.118 0 .206-.086.206-.19l-.032-.91a.23.23 0 00-.222-.19zm3.153 0h-.998c-.111 0-.206.087-.198.19l.055.91c.008.104.103.19.222.19h1.021c.12 0 .206-.086.199-.19l-.08-.91c-.008-.103-.103-.19-.221-.19z" fill="#E6E9EE"/><path d="M29.196 32.919H10.804l-.261-1.45h18.922l-.27 1.45z" fill="#2B3B4E"/><path d="M25.045 8.903h-10.09v.776h10.09v-.776zm0 2.194h-10.09v.776h10.09v-.776zm0 2.186h-10.09v.776h10.09v-.776zm0 2.194h-10.09v.776h10.09v-.776z" fill="#E6E9EE"/></svg>