<svg width="418" height="228" viewBox="0 0 418 228" fill="none" xmlns="http://www.w3.org/2000/svg">
<g clip-path="url(#clip0)">
<path d="M210.341 228C323.685 228 415.569 221.898 415.569 214.372C415.569 206.845 323.685 200.743 210.341 200.743C96.9969 200.743 5.11328 206.845 5.11328 214.372C5.11328 221.898 96.9969 228 210.341 228Z" fill="#4B239B"/>
<path d="M202.476 65.1766C169.039 65.1766 145.031 86.6951 145.031 136.905C145.031 193.809 169.039 208.872 202.476 208.872C235.913 208.872 261.351 192.375 261.351 136.905C261.351 77.6095 235.913 65.1766 202.476 65.1766ZM202.696 189.984C179.536 189.984 167.437 176.355 167.437 136.942C167.437 102.165 180.032 83.826 203.191 83.826C226.35 83.826 238.945 95.8723 238.945 136.942C238.945 175.361 225.855 189.984 202.696 189.984Z" fill="white"/>
<path d="M125.009 169.183H111.184V128.347C111.184 126.178 110.325 124.097 108.796 122.564C107.267 121.03 105.193 120.168 103.031 120.168H99.7914C98.7207 120.168 97.6606 120.38 96.6714 120.791C95.6822 121.202 94.7834 121.804 94.0264 122.564C93.2693 123.323 92.6687 124.225 92.259 125.217C91.8493 126.209 91.6384 127.273 91.6384 128.347V169.183H52.6431C51.8409 169.183 51.0523 168.975 50.3539 168.579C49.6554 168.183 49.0708 167.613 48.6567 166.924C48.2426 166.235 48.0132 165.45 47.9906 164.645C47.968 163.841 48.1531 163.044 48.5278 162.333L89.8 83.9771C90.3145 83.0002 90.6264 81.9289 90.7168 80.8277C90.8072 79.7266 90.6742 78.6185 90.3258 77.5703C89.9775 76.5222 89.421 75.5557 88.69 74.7292C87.959 73.9027 87.0686 73.2334 86.0726 72.7616L83.6362 71.6075C81.7444 70.7114 79.5816 70.5791 77.5952 71.2379C75.6088 71.8968 73.951 73.2964 72.9647 75.1472L22.6279 169.602C21.7707 171.21 21.3223 173.006 21.3223 174.83C21.3223 176.286 21.6082 177.728 22.1638 179.074C22.7194 180.419 23.5337 181.642 24.5603 182.671C25.5869 183.701 26.8056 184.518 28.1469 185.075C29.4882 185.632 30.9258 185.919 32.3777 185.919H91.6384V211.742C91.6384 213.029 91.8912 214.304 92.3823 215.493C92.8734 216.682 93.5933 217.763 94.5007 218.673C95.4082 219.583 96.4856 220.306 97.6712 220.798C98.8569 221.291 100.128 221.544 101.411 221.544H101.411C102.695 221.544 103.965 221.291 105.151 220.798C106.337 220.306 107.414 219.583 108.321 218.673C109.229 217.763 109.949 216.682 110.44 215.493C110.931 214.304 111.184 213.029 111.184 211.742V185.919H125.009C127.221 185.919 129.343 185.038 130.908 183.468C132.472 181.899 133.351 179.77 133.351 177.551C133.351 175.332 132.472 173.203 130.908 171.634C129.343 170.064 127.221 169.183 125.009 169.183Z" fill="#6C63FF"/>
<path d="M381.007 169.183H367.182V128.347C367.182 126.178 366.323 124.097 364.794 122.564C363.265 121.03 361.191 120.168 359.029 120.168H355.789C354.719 120.168 353.659 120.38 352.669 120.791C351.68 121.202 350.781 121.804 350.024 122.564C349.267 123.323 348.667 124.225 348.257 125.217C347.847 126.209 347.636 127.273 347.636 128.347V169.183H308.641C307.839 169.183 307.05 168.975 306.352 168.579C305.653 168.183 305.069 167.613 304.655 166.924C304.241 166.235 304.011 165.45 303.989 164.645C303.966 163.841 304.151 163.044 304.526 162.333L345.798 83.9771C346.313 83.0002 346.624 81.9289 346.715 80.8277C346.805 79.7266 346.672 78.6185 346.324 77.5703C345.975 76.5222 345.419 75.5557 344.688 74.7292C343.957 73.9027 343.067 73.2334 342.071 72.7616L339.634 71.6075C337.742 70.7114 335.58 70.5791 333.593 71.2379C331.607 71.8968 329.949 73.2964 328.963 75.1472L278.626 169.602C277.769 171.21 277.32 173.006 277.32 174.83C277.32 177.771 278.485 180.592 280.558 182.671C282.632 184.751 285.444 185.919 288.376 185.919H347.636V211.742C347.636 214.341 348.666 216.835 350.499 218.673C352.331 220.512 354.817 221.544 357.409 221.544C360.001 221.544 362.487 220.512 364.319 218.673C366.152 216.835 367.182 214.341 367.182 211.742V185.919H381.007C383.219 185.919 385.341 185.038 386.906 183.468C388.47 181.899 389.349 179.77 389.349 177.551C389.349 175.332 388.47 173.203 386.906 171.634C385.341 170.064 383.219 169.183 381.007 169.183Z" fill="#6C63FF"/>
<path d="M183.301 12.1571C186.073 12.1571 188.32 9.90298 188.32 7.12236C188.32 4.34173 186.073 2.08759 183.301 2.08759C180.528 2.08759 178.281 4.34173 178.281 7.12236C178.281 9.90298 180.528 12.1571 183.301 12.1571Z" fill="#2F2E41"/>
<path d="M195.543 36.5942C203.319 36.5942 209.622 28.4023 209.622 18.2971C209.622 8.19188 203.319 0 195.543 0C187.768 0 181.465 8.19188 181.465 18.2971C181.465 28.4023 187.768 36.5942 195.543 36.5942Z" fill="#2F2E41"/>
<path opacity="0.1" d="M195.543 31.0682C188.491 31.0682 182.649 24.3283 181.625 15.5341C181.518 16.4512 181.465 17.3738 181.465 18.2971C181.465 28.4023 187.768 36.5942 195.543 36.5942C203.319 36.5942 209.622 28.4023 209.622 18.2971C209.622 17.3738 209.569 16.4512 209.462 15.5341C208.437 24.3283 202.596 31.0682 195.543 31.0682Z" fill="black"/>
<path d="M224.191 71.8809C223.889 73.1271 222.585 74.1252 221.141 74.8226C218.106 76.2887 214.362 76.7262 210.73 76.8731C209.804 76.9296 208.874 76.9123 207.951 76.8216C206.161 76.6479 204.481 75.8736 203.185 74.6239C203.092 74.5633 203.016 74.4803 202.964 74.3824C202.912 74.2845 202.886 74.1751 202.888 74.0642C202.889 73.9534 202.919 73.8448 202.974 73.7486C203.029 73.6524 203.107 73.5717 203.202 73.514C205.135 71.3837 208.361 70.0774 211.611 69.1369C214.076 68.4237 218.374 66.5764 221.062 66.8257C223.665 67.0672 224.573 70.3073 224.191 71.8809Z" fill="#3F3D56"/>
<path opacity="0.1" d="M224.191 71.8809C223.889 73.1271 222.585 74.1252 221.141 74.8226C218.106 76.2887 214.362 76.7262 210.73 76.8731C209.804 76.9296 208.874 76.9123 207.951 76.8216C206.161 76.6479 204.481 75.8736 203.185 74.6239C203.092 74.5633 203.016 74.4803 202.964 74.3824C202.912 74.2845 202.886 74.1751 202.888 74.0642C202.889 73.9534 202.919 73.8448 202.974 73.7486C203.029 73.6524 203.107 73.5717 203.202 73.514C205.135 71.3837 208.361 70.0774 211.611 69.1369C214.076 68.4237 218.374 66.5764 221.062 66.8257C223.665 67.0672 224.573 70.3073 224.191 71.8809Z" fill="black"/>
<path d="M185.597 62.5665C184.671 64.388 184.503 66.504 185.131 68.4495C185.769 70.3803 186.965 72.0776 188.566 73.3265C192.493 76.4843 197.899 76.9188 202.932 76.875C207.343 76.8365 211.748 76.5336 216.123 75.9681C217.589 75.8378 219.03 75.5022 220.403 74.9712C222.046 74.2583 223.489 72.9506 224.074 71.2537C224.659 69.5569 224.244 67.479 222.855 66.3466C221.635 65.3515 219.952 65.2147 218.382 65.12L209.399 64.5786C210.287 63.6777 211.468 63.1682 212.549 62.5133C213.983 61.6444 214.935 60.1856 215.978 58.8703C217.584 56.9447 219.332 55.1423 221.206 53.4782C221.499 55.1603 222.559 56.5416 223.808 57.7023C225.056 58.863 226.496 59.7974 227.793 60.9024C230.936 63.579 233.2 67.2117 236.505 69.6834C238.779 69.084 240.905 68.0195 242.749 66.5566L241.464 64.2223C241.357 63.9821 241.191 63.7734 240.98 63.6163C240.617 63.3919 240.148 63.5075 239.725 63.444C238.597 63.2743 238.104 61.9673 237.661 60.9123C236.445 58.0159 234.118 55.7687 232.13 53.3398C230.662 51.5468 229.361 49.6237 228.241 47.5941C227.573 46.3837 226.961 45.1234 226.055 44.0806C225.149 43.0378 223.879 42.2179 222.5 42.2149C221.281 42.2124 220.157 42.8329 219.109 43.4572C215.918 45.3585 212.848 47.4568 209.916 49.7399C208.382 50.9347 206.857 52.1971 205.057 52.9298C204.299 53.2382 203.5 53.4491 202.773 53.8244C201.5 54.4817 200.533 55.5939 199.493 56.5812C195.782 60.1025 190.702 62.384 185.597 62.5665Z" fill="#6D80E4"/>
<path d="M204.38 37.5029C204.338 38.5793 204.11 39.6401 203.705 40.638C203.5 41.1356 203.195 41.5856 202.809 41.9597C202.423 42.3339 201.964 42.6243 201.461 42.8127C200.747 43.0046 199.999 43.029 199.274 42.8839C198.641 42.8177 198.032 42.6095 197.491 42.2749C196.649 41.694 196.229 40.6576 196.076 39.6433C195.923 38.6302 195.992 37.595 195.894 36.5745C195.798 35.7503 195.642 34.9343 195.426 34.1333C195.36 33.8668 195.293 33.6016 195.226 33.3363C195.162 33.0711 195.098 32.8058 195.039 32.5406C194.985 32.2913 194.935 32.0408 194.892 31.789C194.857 31.5766 194.825 31.3629 194.802 31.148C194.78 30.5109 194.674 29.8795 194.487 29.2704C194.311 28.8754 194.091 28.5017 193.831 28.1566C193.719 27.997 193.612 27.8374 193.512 27.6716C193.226 27.2408 193.092 26.7254 193.134 26.209C193.146 26.1292 193.165 26.0507 193.192 25.9745C193.202 25.945 193.213 25.9156 193.225 25.8873C193.335 25.8573 193.436 25.8008 193.52 25.7227C193.603 25.6446 193.666 25.5472 193.703 25.4391C193.746 25.2068 193.726 24.9674 193.646 24.7453C193.554 24.4349 193.429 24.1355 193.273 23.8525C193.17 23.6659 192.821 23.3294 192.818 23.1157C192.813 22.6859 193.651 22.3396 193.99 22.1702C195.025 21.6502 196.179 21.4155 197.335 21.4898C198.075 21.5402 198.878 21.7686 199.287 22.3912C199.654 22.9524 199.605 23.6794 199.762 24.3314C199.779 24.4262 199.819 24.5153 199.878 24.5905C199.958 24.6636 200.059 24.7099 200.166 24.7231C200.347 24.7593 200.533 24.7668 200.717 24.7453H200.718C200.767 24.7414 200.815 24.7344 200.863 24.7244C201.149 24.6714 201.419 24.5543 201.654 24.3818C201.805 24.3412 201.958 24.3081 202.113 24.2823C202.119 24.2817 202.125 24.2804 202.131 24.2786C202.744 26.2201 202.824 28.3015 203.326 30.2786C203.574 31.2622 203.931 32.2336 203.981 33.2454C203.984 33.2896 203.986 33.3351 203.987 33.3805C203.994 33.7059 203.969 34.0338 203.982 34.358C203.987 34.504 204.003 34.6493 204.031 34.7927C204.086 35.0232 204.154 35.2504 204.235 35.473L204.239 35.484C204.262 35.5553 204.284 35.6277 204.303 35.7002C204.316 35.753 204.329 35.8046 204.338 35.8574L204.34 35.861C204.43 36.4037 204.444 36.9564 204.38 37.5029Z" fill="#FBBEBE"/>
<path d="M195.788 24.8054C199.777 24.8054 203.011 21.5617 203.011 17.5603C203.011 13.5589 199.777 10.3151 195.788 10.3151C191.799 10.3151 188.565 13.5589 188.565 17.5603C188.565 21.5617 191.799 24.8054 195.788 24.8054Z" fill="#FBBEBE"/>
<path d="M241.644 57.0353C241.435 55.0587 240.735 53.1663 239.607 51.5315C239.795 52.6489 239.982 53.766 240.171 54.8827C239.937 54.9505 239.688 54.9485 239.455 54.8767C239.223 54.8049 239.016 54.6666 238.861 54.4787C238.556 54.0977 238.324 53.6646 238.174 53.2003C237.353 51.1569 236.28 49.2249 234.98 47.4496C230.382 47.0653 225.836 45.1533 221.793 42.9245C217.748 40.6969 213.962 38.026 209.971 35.7039C209.28 35.2844 208.559 34.915 207.814 34.5987C206.566 34.0964 205.164 33.8361 203.98 33.2454C203.901 33.2061 203.821 33.1644 203.743 33.1214C203.475 32.9755 203.222 32.8049 202.986 32.6118C202.859 32.508 202.738 32.3964 202.624 32.2778C202.033 31.5885 201.565 30.8026 201.239 29.9544C200.604 28.5447 200.377 26.8439 199.743 25.4342C200.035 25.1609 200.362 24.9291 200.716 24.7453H200.718C200.769 24.7182 200.82 24.6925 200.873 24.6679C201.124 24.5494 201.385 24.4536 201.653 24.3818C201.805 24.3413 201.958 24.3081 202.112 24.2823C202.118 24.2817 202.124 24.2804 202.13 24.2786C202.846 24.1617 203.579 24.2199 204.267 24.4481C205.273 24.7895 206.121 25.471 206.967 26.1157C208.342 27.0869 209.66 28.1356 210.915 29.2569C211.613 29.9274 212.25 30.6642 213 31.2733C213.624 31.756 214.281 32.1931 214.968 32.5811C219.028 35.0076 223.089 37.4337 227.151 39.8594C228.526 40.6809 229.902 41.5024 231.246 42.3719C233.288 43.6932 235.257 45.125 237.224 46.5556C238.383 47.398 239.542 48.2408 240.701 49.0841C241.081 49.3273 241.414 49.6367 241.686 49.9977C241.926 50.4076 242.075 50.8645 242.123 51.3374C242.414 53.248 242.25 55.2005 241.644 57.0353Z" fill="#FBBEBE"/>
<path d="M206.17 42.9515C205.683 45.1434 203.474 46.4685 202.32 48.3939C200.885 50.7836 201.47 53.5613 202.009 56.2985C201.025 57.1495 200.04 58.0005 199.055 58.8515C198.511 59.3194 197.968 59.7897 197.383 60.2035C196.529 60.777 195.638 61.2907 194.714 61.741C193.842 62.1904 192.971 62.6403 192.099 63.0905C191.289 63.5476 190.43 63.9125 189.539 64.1786C187.821 64.6206 185.997 64.3112 184.298 63.7991C184.098 63.7464 183.905 63.6675 183.725 63.5646C183.619 63.5012 183.527 63.4173 183.453 63.3177C183.286 63.0165 183.225 62.6671 183.281 62.3267C183.453 59.4582 184.153 56.6497 184.849 53.8622C185.221 52.1899 185.722 50.5489 186.346 48.9539C186.959 47.5872 187.663 46.2637 188.453 44.9924C189.326 43.3928 190.36 41.8872 191.538 40.4992C192.112 39.9649 192.595 39.3402 192.968 38.6498C193.403 37.6551 193.235 36.5143 193.323 35.4312C193.391 34.6175 193.606 33.823 193.959 33.087V33.0858C194.147 32.6894 194.374 32.3126 194.637 31.9609C194.755 32.2385 194.874 32.5156 194.993 32.7923C195.071 32.974 195.149 33.1554 195.226 33.3363C195.326 33.5696 195.426 33.8021 195.524 34.0338C195.809 34.6994 196.094 35.3645 196.379 36.0293C196.686 36.8666 197.124 37.6496 197.676 38.349C197.929 38.7071 198.27 38.9935 198.665 39.1801C199.061 39.3667 199.498 39.4471 199.934 39.4136C200.37 39.3801 200.79 39.2337 201.153 38.9888C201.516 38.7439 201.809 38.4088 202.004 38.0162C202.416 37.2834 202.714 36.4921 202.888 35.6695C203.13 34.6678 203.163 33.627 202.986 32.6118C202.691 30.6568 201.862 28.6601 201.26 26.8439C201.015 26.2383 200.873 25.5957 200.84 24.943C200.841 24.8696 200.848 24.7965 200.862 24.7244C200.866 24.706 200.869 24.6863 200.873 24.6679C201.124 24.5494 201.385 24.4536 201.653 24.3818C201.805 24.3413 201.958 24.3081 202.112 24.2823C202.642 27.1607 203.173 30.0391 203.704 32.9176C203.717 32.9851 203.73 33.0526 203.742 33.1214C203.818 33.534 203.895 33.9466 203.981 34.358C204.058 34.7313 204.142 35.1034 204.235 35.473L204.238 35.4841C204.27 35.6093 204.303 35.7333 204.337 35.8574L204.339 35.8611C204.433 36.2 204.538 36.5365 204.657 36.868C205.377 38.8659 206.632 40.8774 206.17 42.9515Z" fill="#6C63FF"/>
<path d="M235.484 73.7556C235.461 74.1778 235.543 74.5992 235.722 74.9823C236.174 75.811 237.258 75.9994 238.197 76.0769C243.68 76.5289 249.196 76.3603 254.641 75.5743C254.936 75.554 255.223 75.4648 255.478 75.3138C256.252 74.7693 255.775 73.4424 254.929 73.0177C254.084 72.5929 253.081 72.6953 252.153 72.5113C251.232 72.2786 250.354 71.8969 249.555 71.3811C247.674 70.297 245.82 69.1668 243.994 67.9905C242.907 67.2901 241.624 66.5427 240.399 66.9579C237.083 68.0834 235.462 70.1666 235.484 73.7556Z" fill="#3F3D56"/>
<path d="M195.066 32.3871V32.3883C195.058 32.4399 195.049 32.4902 195.038 32.5406C195.025 32.6241 195.009 32.7088 194.993 32.7923C194.841 33.5721 194.655 34.3481 194.441 35.1193C193.853 37.2499 193.066 39.3461 192.285 41.4116C190.189 46.9498 188.093 52.4884 185.996 58.0275C185.467 59.4225 184.94 60.8187 184.339 62.1855C184.138 62.6411 183.931 63.1003 183.725 63.5645C182.988 65.226 182.281 66.9415 182.046 68.7098C181.827 69.8736 181.801 71.0658 181.971 72.2378C182.206 73.3971 182.908 74.5293 184.006 74.9578C184.542 75.1678 185.309 75.449 185.163 76.0078C185.083 76.3148 184.735 76.4646 184.423 76.5161C184.011 76.5821 183.589 76.5562 183.188 76.4403C182.787 76.3244 182.416 76.1214 182.102 75.8457C181.516 75.3238 181.065 74.5121 180.285 74.4249C179.745 74.366 179.248 74.6901 178.754 74.9173C176.736 75.842 174.386 75.1949 172.267 74.5379C172.433 73.6771 173.295 73.1097 174.151 72.9378C175.006 72.7647 175.892 72.8875 176.764 72.8641C177.044 72.8791 177.321 72.8075 177.559 72.6591C177.772 72.4629 177.921 72.207 177.987 71.9247C178.55 70.2536 178.968 68.5371 179.237 66.7942C179.519 64.973 179.636 63.1237 180.038 61.3247C180.35 59.9211 180.832 58.5617 181.246 57.1839C182.046 54.3471 182.703 51.4715 183.215 48.5683C183.473 47.3621 183.659 46.1413 183.769 44.9126C183.839 43.8933 183.806 42.8692 183.904 41.8536C184.068 40.5324 184.343 39.2274 184.725 37.9523C185.1 36.561 185.474 35.1705 185.848 33.7808C186.403 31.7239 186.998 29.5872 188.403 27.9884C188.891 27.4255 189.489 26.9692 190.16 26.6477C190.832 26.3262 191.561 26.1464 192.305 26.1194C192.583 26.119 192.861 26.1491 193.133 26.209C193.179 26.2201 193.224 26.2311 193.269 26.2434C193.566 26.3212 193.851 26.4394 194.115 26.5946C194.549 26.3183 194.769 26.4153 195.057 26.8414C195.309 27.2924 195.428 27.8061 195.399 28.3224C195.424 29.685 195.312 31.0467 195.066 32.3871Z" fill="#FBBEBE"/>
<path d="M195.544 34.0154L195.525 34.0338L195.426 34.1333L194.442 35.1194L193.96 33.087L192.306 26.1194C192.584 26.1191 192.862 26.1491 193.134 26.209C193.146 26.1292 193.165 26.0507 193.192 25.9745L193.27 26.2434L193.831 28.1566L194.892 31.789L195.067 32.3871V32.3883L195.544 34.0154Z" fill="#6C63FF"/>
<path d="M201.789 11.7868C201.788 12.432 201.66 13.0707 201.413 13.6664C201.166 14.2621 200.805 14.8031 200.349 15.2585C200.184 15.4242 200.007 15.5777 199.82 15.7176C198.975 16.3564 197.946 16.7021 196.888 16.7026H191.015C189.717 16.7006 188.473 16.1821 187.556 15.2608C186.639 14.3396 186.124 13.091 186.124 11.7892C186.124 10.4874 186.639 9.23883 187.556 8.3176C188.473 7.39638 189.717 6.87783 191.015 6.87582H196.888C198.186 6.87921 199.43 7.39756 200.348 8.31768C201.266 9.2378 201.784 10.485 201.789 11.7868Z" fill="#2F2E41"/>
<path d="M207.296 12.1571C210.068 12.1571 212.315 9.90298 212.315 7.12236C212.315 4.34173 210.068 2.08759 207.296 2.08759C204.524 2.08759 202.276 4.34173 202.276 7.12236C202.276 9.90298 204.524 12.1571 207.296 12.1571Z" fill="#2F2E41"/>
<path opacity="0.1" d="M207.173 2.08759C207.111 2.08759 207.05 2.09004 206.989 2.09224C208.288 2.13959 209.517 2.69028 210.419 3.62843C211.321 4.56659 211.825 5.81907 211.825 7.12236C211.825 8.42565 211.321 9.67812 210.419 10.6163C209.517 11.5544 208.288 12.1051 206.989 12.1525C207.05 12.1547 207.111 12.1571 207.173 12.1571C208.504 12.1571 209.781 11.6267 210.722 10.6825C211.663 9.73827 212.192 8.45766 212.192 7.12236C212.192 5.78705 211.663 4.50644 210.722 3.56224C209.781 2.61803 208.504 2.08759 207.173 2.08759Z" fill="black"/>
<path opacity="0.1" d="M183.301 2.08759C183.363 2.08759 183.424 2.09004 183.485 2.09224C182.186 2.13959 180.957 2.69028 180.055 3.62843C179.153 4.56659 178.649 5.81907 178.649 7.12236C178.649 8.42565 179.153 9.67812 180.055 10.6163C180.957 11.5544 182.186 12.1051 183.485 12.1525C183.424 12.1547 183.363 12.1571 183.301 12.1571C181.971 12.1559 180.695 11.625 179.755 10.6809C178.814 9.73683 178.286 8.45689 178.286 7.12236C178.286 5.78782 178.814 4.50788 179.755 3.5638C180.695 2.61973 181.971 2.08876 183.301 2.08759Z" fill="black"/>
<path opacity="0.1" d="M199.82 15.7176C198.975 16.3564 197.946 16.7021 196.888 16.7026H191.015C189.957 16.7021 188.928 16.3564 188.083 15.7176H199.82Z" fill="black"/>
<path d="M237.747 52.1991C237.747 52.1991 239.012 55.8565 240.17 54.8827L239.247 50.1021L237.747 52.1991Z" fill="#FBBEBE"/>
<path d="M391.728 163.732C392.907 164.162 394.168 164.311 395.414 164.168C396.66 164.025 397.856 163.594 398.908 162.909C399.959 162.223 400.837 161.302 401.473 160.218C402.109 159.134 402.485 157.916 402.572 156.661C402.659 155.406 402.454 154.148 401.974 152.986C401.493 151.825 400.75 150.791 399.803 149.966C398.857 149.141 397.732 148.548 396.517 148.234C395.303 147.92 394.033 147.893 392.806 148.155L393.009 152.335L391.037 148.753C389.102 149.665 387.607 151.31 386.881 153.327C386.623 154.034 386.466 154.774 386.415 155.525C386.29 157.286 386.742 159.04 387.7 160.521C388.659 162.002 390.073 163.129 391.728 163.732Z" fill="#57B894"/>
<path d="M401.484 212.219C400.788 208.663 403.804 205.512 406.784 203.463C409.763 201.414 413.244 199.401 414.26 195.924C415.721 190.928 411.37 186.351 407.983 182.405C405.47 179.477 403.312 176.26 401.554 172.821C400.85 171.443 400.202 170.002 400.017 168.464C399.749 166.249 400.459 164.045 401.174 161.932C403.554 154.894 406.1 147.915 408.81 140.995" stroke="#3F3D56" stroke-miterlimit="10"/>
<path d="M392.061 162.656C393.239 163.085 394.501 163.235 395.747 163.092C396.993 162.949 398.189 162.518 399.24 161.832C400.292 161.147 401.17 160.225 401.806 159.141C402.442 158.057 402.818 156.84 402.905 155.585C402.992 154.33 402.787 153.072 402.307 151.91C401.826 150.748 401.083 149.714 400.136 148.889C399.19 148.065 398.065 147.472 396.85 147.158C395.636 146.843 394.366 146.816 393.139 147.079L393.342 151.259L391.37 147.676C389.435 148.588 387.94 150.234 387.214 152.251C386.956 152.958 386.799 153.697 386.748 154.448C386.623 156.21 387.075 157.964 388.033 159.445C388.992 160.926 390.406 162.053 392.061 162.656V162.656Z" stroke="#3F3D56" stroke-miterlimit="10"/>
<path d="M400.494 139.551C400.957 138.271 401.733 137.128 402.752 136.228C403.77 135.328 404.998 134.7 406.322 134.401L406.989 138.375L408.225 134.201C409.941 134.226 411.605 134.798 412.976 135.834C414.347 136.87 415.354 138.316 415.853 139.964C416.351 141.611 416.314 143.375 415.748 145C415.182 146.625 414.116 148.028 412.703 149.006C411.29 149.984 409.604 150.486 407.888 150.44C406.173 150.394 404.516 149.802 403.157 148.75C401.799 147.697 400.809 146.239 400.33 144.586C399.851 142.933 399.909 141.17 400.494 139.551H400.494Z" fill="#57B894"/>
<path d="M400.94 138.116C401.402 136.836 402.178 135.693 403.197 134.793C404.215 133.893 405.443 133.265 406.768 132.966L407.434 136.94L408.67 132.766C410.387 132.791 412.05 133.363 413.421 134.399C414.792 135.435 415.8 136.881 416.298 138.528C416.796 140.176 416.76 141.94 416.194 143.565C415.627 145.19 414.561 146.593 413.148 147.571C411.735 148.549 410.049 149.051 408.334 149.005C406.618 148.958 404.961 148.367 403.603 147.314C402.244 146.262 401.254 144.804 400.775 143.151C400.297 141.498 400.354 139.734 400.94 138.116H400.94Z" stroke="#3F3D56" stroke-miterlimit="10"/>
<path d="M406.561 182.486C408.43 183.166 410.483 183.132 412.329 182.391C414.175 181.651 415.685 180.254 416.57 178.469C417.456 176.683 417.656 174.633 417.131 172.709C416.607 170.785 415.395 169.122 413.727 168.037L412.777 171.245L412.104 167.224C412.097 167.221 412.09 167.218 412.083 167.216C411.083 166.852 410.022 166.688 408.959 166.735C407.897 166.783 406.854 167.039 405.89 167.491C404.926 167.943 404.061 168.58 403.343 169.368C402.625 170.155 402.069 171.077 401.706 172.08C401.343 173.083 401.181 174.147 401.229 175.213C401.277 176.279 401.533 177.325 401.984 178.292C402.435 179.258 403.071 180.126 403.856 180.845C404.642 181.565 405.561 182.122 406.561 182.486H406.561Z" fill="#57B894"/>
<path d="M406.947 181.032C408.816 181.712 410.869 181.679 412.715 180.938C414.561 180.197 416.071 178.801 416.956 177.015C417.842 175.229 418.041 173.179 417.517 171.256C416.993 169.332 415.781 167.669 414.113 166.584L413.163 169.791L412.489 165.77C412.483 165.767 412.476 165.764 412.469 165.762C411.469 165.398 410.408 165.235 409.345 165.282C408.282 165.329 407.239 165.586 406.276 166.038C405.312 166.489 404.447 167.127 403.729 167.914C403.011 168.702 402.455 169.623 402.092 170.626C401.729 171.629 401.567 172.694 401.615 173.76C401.662 174.826 401.919 175.872 402.37 176.838C402.821 177.804 403.457 178.672 404.242 179.392C405.027 180.111 405.946 180.669 406.947 181.032H406.947Z" stroke="#3F3D56" stroke-miterlimit="10"/>
<path d="M398.131 195.974C398.453 197.808 399.393 199.476 400.795 200.697C402.196 201.919 403.974 202.619 405.83 202.682C407.685 202.745 409.506 202.166 410.986 201.042C412.467 199.918 413.517 198.317 413.96 196.509C414.404 194.7 414.214 192.794 413.423 191.109C412.632 189.424 411.287 188.064 409.614 187.255C407.942 186.447 406.043 186.24 404.236 186.67C402.429 187.099 400.825 188.139 399.692 189.614L403.299 195.06L398.37 192.17C397.988 193.4 397.906 194.705 398.131 195.974Z" fill="#57B894"/>
<path d="M398.465 194.898C398.787 196.732 399.727 198.4 401.129 199.621C402.53 200.842 404.308 201.543 406.164 201.606C408.019 201.668 409.84 201.089 411.32 199.965C412.801 198.841 413.851 197.241 414.294 195.432C414.738 193.624 414.548 191.717 413.757 190.033C412.966 188.348 411.621 186.987 409.948 186.179C408.275 185.371 406.377 185.164 404.57 185.593C402.763 186.023 401.159 187.062 400.026 188.538L403.633 193.984L398.704 191.093C398.322 192.324 398.24 193.629 398.465 194.898V194.898Z" stroke="#3F3D56" stroke-miterlimit="10"/>
<path d="M3.50413 183.518C4.27847 183.8 5.10761 183.898 5.9262 183.804C6.74478 183.71 7.53044 183.427 8.22125 182.977C8.91205 182.526 9.48912 181.921 9.90697 181.209C10.3248 180.496 10.572 179.697 10.6291 178.872C10.6862 178.048 10.5515 177.221 10.2359 176.458C9.92016 175.694 9.43202 175.015 8.80991 174.473C8.18779 173.931 7.44871 173.542 6.65091 173.335C5.85312 173.129 5.01842 173.111 4.2126 173.283L4.34577 176.03L3.05026 173.676C1.77879 174.275 0.796524 175.356 0.319323 176.682C0.149849 177.146 0.0468214 177.632 0.0133138 178.125C-0.0684594 179.283 0.228083 180.435 0.858004 181.408C1.48792 182.381 2.41689 183.122 3.50413 183.518Z" fill="#57B894"/>
<path d="M9.91433 215.374C9.45701 213.038 11.4387 210.968 13.3961 209.622C15.3535 208.275 17.6406 206.953 18.3085 204.669C19.2683 201.386 16.4092 198.379 14.1839 195.786C12.5329 193.862 11.1151 191.749 9.96018 189.49C9.45806 188.602 9.11606 187.633 8.94993 186.627C8.77446 185.171 9.24055 183.723 9.71011 182.335C11.2744 177.711 12.9468 173.126 14.7275 168.579" stroke="#3F3D56" stroke-miterlimit="10"/>
<path d="M3.72386 182.811C4.4982 183.093 5.32734 183.191 6.14592 183.097C6.96451 183.003 7.75017 182.72 8.44097 182.269C9.13177 181.819 9.70884 181.214 10.1267 180.502C10.5445 179.789 10.7917 178.989 10.8488 178.165C10.9059 177.34 10.7713 176.514 10.4556 175.75C10.1399 174.987 9.65174 174.308 9.02963 173.766C8.40751 173.224 7.66843 172.834 6.87064 172.628C6.07285 172.421 5.23815 172.404 4.43234 172.576L4.5655 175.323L3.26998 172.969C1.99851 173.568 1.01625 174.649 0.53905 175.975C0.369578 176.439 0.266551 176.925 0.233042 177.418C0.151263 178.575 0.447804 179.728 1.07773 180.701C1.70765 181.674 2.63662 182.415 3.72386 182.811V182.811Z" stroke="#3F3D56" stroke-miterlimit="10"/>
<path d="M9.26432 167.63C9.5682 166.789 10.0782 166.039 10.7474 165.447C11.4166 164.856 12.2234 164.443 13.0935 164.246L13.5315 166.858L14.3436 164.115C15.4712 164.132 16.5642 164.508 17.465 165.188C18.3658 165.869 19.0276 166.819 19.355 167.901C19.6824 168.984 19.6584 170.143 19.2864 171.21C18.9144 172.278 18.2138 173.2 17.2856 173.842C16.3574 174.485 15.2496 174.815 14.1224 174.784C12.9951 174.754 11.9066 174.365 11.014 173.674C10.1213 172.983 9.47084 172.025 9.15635 170.938C8.84187 169.852 8.87967 168.694 9.26432 167.63Z" fill="#57B894"/>
<path d="M9.55631 166.688C9.8602 165.846 10.3702 165.096 11.0394 164.504C11.7086 163.913 12.5154 163.5 13.3854 163.304L13.8235 165.915L14.6356 163.172C15.7631 163.189 16.8562 163.565 17.757 164.245C18.6578 164.926 19.3196 165.876 19.647 166.958C19.9744 168.041 19.9503 169.2 19.5784 170.268C19.2064 171.335 18.5057 172.257 17.5775 172.899C16.6493 173.542 15.5416 173.872 14.4144 173.841C13.2871 173.811 12.1986 173.422 11.3059 172.731C10.4133 172.04 9.76283 171.082 9.44834 169.996C9.13386 168.909 9.17167 167.751 9.55631 166.688V166.688Z" stroke="#3F3D56" stroke-miterlimit="10"/>
<path d="M13.2507 195.839C14.4787 196.286 15.8277 196.264 17.0406 195.777C18.2534 195.29 19.2453 194.373 19.8272 193.2C20.409 192.027 20.5402 190.68 20.1957 189.416C19.8511 188.152 19.0549 187.059 17.9589 186.346L17.3349 188.454L16.8924 185.812C16.888 185.81 16.8835 185.808 16.8789 185.807C16.222 185.567 15.5245 185.46 14.8263 185.491C14.128 185.522 13.4427 185.69 12.8094 185.987C12.1762 186.284 11.6074 186.703 11.1357 187.22C10.6639 187.737 10.2984 188.343 10.0601 189.002C9.82173 189.661 9.7152 190.361 9.74657 191.061C9.77794 191.761 9.9466 192.449 10.2429 193.084C10.5392 193.719 10.9574 194.289 11.4735 194.762C11.9895 195.234 12.5935 195.601 13.2507 195.839Z" fill="#57B894"/>
<path d="M13.5036 194.884C14.7317 195.331 16.0807 195.309 17.2935 194.822C18.5064 194.335 19.4983 193.418 20.0801 192.245C20.662 191.072 20.7932 189.725 20.4486 188.461C20.1041 187.197 19.3079 186.104 18.2119 185.391L17.5879 187.499L17.1454 184.857C17.141 184.855 17.1365 184.853 17.1318 184.852C16.4751 184.613 15.7779 184.506 15.08 184.537C14.3821 184.568 13.6972 184.737 13.0644 185.034C11.7863 185.634 10.7981 186.718 10.3169 188.048C9.8358 189.379 9.90124 190.846 10.4989 192.128C11.0965 193.41 12.1773 194.402 13.5036 194.884V194.884Z" stroke="#3F3D56" stroke-miterlimit="10"/>
<path d="M7.71161 204.701C7.92276 205.906 8.5406 207.002 9.46151 207.805C10.3824 208.607 11.5504 209.067 12.7696 209.109C13.9888 209.15 15.185 208.769 16.1576 208.031C17.1303 207.292 17.8202 206.241 18.1117 205.053C18.4032 203.864 18.2785 202.612 17.7586 201.505C17.2387 200.398 16.3551 199.504 15.2562 198.973C14.1572 198.442 12.9095 198.306 11.7226 198.588C10.5356 198.87 9.48136 199.553 8.73678 200.522L11.107 204.101L7.86837 202.202C7.61726 203.01 7.5635 203.867 7.71161 204.701Z" fill="#57B894"/>
<path d="M7.93134 203.994C8.14248 205.199 8.76032 206.295 9.68124 207.097C10.6022 207.9 11.7701 208.36 12.9893 208.401C14.2085 208.443 15.4047 208.062 16.3773 207.324C17.35 206.585 18.0399 205.534 18.3314 204.345C18.6229 203.157 18.4982 201.905 17.9783 200.798C17.4584 199.691 16.5749 198.797 15.4759 198.266C14.3769 197.735 13.1293 197.599 11.9423 197.881C10.7553 198.163 9.70109 198.846 8.9565 199.815L11.3268 203.394L8.08809 201.494C7.83698 202.303 7.78322 203.16 7.93134 203.994V203.994Z" stroke="#3F3D56" stroke-miterlimit="10"/>
<path d="M187.116 133.123C190.769 133.123 193.73 129.279 193.73 124.537C193.73 119.795 190.769 115.951 187.116 115.951C183.463 115.951 180.502 119.795 180.502 124.537C180.502 129.279 183.463 133.123 187.116 133.123Z" fill="white"/>
<path d="M223.103 133.318C226.756 133.318 229.717 129.474 229.717 124.732C229.717 119.99 226.756 116.146 223.103 116.146C219.45 116.146 216.489 119.99 216.489 124.732C216.489 129.474 219.45 133.318 223.103 133.318Z" fill="white"/>
<path d="M218.045 150.099C218.045 153.978 212.645 157.123 205.985 157.123C199.324 157.123 193.924 153.978 193.924 150.099C193.924 146.739 197.974 143.929 203.386 143.242C204.247 143.128 205.116 143.072 205.985 143.074C207.441 143.069 208.893 143.226 210.315 143.542C214.836 144.553 218.045 147.109 218.045 150.099Z" fill="white"/>
<path d="M210.459 144.128C210.462 144.619 210.279 145.092 209.946 145.452C209.788 145.624 209.597 145.762 209.384 145.856C209.172 145.951 208.941 146 208.709 146.001H204.818C204.339 145.984 203.885 145.778 203.557 145.427C203.229 145.076 203.053 144.609 203.067 144.128C203.065 143.747 203.176 143.375 203.386 143.058C204.247 142.936 205.116 142.877 205.985 142.879C207.443 142.874 208.897 143.042 210.315 143.379C210.411 143.617 210.46 143.871 210.459 144.128Z" fill="white"/>
<path d="M188.672 122.195C189.746 122.195 190.617 121.322 190.617 120.244C190.617 119.166 189.746 118.293 188.672 118.293C187.597 118.293 186.727 119.166 186.727 120.244C186.727 121.322 187.597 122.195 188.672 122.195Z" fill="white"/>
<path d="M224.854 122.195C225.929 122.195 226.8 121.322 226.8 120.244C226.8 119.166 225.929 118.293 224.854 118.293C223.78 118.293 222.909 119.166 222.909 120.244C222.909 121.322 223.78 122.195 224.854 122.195Z" fill="white"/>
<path opacity="0.3" d="M226.799 140.537C227.873 140.537 228.744 139.664 228.744 138.586C228.744 137.509 227.873 136.635 226.799 136.635C225.724 136.635 224.854 137.509 224.854 138.586C224.854 139.664 225.724 140.537 226.799 140.537Z" fill="#6C63FF"/>
<path opacity="0.3" d="M179.334 140.537C180.408 140.537 181.279 139.664 181.279 138.586C181.279 137.509 180.408 136.635 179.334 136.635C178.26 136.635 177.389 137.509 177.389 138.586C177.389 139.664 178.26 140.537 179.334 140.537Z" fill="#6C63FF"/>
</g>
<defs>
<clipPath id="clip0">
<rect width="418" height="228" fill="white"/>
</clipPath>
</defs>
</svg>
