<svg width="51" height="51" viewBox="0 0 51 51" fill="none" xmlns="http://www.w3.org/2000/svg">
<path d="M25.5 51C39.5833 51 51 39.5833 51 25.5C51 11.4167 39.5833 0 25.5 0C11.4167 0 0 11.4167 0 25.5C0 39.5833 11.4167 51 25.5 51Z" fill="#324A5E"/>
<path d="M30.3576 10.2H13.5933V40.0022H38.2046V18.0469L30.3576 10.2Z" fill="white"/>
<path d="M30.3577 18.0469H38.2046L30.3577 10.2V18.0469Z" fill="#E6E9EE"/>
<path d="M33.8922 22.7127H30.3171V36.72H33.8922V22.7127Z" fill="#F9B54C"/>
<path d="M27.6815 25.1566H24.1064V36.72H27.6815V25.1566Z" fill="#FF7058"/>
<path d="M21.4806 18.1782H17.9055V36.72H21.4806V18.1782Z" fill="#4CDBC4"/>
<path d="M35.4577 37.4875H16.3503V38.3762H35.4577V37.4875Z" fill="#324A5E"/>
</svg>
