<svg width="51" height="51" fill="none" xmlns="http://www.w3.org/2000/svg"><path d="M25.5 51C39.583 51 51 39.583 51 25.5S39.583 0 25.5 0 0 11.417 0 25.5 11.417 51 25.5 51z" fill="#324A5E"/><path d="M30.358 10.2H13.593v29.802h24.612V18.047L30.358 10.2z" fill="#fff"/><path d="M30.358 18.047h7.847L30.358 10.2v7.847z" fill="#E6E9EE"/><path d="M33.892 22.713h-3.575V36.72h3.575V22.713z" fill="#F9B54C"/><path d="M27.681 25.157h-3.575V36.72h3.575V25.157z" fill="#FF7058"/><path d="M21.48 18.178h-3.575V36.72h3.576V18.178z" fill="#4CDBC4"/><path d="M35.458 37.487H16.35v.89h19.108v-.89z" fill="#324A5E"/></svg>