<svg width="702" height="468" viewBox="0 0 702 468" fill="none" xmlns="http://www.w3.org/2000/svg">
<path d="M93.1843 97.6355L93.4455 97.4311C114.549 110.098 144.236 107.083 144.497 107.083L141.221 110.802C140.96 110.819 114.435 110.387 93.1843 97.6355Z" fill="#444053"/>
<path d="M138.757 84.0663C138.757 84.0663 122.594 94.6548 110.37 88.8411" stroke="#444053" stroke-miterlimit="10"/>
<path d="M90.3796 83.3737C90.3796 83.3737 93.7237 93.735 90.4364 95.6938" stroke="#444053" stroke-miterlimit="10"/>
<path d="M79.428 98.9129C79.428 98.9129 85.8038 92.5825 84.0267 91.4186" stroke="#444053" stroke-miterlimit="10"/>
<path d="M86.7119 107.906C86.7119 107.906 102.609 105.777 104.312 109.927" stroke="#444053" stroke-miterlimit="10"/>
<path d="M112.13 140.483C112.13 140.483 111.273 123.099 101.343 116.377" stroke="#444053" stroke-miterlimit="10"/>
<path d="M96.5226 153.093C96.5226 153.093 99.1002 140.358 86.9106 131.354" stroke="#444053" stroke-miterlimit="10"/>
<path opacity="0.1" d="M364.97 446.278C396.361 446.278 421.808 439.992 421.808 432.237C421.808 424.483 396.361 418.197 364.97 418.197C333.58 418.197 308.133 424.483 308.133 432.237C308.133 439.992 333.58 446.278 364.97 446.278Z" fill="#6C63FF"/>
<path d="M608.909 77.049H83.544C79.6277 77.049 76.4529 80.2238 76.4529 84.1401V375.593C76.4529 379.509 79.6277 382.684 83.544 382.684H608.909C612.825 382.684 616 379.509 616 375.593V84.1401C616 80.2238 612.825 77.049 608.909 77.049Z" fill="url(#paint0_linear)"/>
<path d="M608.114 81.3468H84.4012C80.4849 81.3468 77.3101 84.5216 77.3101 88.438V374.577C77.3101 378.493 80.4849 381.668 84.4012 381.668H608.114C612.03 381.668 615.205 378.493 615.205 374.577V88.438C615.205 84.5216 612.03 81.3468 608.114 81.3468Z" fill="white"/>
<path d="M608.114 81.3468H84.4012C80.4849 81.3468 77.3101 84.5216 77.3101 88.438V374.577C77.3101 378.493 80.4849 381.668 84.4012 381.668H608.114C612.03 381.668 615.205 378.493 615.205 374.577V88.438C615.205 84.5216 612.03 81.3468 608.114 81.3468Z" fill="white"/>
<path opacity="0.04" d="M608.114 81.3468H84.4012C80.4849 81.3468 77.3101 84.5216 77.3101 88.438V374.577C77.3101 378.493 80.4849 381.668 84.4012 381.668H608.114C612.03 381.668 615.205 378.493 615.205 374.577V88.438C615.205 84.5216 612.03 81.3468 608.114 81.3468Z" fill="#5A5773"/>
<path d="M612.48 77.9006H80.0468C79.3225 77.9006 78.6279 78.1883 78.1158 78.7004C77.6036 79.2126 77.3159 79.9072 77.3159 80.6314V92.1908H615.211V80.6314C615.211 79.9072 614.923 79.2126 614.411 78.7004C613.899 78.1883 613.204 77.9006 612.48 77.9006Z" fill="#5A5773"/>
<path d="M88.0519 88.7275C90.09 88.7275 91.7423 87.0753 91.7423 85.0372C91.7423 82.999 90.09 81.3468 88.0519 81.3468C86.0138 81.3468 84.3616 82.999 84.3616 85.0372C84.3616 87.0753 86.0138 88.7275 88.0519 88.7275Z" fill="white"/>
<path d="M97.9875 88.7275C100.026 88.7275 101.678 87.0753 101.678 85.0372C101.678 82.999 100.026 81.3468 97.9875 81.3468C95.9493 81.3468 94.2971 82.999 94.2971 85.0372C94.2971 87.0753 95.9493 88.7275 97.9875 88.7275Z" fill="white"/>
<path d="M107.923 88.7275C109.961 88.7275 111.613 87.0753 111.613 85.0372C111.613 82.999 109.961 81.3468 107.923 81.3468C105.885 81.3468 104.233 82.999 104.233 85.0372C104.233 87.0753 105.885 88.7275 107.923 88.7275Z" fill="white"/>
<path opacity="0.1" d="M556.052 158.668H119.102C115.907 158.668 113.317 161.259 113.317 164.454V325.478C113.317 328.673 115.907 331.263 119.102 331.263H556.052C559.247 331.263 561.837 328.673 561.837 325.478V164.454C561.837 161.259 559.247 158.668 556.052 158.668Z" fill="#6C63FF"/>
<path d="M566.843 153.077L130.035 141.944C126.841 141.863 124.185 144.386 124.104 147.58L120.001 308.552C119.92 311.746 122.443 314.402 125.637 314.483L562.445 325.616C565.639 325.698 568.295 323.174 568.376 319.98L572.479 159.008C572.56 155.814 570.037 153.159 566.843 153.077Z" fill="white"/>
<path opacity="0.2" d="M191.342 178.42L503.785 186.363" stroke="#5A5773" stroke-miterlimit="10"/>
<path opacity="0.2" d="M190.723 202.828L503.166 210.77" stroke="#5A5773" stroke-miterlimit="10"/>
<path opacity="0.2" d="M190.104 227.229L502.547 235.172" stroke="#5A5773" stroke-miterlimit="10"/>
<path opacity="0.2" d="M189.48 251.637L501.928 259.58" stroke="#5A5773" stroke-miterlimit="10"/>
<path opacity="0.2" d="M217.879 245.732L217.089 276.76" stroke="#5A5773" stroke-miterlimit="10" stroke-dasharray="12 12"/>
<path opacity="0.2" d="M188.861 276.044L501.304 283.981" stroke="#5A5773" stroke-miterlimit="10"/>
<path opacity="0.2" d="M252.426 277.657L253.601 231.402" stroke="#5A5773" stroke-miterlimit="10" stroke-dasharray="12 12"/>
<path opacity="0.2" d="M459.114 227.746C453.545 228.229 448.106 225.106 444.773 221.824C441.321 218.418 438.817 214.228 436.399 210.152C435.632 208.863 434.838 207.534 434.037 206.251C429.819 199.563 425.606 195.067 420.786 192.097C419.02 191.01 417.126 190.144 415.148 189.52C414.958 189.97 414.687 190.382 414.348 190.735C413.618 191.494 412.618 191.933 411.566 191.955H411.378C410.434 191.93 409.53 191.569 408.828 190.938C408.125 190.306 407.671 189.445 407.546 188.509C405.758 188.594 403.994 188.956 402.317 189.582C397.361 191.45 393.596 195.464 390.173 199.421C386.028 204.202 382.031 209.215 378.307 214.33C377.55 215.364 376.793 216.403 376.036 217.447C371.994 223.091 367.815 228.921 362.41 233.48C355.154 239.635 346.428 242.286 339.064 240.577C330.23 238.528 323.911 230.721 319.398 224.147C318.83 223.295 318.262 222.443 317.649 221.575C313.436 215.329 309.082 208.874 302.655 205.11C294.19 200.142 282.5 201 274.835 207.137C271.099 210.129 268.295 214.194 265.575 218.123C264.644 219.474 263.679 220.871 262.685 222.211C257.576 229.075 252.426 232.799 246.873 233.605C244.672 233.849 242.45 233.849 240.248 233.605C238.783 233.503 237.267 233.39 235.785 233.429C232.088 233.587 228.495 234.698 225.354 236.655C222.214 238.612 219.633 241.348 217.862 244.597L217.078 277.276L462.521 283.522L463.895 229.455C463.474 229.684 463.01 229.821 462.533 229.859C462.055 229.896 461.575 229.832 461.124 229.671C460.673 229.511 460.261 229.257 459.915 228.926C459.568 228.595 459.296 228.195 459.114 227.752V227.746Z" fill="#6C63FF"/>
<path opacity="0.2" d="M290.658 201.88L288.711 278.582" stroke="#5A5773" stroke-miterlimit="10" stroke-dasharray="12 12"/>
<path opacity="0.2" d="M324.888 231.226L323.661 279.468" stroke="#5A5773" stroke-miterlimit="10" stroke-dasharray="12 12"/>
<path opacity="0.2" d="M358.93 236.887L357.828 280.337" stroke="#5A5773" stroke-miterlimit="10" stroke-dasharray="12 12"/>
<path opacity="0.2" d="M391.967 198.002L389.855 281.148" stroke="#5A5773" stroke-miterlimit="10" stroke-dasharray="12 12"/>
<path opacity="0.2" d="M425.589 195.101L423.38 282.006" stroke="#5A5773" stroke-miterlimit="10" stroke-dasharray="12 12"/>
<path opacity="0.2" d="M462.827 227.774L461.419 282.971" stroke="#5A5773" stroke-miterlimit="10" stroke-dasharray="12 12"/>
<path d="M414.808 185.687C414.43 185.325 413.986 185.041 413.498 184.851C413.011 184.661 412.492 184.569 411.969 184.58C411.033 184.597 410.132 184.945 409.427 185.56C408.722 186.176 408.257 187.022 408.114 187.947C408.078 188.172 408.063 188.4 408.068 188.628C408.068 188.782 408.068 188.935 408.102 189.082C408.223 189.972 408.641 190.794 409.289 191.416C409.994 192.118 410.94 192.524 411.935 192.551H412.122C413.176 192.532 414.178 192.095 414.91 191.336C415.247 190.983 415.519 190.571 415.71 190.121C415.858 189.768 415.954 189.395 415.994 189.014C416.008 188.842 416.008 188.67 415.994 188.498C415.991 187.974 415.885 187.456 415.681 186.974C415.478 186.492 415.181 186.055 414.808 185.687ZM414.609 189.775C414.482 190.052 414.307 190.303 414.092 190.519C413.729 190.894 413.27 191.161 412.765 191.292C412.26 191.423 411.729 191.412 411.23 191.26C410.73 191.109 410.282 190.823 409.935 190.434C409.588 190.045 409.354 189.567 409.261 189.054C409.229 188.907 409.212 188.756 409.21 188.606C409.203 188.377 409.226 188.148 409.278 187.924C409.417 187.305 409.76 186.75 410.252 186.349C410.744 185.947 411.357 185.722 411.991 185.71H412.122C412.851 185.729 413.546 186.028 414.06 186.545C414.575 187.062 414.871 187.757 414.887 188.486C414.887 188.543 414.887 188.606 414.887 188.662C414.877 189.049 414.782 189.429 414.609 189.775Z" fill="#6C63FF"/>
<path d="M462.862 230.437C464.743 230.437 466.268 228.912 466.268 227.031C466.268 225.149 464.743 223.624 462.862 223.624C460.98 223.624 459.455 225.149 459.455 227.031C459.455 228.912 460.98 230.437 462.862 230.437Z" fill="#6C63FF"/>
<path d="M409.209 188.606C409.212 188.756 409.229 188.907 409.26 189.054C408.874 189.054 408.488 189.054 408.125 189.083C406.335 189.168 404.569 189.53 402.89 190.156C397.934 192.023 394.17 196.037 390.741 199.995C386.596 204.769 382.599 209.788 378.869 214.898C378.114 215.931 377.37 216.976 376.598 218.021C372.55 223.664 368.371 229.489 362.972 234.054C355.711 240.202 346.979 242.854 339.609 241.145C330.786 239.101 324.467 231.289 319.925 224.714C319.358 223.868 318.756 223.011 318.177 222.142C313.958 215.897 309.598 209.442 303.171 205.678C294.706 200.71 283.005 201.567 275.352 207.705C271.667 210.691 268.828 214.756 266.109 218.685C265.172 220.036 264.207 221.438 263.213 222.773C258.103 229.637 252.948 233.361 247.396 234.167C245.194 234.409 242.972 234.409 240.77 234.167C239.285 234.032 237.793 233.973 236.302 233.991C232.34 234.156 228.503 235.417 225.216 237.635C221.929 239.852 219.322 242.938 217.686 246.55L216.641 246.096C218.368 242.289 221.117 239.037 224.582 236.7C228.047 234.362 232.092 233.032 236.268 232.856C237.799 232.833 239.331 232.894 240.855 233.037C242.974 233.267 245.112 233.267 247.231 233.037C252.471 232.282 257.399 228.7 262.299 222.091C263.281 220.768 264.241 219.377 265.172 218.032C267.937 214.058 270.798 209.907 274.659 206.808C278.752 203.606 283.705 201.695 288.888 201.318C294.071 200.941 299.248 202.115 303.762 204.69C310.416 208.59 314.85 215.153 319.142 221.507C319.71 222.358 320.277 223.21 320.885 224.067C325.285 230.471 331.417 238.073 339.882 240.032C346.899 241.662 355.262 239.101 362.251 233.179C367.525 228.711 371.676 222.96 375.678 217.351C376.422 216.306 377.177 215.261 377.949 214.222C381.702 209.113 385.716 204.048 389.872 199.24C393.398 195.174 397.253 191.047 402.482 189.088C404.292 188.419 406.196 188.036 408.125 187.953C408.505 187.953 408.897 187.919 409.26 187.953C409.217 188.167 409.2 188.387 409.209 188.606Z" fill="#6C63FF"/>
<path d="M463.06 227.564C456.401 230.051 449.361 226.338 445.352 222.398C441.9 218.991 439.397 214.796 436.978 210.719C436.212 209.436 435.417 208.102 434.61 206.825C430.392 200.131 426.179 195.634 421.354 192.665C419.587 191.58 417.693 190.716 415.716 190.093C415.352 189.974 414.983 189.872 414.58 189.775C414.753 189.431 414.848 189.053 414.859 188.668C415.233 188.765 415.602 188.872 415.994 188.986C418.081 189.64 420.077 190.552 421.938 191.7C426.923 194.76 431.249 199.37 435.564 206.217C436.376 207.512 437.171 208.846 437.949 210.146C440.333 214.154 442.797 218.304 446.141 221.586C449.906 225.288 456.497 228.802 462.657 226.503L463.06 227.564Z" fill="#6C63FF"/>
<path opacity="0.5" d="M202.531 173.611L191.974 173.342C191.692 173.335 191.457 173.558 191.45 173.84L191.346 177.927C191.339 178.209 191.562 178.443 191.844 178.45L202.4 178.72C202.683 178.727 202.917 178.504 202.924 178.222L203.028 174.135C203.036 173.853 202.813 173.619 202.531 173.611Z" fill="#6C63FF"/>
<path d="M201.904 198.012L191.347 197.743C191.065 197.736 190.83 197.959 190.823 198.241L190.719 202.327C190.712 202.609 190.935 202.844 191.217 202.851L201.773 203.12C202.056 203.127 202.29 202.905 202.297 202.622L202.401 198.536C202.409 198.254 202.186 198.019 201.904 198.012Z" fill="#6C63FF"/>
<path opacity="0.5" d="M201.282 222.424L190.725 222.155C190.443 222.148 190.209 222.371 190.201 222.653L190.097 226.739C190.09 227.022 190.313 227.256 190.595 227.263L201.152 227.532C201.434 227.54 201.668 227.317 201.675 227.035L201.78 222.948C201.787 222.666 201.564 222.431 201.282 222.424Z" fill="#6C63FF"/>
<path opacity="0.5" d="M200.66 246.825L190.104 246.556C189.821 246.549 189.587 246.772 189.58 247.054L189.476 251.14C189.468 251.422 189.691 251.657 189.973 251.664L200.53 251.933C200.812 251.94 201.047 251.717 201.054 251.435L201.158 247.349C201.165 247.067 200.942 246.832 200.66 246.825Z" fill="#6C63FF"/>
<path opacity="0.5" d="M200.039 271.232L189.482 270.962C189.2 270.955 188.965 271.178 188.958 271.46L188.854 275.547C188.847 275.829 189.07 276.063 189.352 276.071L199.908 276.34C200.191 276.347 200.425 276.124 200.432 275.842L200.536 271.755C200.544 271.473 200.321 271.239 200.039 271.232Z" fill="#6C63FF"/>
<path opacity="0.5" d="M221.519 282L210.962 281.731C210.68 281.724 210.446 281.947 210.438 282.229L210.334 286.316C210.327 286.598 210.55 286.832 210.832 286.839L221.389 287.109C221.671 287.116 221.905 286.893 221.913 286.611L222.017 282.524C222.024 282.242 221.801 282.008 221.519 282Z" fill="#6C63FF"/>
<path opacity="0.5" d="M257.559 282.918L247.002 282.649C246.72 282.642 246.485 282.865 246.478 283.147L246.374 287.234C246.367 287.516 246.59 287.75 246.872 287.757L257.429 288.027C257.711 288.034 257.945 287.811 257.952 287.529L258.056 283.442C258.064 283.16 257.841 282.926 257.559 282.918Z" fill="#6C63FF"/>
<path d="M292.561 285.418L282.001 285.101C281.719 285.092 281.483 285.314 281.474 285.596L281.352 289.684C281.343 289.966 281.565 290.202 281.847 290.21L292.407 290.527C292.69 290.536 292.925 290.314 292.934 290.032L293.056 285.944C293.065 285.662 292.843 285.426 292.561 285.418Z" fill="#6C63FF"/>
<path opacity="0.5" d="M328.793 284.733L318.236 284.464C317.954 284.457 317.72 284.679 317.712 284.962L317.608 289.048C317.601 289.33 317.824 289.565 318.106 289.572L328.663 289.841C328.945 289.848 329.179 289.625 329.187 289.343L329.291 285.257C329.298 284.974 329.075 284.74 328.793 284.733Z" fill="#6C63FF"/>
<path opacity="0.5" d="M362.955 285.609L352.398 285.34C352.116 285.332 351.882 285.555 351.874 285.837L351.77 289.924C351.763 290.206 351.986 290.44 352.268 290.448L362.825 290.717C363.107 290.724 363.341 290.501 363.349 290.219L363.453 286.132C363.46 285.85 363.237 285.616 362.955 285.609Z" fill="#6C63FF"/>
<path d="M394.979 286.419L384.422 286.15C384.14 286.142 383.906 286.365 383.898 286.647L383.794 290.734C383.787 291.016 384.01 291.25 384.292 291.258L394.849 291.527C395.131 291.534 395.365 291.311 395.373 291.029L395.477 286.942C395.484 286.66 395.261 286.426 394.979 286.419Z" fill="#6C63FF"/>
<path d="M428.744 287.279L418.187 287.01C417.905 287.002 417.671 287.225 417.663 287.507L417.559 291.594C417.552 291.876 417.775 292.111 418.057 292.118L428.614 292.387C428.896 292.394 429.13 292.171 429.138 291.889L429.242 287.803C429.249 287.52 429.026 287.286 428.744 287.279Z" fill="#6C63FF"/>
<path d="M465.036 290.596L455.032 290.296C454.596 290.283 454.232 290.626 454.219 291.062L454.113 294.593C454.1 295.029 454.443 295.393 454.879 295.406L464.882 295.706C465.318 295.719 465.682 295.376 465.695 294.94L465.801 291.409C465.814 290.973 465.471 290.609 465.036 290.596Z" fill="#6C63FF"/>
<path d="M556.886 343.765C558.187 343.765 559.447 344.216 560.452 345.041C561.457 345.866 562.145 347.014 562.399 348.289C562.653 349.564 562.457 350.888 561.844 352.035C561.231 353.182 560.239 354.081 559.038 354.579C557.836 355.076 556.5 355.142 555.255 354.765C554.011 354.387 552.936 353.59 552.213 352.509C551.491 351.428 551.166 350.129 551.293 348.835C551.42 347.541 551.993 346.331 552.912 345.412C553.433 344.889 554.052 344.474 554.734 344.191C555.417 343.908 556.148 343.764 556.886 343.765ZM556.886 342.891C555.6 342.891 554.343 343.272 553.273 343.987C552.204 344.702 551.371 345.718 550.879 346.907C550.388 348.095 550.259 349.403 550.511 350.664C550.763 351.925 551.383 353.084 552.294 353.992C553.204 354.901 554.363 355.519 555.625 355.769C556.887 356.018 558.194 355.888 559.382 355.394C560.569 354.9 561.584 354.065 562.297 352.995C563.01 351.924 563.389 350.666 563.387 349.38C563.386 348.527 563.217 347.683 562.89 346.895C562.563 346.107 562.084 345.392 561.481 344.789C560.877 344.187 560.16 343.709 559.372 343.383C558.584 343.057 557.739 342.89 556.886 342.891Z" fill="#6C63FF"/>
<path d="M555.143 351.299L555.484 350.845C555.816 351.171 556.261 351.356 556.727 351.362C557.295 351.362 557.743 351.072 557.743 350.612C557.743 350.152 557.329 349.783 556.182 349.783V349.261C557.204 349.261 557.59 348.92 557.59 348.478C557.59 348.035 557.244 347.825 556.738 347.825C556.34 347.837 555.959 347.992 555.665 348.262L555.302 347.825C555.707 347.467 556.227 347.266 556.767 347.257C557.647 347.257 558.3 347.683 558.3 348.426C558.3 348.949 557.919 349.295 557.363 349.482V349.511C557.649 349.541 557.916 349.672 558.115 349.879C558.315 350.087 558.434 350.359 558.453 350.646C558.453 351.453 557.692 351.941 556.784 351.941C556.481 351.953 556.179 351.902 555.896 351.792C555.614 351.681 555.357 351.514 555.143 351.299Z" fill="#6C63FF"/>
<path d="M583.735 344.146C585.035 344.146 586.295 344.596 587.301 345.421C588.306 346.246 588.994 347.394 589.248 348.669C589.502 349.945 589.305 351.269 588.693 352.416C588.08 353.562 587.088 354.461 585.887 354.959C584.685 355.457 583.348 355.522 582.104 355.145C580.86 354.768 579.784 353.97 579.062 352.889C578.339 351.808 578.014 350.51 578.142 349.216C578.269 347.922 578.841 346.712 579.761 345.792C580.281 345.269 580.901 344.854 581.583 344.571C582.265 344.288 582.996 344.144 583.735 344.146ZM583.735 343.271C582.449 343.271 581.192 343.653 580.123 344.367C579.054 345.081 578.221 346.096 577.729 347.284C577.237 348.472 577.108 349.779 577.359 351.04C577.61 352.301 578.229 353.46 579.138 354.369C580.047 355.278 581.206 355.897 582.467 356.148C583.728 356.399 585.035 356.27 586.223 355.778C587.41 355.286 588.426 354.453 589.14 353.384C589.854 352.315 590.236 351.058 590.236 349.772C590.236 348.918 590.069 348.072 589.742 347.283C589.416 346.494 588.937 345.777 588.333 345.174C587.729 344.57 587.013 344.091 586.224 343.765C585.434 343.438 584.589 343.271 583.735 343.271Z" fill="#5A5773"/>
<path d="M583.82 349.091C583.82 348.812 583.82 348.46 583.86 348.182H583.82C583.661 348.426 583.479 348.671 583.32 348.915L582.185 350.396H585.256V350.993H581.39V350.516L583.695 347.484H584.541V352.31H583.837L583.82 349.091Z" fill="#5A5773"/>
<path d="M568.922 346.059C569.034 345.95 569.184 345.889 569.34 345.889C569.496 345.889 569.645 345.95 569.757 346.059L572.686 349C572.741 349.053 572.785 349.116 572.815 349.187C572.845 349.257 572.86 349.332 572.86 349.409C572.86 349.485 572.845 349.56 572.815 349.631C572.785 349.701 572.741 349.764 572.686 349.817L569.802 352.713C569.749 352.771 569.684 352.818 569.612 352.85C569.539 352.882 569.461 352.899 569.382 352.899C569.303 352.899 569.225 352.882 569.152 352.85C569.08 352.818 569.015 352.771 568.962 352.713C568.904 352.66 568.858 352.595 568.827 352.523C568.795 352.452 568.779 352.374 568.779 352.296C568.779 352.217 568.795 352.14 568.827 352.068C568.858 351.996 568.904 351.932 568.962 351.878L571.437 349.38L568.922 346.894C568.864 346.84 568.817 346.775 568.785 346.703C568.753 346.631 568.736 346.553 568.736 346.473C568.736 346.394 568.753 346.316 568.785 346.244C568.817 346.171 568.864 346.107 568.922 346.053V346.059Z" fill="#5A5773"/>
<path d="M563.926 349.38C563.924 350.645 564.297 351.881 564.998 352.933C565.699 353.985 566.696 354.806 567.864 355.29C569.031 355.775 570.317 355.903 571.557 355.657C572.797 355.411 573.936 354.802 574.83 353.908C575.724 353.014 576.332 351.875 576.578 350.635C576.824 349.395 576.697 348.11 576.212 346.942C575.727 345.775 574.907 344.777 573.855 344.076C572.803 343.375 571.566 343.002 570.302 343.005C568.612 343.006 566.991 343.678 565.795 344.874C564.6 346.069 563.928 347.69 563.926 349.38ZM564.908 349.38C564.906 348.128 565.338 346.914 566.131 345.945C566.924 344.975 568.029 344.311 569.256 344.065C570.484 343.819 571.759 344.007 572.864 344.596C573.969 345.185 574.836 346.139 575.316 347.296C575.796 348.452 575.86 349.74 575.498 350.938C575.135 352.137 574.368 353.172 573.327 353.868C572.286 354.564 571.035 354.878 569.789 354.755C568.543 354.632 567.378 354.081 566.493 353.196C565.989 352.696 565.589 352.102 565.317 351.447C565.045 350.792 564.906 350.09 564.908 349.38Z" fill="#5A5773"/>
<path opacity="0.2" d="M221.12 107.333H96.4886C95.2783 107.333 94.2971 108.314 94.2971 109.524V118.682C94.2971 119.892 95.2783 120.873 96.4886 120.873H221.12C222.331 120.873 223.312 119.892 223.312 118.682V109.524C223.312 108.314 222.331 107.333 221.12 107.333Z" fill="#5A5773"/>
<path d="M401.505 429.864C400.563 426.458 399.949 423.449 399.949 423.449C399.949 423.449 399.989 419.701 398.201 416.948L398.167 416.011L397.9 409.085C398.329 407.809 398.866 406.572 399.507 405.389C400.676 403.163 399.12 395.237 399.12 395.237C399.12 395.237 394.062 384.172 394.913 376.995C395.765 369.819 384.206 345.684 384.206 345.684C384.178 343.316 384.421 340.952 384.932 338.639C385.022 338.152 385.049 337.656 385.012 337.162C385.012 337.1 385.012 337.049 385.012 336.981C385.012 336.981 385.012 337.02 385.012 337.037C384.677 332.342 380.618 323.667 380.618 323.667L380.47 306.845C380.47 306.845 382.463 296.841 378.074 283.692C376.547 279.105 375.536 275.426 374.878 272.575C374.804 272.257 374.73 271.945 374.668 271.65C382.616 270.123 388.64 268.879 388.64 268.879C388.64 268.879 383.275 249.718 380.021 246.453C376.768 243.189 373.861 232.651 373.861 232.651C373.861 232.651 371.71 219.054 374.179 214.96C376.649 210.867 376.763 203.969 376.763 203.969C376.763 203.969 382.588 199.381 383.263 197.423C383.939 195.464 385.018 191.058 384.932 188.759C384.847 186.46 384.013 184.438 384.217 183.218C384.421 181.997 382.247 177.483 383.161 175.269C383.393 174.59 383.5 173.875 383.479 173.157C383.479 173.157 383.479 173.112 383.479 173.095C383.479 173.078 383.479 173.095 383.479 173.066C383.414 171.164 383.165 169.272 382.735 167.417C380.949 166.018 378.886 165.014 376.683 164.471L376.53 163.96L376.132 162.591C375.928 162.467 375.729 162.359 375.531 162.262L375.496 161.768L375.366 159.81L376.132 155.381C377.677 147.631 367.395 146.865 367.395 146.865C366.73 145.71 365.659 144.844 364.391 144.435C362.302 143.788 364.494 155.994 365.487 156.738C366.231 157.306 368.621 161.064 369.774 162.915L369.955 163.216C369.795 163.377 369.645 163.547 369.507 163.727L370.001 166.378L370.075 166.781C369.431 167.649 368.917 168.605 368.547 169.62C368.547 169.62 370.5 171.607 370.216 173.918C369.933 176.229 370.989 179.056 371.04 179.209C370.926 179.085 369.552 177.711 368.252 178.108C366.952 178.505 363.313 179.749 363.313 179.749C363.313 179.749 360.582 180.317 360.854 180.935C361.127 181.554 359.106 184.274 359.106 184.274L351.452 177.557C351.373 177.353 351.288 177.149 351.214 176.933C350.869 175.945 350.614 174.929 350.453 173.895C351.25 173.669 352.03 173.387 352.787 173.049C353.552 172.754 354.236 172.279 354.779 171.664C355.489 170.75 355.586 169.546 355.847 168.434C356.346 166.265 357.55 164.3 358.351 162.222C359.727 158.732 360.089 154.924 359.395 151.237C359.233 150.096 358.803 149.01 358.14 148.069C356.869 146.456 354.66 145.866 353.031 144.605C351.401 143.345 350.283 141.363 348.392 140.438C346.689 139.609 344.645 139.791 342.772 140.177C339.088 140.918 335.576 142.341 332.416 144.372C331.365 145.048 330.213 145.832 328.964 145.656C327.897 145.502 327.085 144.685 326.369 143.901C326.369 143.867 326.369 143.833 326.398 143.799L326.313 143.703C325.598 145.468 325.28 147.37 325.381 149.272C325.381 149.567 325.404 149.863 325.45 150.158C325.45 150.26 325.45 150.362 325.478 150.464C325.484 150.549 325.484 150.635 325.478 150.72C325.482 150.852 325.468 150.983 325.438 151.112C325.297 151.497 325.074 151.847 324.785 152.139C324.572 152.403 324.382 152.684 324.218 152.98C324.218 152.877 324.274 152.775 324.308 152.679C323.863 153.383 323.628 154.201 323.633 155.035C323.615 155.642 323.838 156.231 324.252 156.676C324.635 157.023 325.052 157.333 325.495 157.601C325.379 158.419 325.337 159.245 325.37 160.071C325.474 162.53 326.212 164.92 327.514 167.01C328.815 169.099 330.635 170.816 332.796 171.993L333.069 172.618C334.108 175.065 334.931 177.932 334.721 180.617C334.721 180.816 334.681 181.009 334.653 181.185C334.562 181.287 334.477 181.395 334.397 181.503C334.397 181.503 322.208 182.071 319.238 179.601C316.269 177.131 312.238 186.227 312.238 186.227C312.238 186.227 307.901 187.243 306.998 186.431C306.095 185.619 300.997 186.539 300.997 186.539C298.83 184.759 296.068 183.87 293.27 184.052C291.515 182.82 289.594 181.845 287.564 181.157L287.428 181.111C286.536 180.825 285.591 180.741 284.663 180.867C284.663 180.867 278.48 176.144 276.629 173.549C274.778 170.954 266.069 161.411 266.029 161.371L265.989 160.888L265.842 159.458C265.596 159.504 265.348 159.534 265.098 159.548C265.049 159.408 264.986 159.244 264.911 159.054C264.377 157.68 263.734 156.351 262.986 155.08C262.986 155.08 262.918 153.263 263.429 152.809C263.94 152.355 262.935 145.712 262.935 145.712C262.935 145.712 257.047 133.29 252.568 142.908C252.568 142.908 243.654 149.363 251.608 156.17C251.608 156.17 254.731 157.533 255.208 158.691C255.52 159.446 256.644 161.53 257.399 162.926L257.734 163.551L257.649 163.625L257.808 164.806L257.871 165.266C256.457 166.146 255.509 166.997 255.77 167.599C256.236 168.63 256.572 169.715 256.769 170.829C256.769 170.829 267.897 183.723 269.492 189.349C269.492 189.349 298.618 205.178 308.031 206.03L306.737 214.546C306.737 214.546 306.43 219.656 306.623 221.45C306.816 223.244 305.885 231.527 305.885 231.527C305.885 231.527 304.75 243.683 303.421 245.426C302.092 247.169 302.637 254.413 302.637 254.413C302.443 257.899 301.949 261.362 301.161 264.763C299.963 269.407 301.161 275.051 301.161 275.051C301.161 275.051 296.835 286.116 307.912 278.304C307.912 278.304 313.481 277.736 319.897 277.276C319.897 277.486 319.897 277.697 319.897 277.918C319.897 278.747 319.931 279.621 319.959 280.586C320.113 286.832 320.408 295.41 320.936 301.894C321.878 313.357 326.25 335.959 326.25 335.959L326.687 347.376C326.505 348.458 326.439 349.556 326.489 350.652C326.562 354.679 327.781 358.602 330.003 361.962L331.172 369.547C331.172 369.547 333.443 374.48 333.568 377.495C333.571 377.74 333.552 377.986 333.512 378.227C333.449 378.614 333.43 379.006 333.455 379.397C333.455 382.86 335.873 391.053 335.873 391.053C335.873 391.053 336.322 399.387 337.577 399.825C338.661 400.199 336.333 404.685 335.641 405.979C335.641 405.9 335.601 405.82 335.584 405.741L335.442 405.996C335.208 406.679 335.102 407.398 335.13 408.119C335.082 408.692 335.197 409.266 335.462 409.776C335.728 410.285 336.132 410.709 336.629 410.998C339.058 412.36 340.381 413.519 338.383 414.081C337.647 414.232 336.919 414.422 336.203 414.648L336.089 414.376C335.83 414.503 335.619 414.712 335.489 414.97C335.359 415.229 335.316 415.522 335.368 415.807C335.334 416.414 335.573 417.3 336.22 418.606C338.389 423 339.842 424.641 339.842 424.641L340.796 424.493C340.668 424.865 340.494 425.22 340.279 425.549C339.936 426.088 339.469 426.535 338.917 426.855C338.401 427.191 337.821 427.413 337.213 427.508C336.536 427.555 335.876 427.744 335.277 428.064C334.678 428.384 334.154 428.827 333.739 429.364C332.558 431.022 331.859 433.248 334.397 435.082L343.447 437.818C343.447 437.818 358.884 439.226 357.936 435.808C356.988 432.391 356.38 429.393 356.38 429.393C356.36 427.285 355.853 425.21 354.899 423.329C354.732 423.022 354.542 422.728 354.331 422.449L354.87 422.364C354.87 422.364 355.705 414.705 357.141 413.201C357.471 412.849 357.539 412.593 357.453 412.395C357.59 411.974 357.192 411.747 356.681 411.628C356.647 411.73 356.613 411.827 356.585 411.935C356.103 411.851 355.614 411.817 355.126 411.832C355.126 411.832 354.473 407.858 356.04 406.348C356.165 406.178 356.254 405.984 356.3 405.777C356.346 405.571 356.348 405.357 356.307 405.15C356.3 404.603 356.223 404.06 356.08 403.532C356.08 403.532 356.045 403.594 356.023 403.629C355.063 400.04 352.077 394.391 352.077 394.391C352.077 394.391 351.816 390.769 352.758 389.282C353.701 387.794 351.873 369.581 351.873 369.581C351.873 369.581 351.907 360.741 350.623 356.676C349.34 352.611 351.628 347.677 351.628 347.677C351.628 347.677 351.628 347.58 351.589 347.416C351.601 347.396 351.61 347.375 351.617 347.353C351.617 347.353 351.543 346.786 351.418 345.968C351.418 345.968 351.418 346.025 351.418 346.053C351.078 343.726 350.436 339.513 350.01 337.571C349.403 334.812 349.516 321.487 349.516 321.487L351.549 315.719L355.921 325.37L360.667 338.264C360.667 338.264 362.881 340.938 363.034 343.731C363.034 343.867 363.034 344.004 363.034 344.14C363.034 344.441 363.034 344.708 363.034 345.014C363.024 346.667 363.542 348.28 364.511 349.619C364.511 349.619 365.873 355.739 367.679 357.244C369.484 358.748 369.609 361.786 369.609 361.786C369.609 361.786 372.073 370.648 373.135 372.181C374.026 373.475 374.213 377.115 374.27 378.227C374.27 378.432 374.27 378.551 374.27 378.551C374.27 378.551 374.69 381.736 374.781 384.427C374.781 384.757 374.781 385.08 374.781 385.381C374.781 385.381 374.781 385.336 374.781 385.313C374.807 386.046 374.748 386.78 374.605 387.499C374.605 387.533 374.605 387.578 374.571 387.624C374.571 387.47 374.571 387.317 374.571 387.17C374.2 389.011 374.057 390.891 374.145 392.767C374.213 395.987 374.849 399.773 376.882 401.937C380.402 405.678 382.508 405.11 382.508 405.11C382.508 405.11 381.072 410.01 379.102 411.055C379.028 411.093 378.959 411.141 378.897 411.197C378.897 411.106 378.852 411.009 378.835 410.918C378.627 411.17 378.473 411.461 378.384 411.775C378.295 412.089 378.273 412.418 378.318 412.741C378.256 414.876 379.732 418.276 381.066 419.815C381.55 420.256 382.135 420.572 382.769 420.735C382.672 420.809 382.569 420.878 382.463 420.939C382.245 421.071 382.02 421.188 381.787 421.291C381.469 421.447 381.128 421.551 380.777 421.598C380.1 421.643 379.44 421.832 378.842 422.153C378.244 422.473 377.721 422.916 377.308 423.454C376.127 425.106 375.423 427.332 377.96 429.166L387.016 431.902C387.016 431.902 402.453 433.282 401.505 429.864Z" fill="url(#paint1_linear)"/>
<path d="M343.05 437.835L334.289 435.11C331.831 433.271 332.501 431.045 333.648 429.393C334.041 428.86 334.544 428.419 335.123 428.098C335.702 427.778 336.343 427.586 337.003 427.536C337.587 427.442 338.143 427.221 338.633 426.889C339.173 426.567 339.627 426.119 339.956 425.583C340.547 424.558 340.843 423.389 340.813 422.205C340.813 422.205 350.198 419.06 352.9 421.74C353.383 422.224 353.793 422.777 354.115 423.38C355.043 425.265 355.538 427.333 355.563 429.433C355.563 429.433 356.159 432.43 357.079 435.848C357.999 439.266 343.05 437.835 343.05 437.835Z" fill="#2D293D"/>
<path d="M385.216 431.948L376.45 429.2C373.992 427.36 374.668 425.135 375.809 423.483C376.201 422.95 376.704 422.508 377.283 422.189C377.863 421.869 378.504 421.679 379.164 421.632C379.505 421.585 379.835 421.481 380.141 421.325C380.368 421.225 380.588 421.109 380.799 420.979C383.167 419.554 382.974 416.295 382.974 416.295C382.974 416.295 392.359 413.15 395.067 415.829C395.428 416.192 395.748 416.594 396.021 417.027C397.758 419.781 397.724 423.539 397.724 423.539C397.724 423.539 398.326 426.543 399.24 429.955C400.154 433.367 385.216 431.948 385.216 431.948Z" fill="#2D293D"/>
<path opacity="0.1" d="M352.9 421.717C353.383 422.201 353.793 422.754 354.115 423.358L339.956 425.555C340.547 424.529 340.843 423.36 340.813 422.177C340.813 422.177 350.198 419.037 352.9 421.717Z" fill="black"/>
<path opacity="0.1" d="M396.004 417.027L396.106 419.69C394.039 423.42 383.303 423.034 380.124 421.325C380.351 421.225 380.571 421.109 380.782 420.979C383.15 419.554 382.957 416.295 382.957 416.295C382.957 416.295 392.342 413.15 395.05 415.829C395.411 416.192 395.731 416.594 396.004 417.027Z" fill="black"/>
<path d="M397.253 405.485C396.633 406.669 396.115 407.904 395.703 409.175L396.072 418.725C393.801 422.807 381.18 421.961 379.403 419.86C377.626 417.76 375.599 412.139 377.495 411.094C379.391 410.05 380.777 405.161 380.777 405.161C380.777 405.161 378.739 405.729 375.326 401.982C371.914 398.235 372.55 389.617 373.055 387.539C373.561 385.461 372.703 378.591 372.703 378.591C372.703 378.591 372.641 373.754 371.613 372.221C370.586 370.688 368.207 361.82 368.207 361.82C368.207 361.82 368.093 358.794 366.339 357.278C364.585 355.762 363.262 349.647 363.262 349.647C362.213 348.144 361.715 346.325 361.854 344.498C362.098 341.46 359.554 338.287 359.554 338.287L354.944 325.393L350.698 315.741L348.739 321.51C348.739 321.51 348.648 334.829 349.238 337.588C349.829 340.347 350.839 347.7 350.839 347.7C350.839 347.7 348.603 352.628 349.852 356.693C351.101 360.758 351.072 369.603 351.072 369.603C351.072 369.603 352.866 387.817 351.952 389.304C351.038 390.792 351.305 394.414 351.305 394.414C351.305 394.414 356.67 404.861 355.154 406.371C353.638 407.881 354.274 411.85 354.274 411.85C354.274 411.85 357.681 411.719 356.261 413.229C354.842 414.739 354.076 422.393 354.076 422.393L339.524 424.664C339.524 424.664 338.116 423.023 336.01 418.623C333.904 414.223 336.22 414.62 338.145 414.081C340.069 413.541 338.798 412.378 336.441 410.998C334.085 409.618 335.306 406.32 335.306 406.32C335.306 406.32 338.582 400.262 337.355 399.825C336.129 399.387 335.686 391.053 335.686 391.053C335.686 391.053 332.887 381.231 333.415 378.563C333.943 375.894 331.144 369.569 331.144 369.569L330.009 361.984C325.319 354.621 326.739 347.677 326.739 347.677L326.284 335.947C326.284 335.947 322.026 313.351 321.101 301.883C320.533 294.536 320.209 284.498 320.073 278.23C319.994 274.71 319.965 272.382 319.965 272.382L371.982 264.934C371.982 264.934 372.022 267.347 373.226 272.655C373.867 275.494 374.849 279.184 376.337 283.777C380.595 296.926 378.682 306.93 378.682 306.93L378.846 323.752C378.846 323.752 383.871 334.818 383.053 338.724C382.571 341.038 382.344 343.399 382.378 345.764C382.378 345.764 393.597 369.91 392.785 377.086C391.973 384.263 396.872 395.328 396.872 395.328C396.872 395.328 398.377 403.26 397.253 405.485Z" fill="#575988"/>
<path opacity="0.05" d="M364.971 343.652L380.788 340.921C380.788 340.921 372.158 350.459 364.971 343.652Z" fill="black"/>
<path opacity="0.1" d="M377.893 325.478C377.893 325.478 378.653 331.076 375.287 333.324C375.287 333.324 381.418 332.121 377.893 325.478Z" fill="black"/>
<path opacity="0.1" d="M376.229 307.622C376.229 307.622 363.358 319.074 358.493 318.353C353.627 317.632 376.229 307.622 376.229 307.622Z" fill="black"/>
<path opacity="0.1" d="M345.474 349.545C345.474 349.545 335.459 352.219 335.312 356.29C335.164 360.361 345.474 349.545 345.474 349.545Z" fill="black"/>
<path opacity="0.05" d="M349.624 399.87C349.624 399.87 335.465 403.078 339.581 404.736C343.697 406.393 350.408 407.574 350.408 407.574C350.408 407.574 355.007 407.654 349.624 399.87Z" fill="black"/>
<g opacity="0.05">
<path opacity="0.05" d="M336.81 407.722C336.445 407.51 336.131 407.219 335.892 406.87C335.654 406.521 335.496 406.124 335.43 405.706L335.294 405.968C335.294 405.968 334.085 409.283 336.43 410.646C336.702 410.799 336.952 410.952 337.196 411.106C337.611 411.009 338.07 410.935 338.502 410.805C340.444 410.248 339.166 409.085 336.81 407.722Z" fill="black"/>
<path opacity="0.05" d="M355.126 406.053C355.506 405.672 355.455 404.747 355.171 403.56C354.564 404.525 354.461 405.985 354.496 407.092C354.626 406.703 354.842 406.348 355.126 406.053Z" fill="black"/>
<path opacity="0.05" d="M350.641 345.974C350.17 347.423 349.902 348.931 349.846 350.453C350.079 349.392 350.41 348.354 350.834 347.353C350.834 347.353 350.76 346.837 350.641 345.974Z" fill="black"/>
<path opacity="0.05" d="M383.053 338.389C383.134 337.951 383.162 337.505 383.138 337.06C382.991 337.974 382.9 338.815 382.837 339.553C382.9 339.161 382.974 338.786 383.053 338.389Z" fill="black"/>
<path opacity="0.05" d="M351.952 388.981C352.134 388.68 352.207 387.675 352.207 386.284C351.804 387.373 351.611 388.529 351.64 389.69C351.715 389.442 351.82 389.204 351.952 388.981Z" fill="black"/>
<path opacity="0.05" d="M355.824 411.662C354.933 414.421 354.444 419.151 354.444 419.151L339.893 421.422C339.893 421.422 338.485 419.781 336.39 415.369C336.208 414.983 336.055 414.637 335.936 414.319C335.078 414.756 334.766 415.676 336.021 418.293C338.127 422.693 339.53 424.334 339.53 424.334L354.081 422.063C354.081 422.063 354.876 414.404 356.273 412.894C356.948 412.167 356.477 411.832 355.824 411.662Z" fill="black"/>
<path opacity="0.05" d="M335.675 390.695C335.675 390.695 336.118 399.035 337.344 399.473C337.912 398.065 338.258 396.742 337.707 396.549C336.481 396.112 336.038 387.771 336.038 387.771C336.038 387.771 333.239 377.955 333.767 375.281C334.295 372.607 331.496 366.288 331.496 366.288L330.361 358.708C325.722 351.379 327.147 344.424 327.147 344.424L326.693 332.7C326.693 332.7 322.435 310.104 321.509 298.635C320.942 291.294 320.618 281.251 320.482 274.983C320.482 273.847 320.436 272.848 320.419 272.002L320.005 272.059C320.005 272.059 320.005 274.387 320.107 277.907C320.249 284.152 320.544 294.212 321.14 301.553C322.066 313.022 326.324 335.618 326.324 335.618L326.738 347.336C326.738 347.336 325.313 354.291 329.952 361.621L331.087 369.206C331.087 369.206 333.875 375.514 333.358 378.193C332.842 380.873 335.675 390.695 335.675 390.695Z" fill="black"/>
<path opacity="0.05" d="M379.772 416.601C378.515 414.931 377.648 413.001 377.234 410.952C375.792 412.355 377.711 417.516 379.397 419.525C381.174 421.637 393.795 422.483 396.06 418.39L395.97 416.085C392.83 419.463 381.447 418.6 379.772 416.601Z" fill="black"/>
<path opacity="0.05" d="M397.616 402.237C396.996 403.422 396.478 404.656 396.066 405.928L396.128 407.631C396.378 407.001 396.742 406.161 397.264 405.161C397.61 404.196 397.751 403.169 397.678 402.147C397.644 402.181 397.633 402.209 397.616 402.237Z" fill="black"/>
<path opacity="0.05" d="M380.061 404.821C380.484 403.873 380.844 402.898 381.14 401.903C381.14 401.903 379.102 402.47 375.69 398.723C373.208 395.998 372.851 390.69 373.072 387.204C372.544 389.282 371.908 397.9 375.343 401.641C377.552 404.088 379.193 404.696 380.061 404.821Z" fill="black"/>
<path opacity="0.05" d="M372.726 378.256C373.028 380.629 373.2 383.017 373.243 385.41C373.287 385.027 373.355 384.648 373.447 384.274C373.975 382.196 373.095 375.332 373.095 375.332C373.095 375.332 373.033 370.489 372.005 368.956C370.977 367.423 368.598 358.555 368.598 358.555C368.598 358.555 368.485 355.535 366.731 354.013C364.976 352.491 363.642 346.4 363.642 346.4C362.59 344.898 362.092 343.078 362.234 341.25C362.478 338.213 359.963 335.045 359.963 335.045L355.313 322.128L351.066 312.477L349.108 318.268C349.108 318.268 349.108 318.983 349.108 320.107L350.697 315.423L354.944 325.075L359.56 337.974C359.56 337.974 362.103 341.148 361.831 344.18C361.691 346.009 362.189 347.83 363.239 349.335C363.239 349.335 364.567 355.455 366.316 356.965C368.065 358.476 368.19 361.507 368.19 361.507C368.19 361.507 370.586 370.376 371.596 371.908C372.607 373.441 372.726 378.256 372.726 378.256Z" fill="black"/>
</g>
<path d="M374.316 155.455L373.578 159.906L373.708 161.865L373.799 163.312L368.78 164.028L368.173 163.006C367.037 161.155 364.738 157.391 364.017 156.823C363.052 156.079 360.917 143.873 362.944 144.52C364.18 144.946 365.215 145.813 365.851 146.956C365.851 146.956 375.803 147.711 374.316 155.455Z" fill="#FFCDD3"/>
<path opacity="0.1" d="M373.799 163.312L368.78 164.028L368.173 163.006C368.822 162.206 369.728 161.656 370.737 161.449C371.747 161.242 372.796 161.391 373.708 161.87L373.799 163.312Z" fill="black"/>
<path d="M375.167 165.657L368.576 167.451L368.394 166.469L367.917 163.818C367.917 163.818 370.415 160.207 374.321 162.682L374.707 164.028L375.167 165.657Z" fill="#DCE6F2"/>
<path d="M267.046 160.065L260.096 164.153C260.096 164.153 259.801 163.585 259.398 162.836C258.671 161.445 257.581 159.35 257.275 158.6C256.809 157.465 253.789 156.068 253.789 156.068C246.084 149.255 254.703 142.811 254.703 142.811C259.023 133.199 264.74 145.65 264.74 145.65C264.74 145.65 265.717 152.275 265.223 152.747C264.729 153.218 264.797 155.018 264.797 155.018C265.528 156.289 266.153 157.618 266.665 158.992C266.915 159.656 267.046 160.065 267.046 160.065Z" fill="#FFCDD3"/>
<path opacity="0.1" d="M267.045 160.065L260.096 164.153C260.096 164.153 259.801 163.585 259.398 162.836C260.369 161.961 263.809 158.941 264.985 159.026C265.551 159.08 266.121 159.08 266.688 159.026C266.915 159.656 267.045 160.065 267.045 160.065Z" fill="black"/>
<path d="M267.852 162.188L260.028 166.424L259.801 164.72L259.642 163.54C259.642 163.54 264.116 159.401 265.484 159.497C266.179 159.569 266.881 159.54 267.568 159.412L267.715 160.848L267.852 162.188Z" fill="#DCE6F2"/>
<path d="M356.102 185.517C356.102 185.517 321.47 190.78 327.885 188.418C332.353 186.772 334.045 183.825 334.295 180.617C334.5 177.932 333.727 175.065 332.694 172.618C331.787 170.454 330.663 168.388 329.339 166.452C329.339 166.452 355.37 150.799 350.584 164.295C349.838 166.337 349.411 168.481 349.318 170.653C349.236 172.81 349.55 174.963 350.243 177.007C351.373 180.33 353.401 183.276 356.102 185.517Z" fill="#FFCDD3"/>
<path opacity="0.1" d="M350.584 164.295C349.838 166.337 349.411 168.481 349.318 170.653C346.894 172.856 344.14 172.822 340.614 172.959C337.901 173.061 334.937 173.833 332.711 172.612C331.805 170.449 330.68 168.383 329.356 166.446C329.356 166.446 355.37 150.799 350.584 164.295Z" fill="black"/>
<path d="M339.604 173.912C347.555 173.912 354.002 167.466 354.002 159.514C354.002 151.562 347.555 145.116 339.604 145.116C331.652 145.116 325.206 151.562 325.206 159.514C325.206 167.466 331.652 173.912 339.604 173.912Z" fill="#FFCDD3"/>
<path opacity="0.1" d="M356.102 185.517C356.102 185.517 321.47 190.78 327.885 188.418C332.353 186.772 334.045 183.825 334.295 180.617C335.959 178.676 339.405 177.211 341.591 176.382C343.605 175.62 345.807 175.499 347.893 176.036C348.714 176.246 349.5 176.575 350.226 177.012C351.361 180.336 353.395 183.28 356.102 185.517Z" fill="black"/>
<path opacity="0.1" d="M375.167 165.657L368.576 167.451L368.394 166.469C369.068 165.463 370.036 164.69 371.166 164.254C372.296 163.818 373.532 163.741 374.707 164.034L375.167 165.657Z" fill="black"/>
<path opacity="0.1" d="M267.852 162.188L260.028 166.424L259.801 164.72C262.589 162.926 267.307 161.013 267.715 160.848L267.852 162.188Z" fill="black"/>
<path opacity="0.1" d="M373.237 272.649C359.85 275.295 340.779 278.804 337.702 277.992C335.147 277.322 327.09 277.714 320.102 278.225C320.022 274.704 319.994 272.377 319.994 272.377L372.011 264.928C372.011 264.928 372.033 267.341 373.237 272.649Z" fill="black"/>
<path d="M386.556 268.97C386.556 268.97 342.482 278.293 337.662 277.027C332.842 275.76 308.463 278.27 308.463 278.27C297.744 286.065 301.922 275.011 301.922 275.011C301.922 275.011 300.736 269.368 301.888 264.723C302.647 261.321 303.121 257.861 303.308 254.379C303.308 254.379 302.785 247.135 304.051 245.392C305.317 243.649 306.419 231.499 306.419 231.499C306.419 231.499 307.31 223.227 307.123 221.421C306.935 219.616 307.219 214.518 307.219 214.518L308.463 206.001C299.379 205.138 271.139 189.276 271.139 189.276C269.589 183.644 258.802 170.744 258.802 170.744C258.612 169.632 258.286 168.547 257.831 167.514C257.03 165.606 267.761 161.32 267.761 161.32C267.761 161.32 276.243 170.92 278.037 173.515C279.831 176.11 285.827 180.839 285.827 180.839C286.725 180.718 287.64 180.804 288.501 181.089C288.549 181.097 288.597 181.111 288.643 181.128C290.618 181.824 292.482 182.801 294.178 184.03C298.516 183.621 301.655 186.528 301.655 186.528C301.655 186.528 306.583 185.614 307.463 186.425C308.343 187.237 312.539 186.232 312.539 186.232C312.539 186.232 316.428 177.12 319.307 179.613C322.185 182.105 333.983 181.531 333.983 181.531C335.476 179.38 339.24 177.733 341.602 176.87C343.617 176.108 345.818 175.987 347.904 176.524C348.809 176.754 349.667 177.139 350.442 177.659L357.868 184.393C357.868 184.393 359.821 181.656 359.571 181.06C359.322 180.464 361.95 179.879 361.95 179.879C361.95 179.879 365.413 178.653 366.731 178.244C368.048 177.835 369.32 179.221 369.427 179.346C369.382 179.192 368.36 176.303 368.627 174.054C368.894 171.806 367.009 169.756 367.009 169.756C370.841 159.196 380.726 167.537 380.726 167.537C380.726 167.537 382.031 173.174 381.146 175.388C380.26 177.603 382.372 182.122 382.179 183.337C381.986 184.552 382.786 186.584 382.877 188.878C382.968 191.172 381.912 195.521 381.242 197.502C380.572 199.484 374.997 204.037 374.997 204.037C374.997 204.037 374.9 210.941 372.516 215.023C370.131 219.105 372.226 232.714 372.226 232.714C372.226 232.714 375.065 243.257 378.205 246.527C381.344 249.797 386.556 268.97 386.556 268.97Z" fill="#656691"/>
<path opacity="0.1" d="M318.818 191.916C318.818 191.916 317.336 187.975 316.11 187.663C314.891 187.264 313.7 186.785 312.545 186.227L313.266 184.705C313.266 184.705 317.859 185.778 318.631 187.078C319.403 188.379 318.818 191.916 318.818 191.916Z" fill="black"/>
<path opacity="0.1" d="M294.184 184.024C293.985 185.245 283.272 186.743 283.272 186.743L288.501 181.066L288.637 181.111C290.617 181.81 292.485 182.791 294.184 184.024Z" fill="black"/>
<path d="M262.413 169.597C262.946 169.597 263.378 169.165 263.378 168.632C263.378 168.099 262.946 167.667 262.413 167.667C261.88 167.667 261.448 168.099 261.448 168.632C261.448 169.165 261.88 169.597 262.413 169.597Z" fill="#575988"/>
<path d="M263.724 171.482C264.257 171.482 264.689 171.05 264.689 170.517C264.689 169.984 264.257 169.552 263.724 169.552C263.191 169.552 262.759 169.984 262.759 170.517C262.759 171.05 263.191 171.482 263.724 171.482Z" fill="#575988"/>
<path d="M265.002 173.22C265.535 173.22 265.967 172.788 265.967 172.254C265.967 171.721 265.535 171.289 265.002 171.289C264.469 171.289 264.036 171.721 264.036 172.254C264.036 172.788 264.469 173.22 265.002 173.22Z" fill="#575988"/>
<path d="M266.347 175.105C266.88 175.105 267.312 174.672 267.312 174.139C267.312 173.606 266.88 173.174 266.347 173.174C265.814 173.174 265.382 173.606 265.382 174.139C265.382 174.672 265.814 175.105 266.347 175.105Z" fill="#575988"/>
<path d="M380.294 170.438C380.73 170.438 381.083 170.084 381.083 169.649C381.083 169.213 380.73 168.859 380.294 168.859C379.858 168.859 379.505 169.213 379.505 169.649C379.505 170.084 379.858 170.438 380.294 170.438Z" fill="#575988"/>
<path d="M380.482 172.215C380.917 172.215 381.271 171.861 381.271 171.426C381.271 170.99 380.917 170.636 380.482 170.636C380.046 170.636 379.692 170.99 379.692 171.426C379.692 171.861 380.046 172.215 380.482 172.215Z" fill="#575988"/>
<path d="M380.657 173.992C381.093 173.992 381.447 173.638 381.447 173.203C381.447 172.767 381.093 172.413 380.657 172.413C380.221 172.413 379.868 172.767 379.868 173.203C379.868 173.638 380.221 173.992 380.657 173.992Z" fill="#575988"/>
<path opacity="0.1" d="M320.141 224.675C320.022 224.533 348.597 257.899 368.967 237.199C368.99 237.199 335.737 243.019 320.141 224.675Z" fill="black"/>
<path opacity="0.1" d="M305.164 243.166C305.164 243.166 321.487 242.984 323.372 247.606L323.559 252.488C323.106 252.765 322.589 252.922 322.059 252.943C321.528 252.964 321.001 252.848 320.527 252.608C318.824 251.779 308.798 247.152 305.414 249.695L305.164 243.166Z" fill="black"/>
<path d="M305.476 243.155C305.476 243.155 321.089 242.979 322.889 247.39L323.071 252.04C322.637 252.304 322.142 252.452 321.635 252.472C321.127 252.492 320.623 252.382 320.17 252.154C318.563 251.37 308.951 246.953 305.715 249.383L305.476 243.155Z" fill="#656691"/>
<path opacity="0.1" d="M312.709 207.443C314.526 211.234 316.791 214.792 319.454 218.043C322.355 221.644 325.824 224.747 329.725 227.229C329.725 227.229 313.073 209.646 312.709 207.443Z" fill="black"/>
<path opacity="0.1" d="M306.646 188.674C306.646 188.674 309.82 200.313 316.985 204.031L306.646 188.674Z" fill="black"/>
<path opacity="0.1" d="M302.524 190.019C302.445 189.804 300.463 199.398 312.119 204.213C312.119 204.219 307.191 202.754 302.524 190.019Z" fill="black"/>
<path opacity="0.1" d="M373.424 179.402C373.243 179.402 379.221 182.9 380.867 184.563C380.867 184.563 376.859 179.056 373.424 179.402Z" fill="black"/>
<path d="M336.22 172.709C336.453 173.441 336.737 174.242 337.418 174.605C337.847 174.797 338.317 174.883 338.786 174.855C343.18 174.963 347.751 174.98 351.742 173.151C352.49 172.854 353.153 172.376 353.672 171.761C354.359 170.852 354.45 169.648 354.7 168.536C355.183 166.367 356.324 164.403 357.119 162.325C358.456 158.81 358.802 154.996 358.118 151.299C357.963 150.162 357.545 149.078 356.897 148.131C355.671 146.513 353.525 145.922 351.935 144.662C350.345 143.402 349.278 141.414 347.444 140.489C345.792 139.654 343.816 139.836 342.005 140.216C338.438 140.968 335.048 142.396 332.019 144.423C331.002 145.099 329.889 145.883 328.68 145.701C327.619 145.548 326.824 144.69 326.114 143.89C325.334 145.895 325.048 148.058 325.279 150.197C325.333 150.511 325.333 150.832 325.279 151.146C325.144 151.527 324.929 151.875 324.649 152.168C323.616 153.468 323.014 155.478 324.133 156.71C324.621 157.243 325.348 157.516 325.836 158.061C326.687 159.043 326.472 160.508 326.5 161.802C326.471 162.253 326.601 162.699 326.869 163.063C327.111 163.271 327.403 163.413 327.717 163.475C328.03 163.538 328.354 163.519 328.657 163.42C329.263 163.21 329.903 163.124 330.542 163.165C331.232 163.359 331.833 163.784 332.246 164.368C334.352 166.838 335.255 169.637 336.22 172.709Z" fill="#2D293D"/>
<g opacity="0.1">
<path opacity="0.1" d="M354.11 170.619C353.592 171.233 352.931 171.709 352.185 172.005C348.211 173.85 343.623 173.833 339.223 173.708C338.754 173.732 338.286 173.646 337.855 173.458C337.179 173.095 336.89 172.289 336.657 171.556C335.692 168.49 334.789 165.686 332.683 163.188C332.268 162.606 331.667 162.184 330.98 161.99C330.341 161.949 329.701 162.034 329.095 162.239C328.791 162.339 328.466 162.359 328.152 162.297C327.838 162.235 327.545 162.094 327.301 161.887C327.035 161.521 326.905 161.073 326.932 160.621C326.903 159.327 327.119 157.862 326.273 156.886C325.796 156.318 325.069 156.068 324.57 155.529C324.253 155.129 324.05 154.651 323.982 154.145C323.914 153.64 323.984 153.125 324.184 152.656C323.463 153.905 323.19 155.495 324.127 156.516C324.61 157.05 325.342 157.323 325.83 157.873C326.682 158.85 326.466 160.315 326.494 161.609C326.465 162.06 326.596 162.506 326.863 162.87C327.106 163.078 327.398 163.22 327.711 163.282C328.024 163.345 328.348 163.326 328.652 163.227C329.258 163.02 329.898 162.933 330.537 162.972C331.226 163.166 331.827 163.591 332.24 164.175C334.369 166.674 335.266 169.472 336.214 172.544C336.447 173.276 336.731 174.077 337.412 174.446C337.842 174.635 338.311 174.721 338.781 174.696C343.175 174.798 347.745 174.815 351.737 172.993C352.483 172.695 353.146 172.219 353.667 171.607C353.921 171.244 354.113 170.841 354.235 170.415C354.201 170.483 354.161 170.54 354.11 170.619Z" fill="black"/>
<path opacity="0.1" d="M325.313 150.731C325.5 150.515 325.64 150.261 325.722 149.987C325.779 149.676 325.779 149.357 325.722 149.045C325.531 147.288 325.691 145.511 326.193 143.816L326.108 143.719C325.329 145.725 325.043 147.888 325.274 150.027C325.309 150.26 325.323 150.496 325.313 150.731Z" fill="black"/>
</g>
<path opacity="0.1" d="M333.989 181.526C333.989 181.526 352.049 183.229 353.565 180.453L333.989 181.526Z" fill="black"/>
<path opacity="0.1" d="M368.638 172.743C368.638 172.743 378.625 172.374 380.964 176.03L368.638 172.743Z" fill="black"/>
<path d="M586.999 362.438C586.999 362.438 590.366 366.839 585.444 373.487C580.521 380.135 576.468 385.744 578.109 389.889C578.109 389.889 585.535 377.546 591.575 377.37C597.616 377.194 593.648 369.853 586.999 362.438Z" fill="#6C63FF"/>
<path opacity="0.1" d="M586.999 362.438C587.295 362.862 587.527 363.327 587.686 363.818C593.585 370.745 596.725 377.211 591.059 377.37C585.779 377.524 579.443 386.965 577.927 389.344C577.977 389.536 578.038 389.726 578.108 389.912C578.108 389.912 585.535 377.569 591.575 377.393C597.616 377.217 593.648 369.853 586.999 362.438Z" fill="black"/>
<path d="M593.262 368.042C593.262 369.592 593.086 370.847 592.87 370.847C592.654 370.847 592.484 369.592 592.484 368.042C592.484 366.492 592.7 367.225 592.915 367.225C593.131 367.225 593.262 366.492 593.262 368.042Z" fill="#FFD037"/>
<path d="M595.408 369.893C594.045 370.631 592.859 371.08 592.757 370.892C592.654 370.705 593.676 369.95 595.028 369.189C596.379 368.428 595.851 368.985 595.959 369.189C596.066 369.393 596.765 369.149 595.408 369.893Z" fill="#FFD037"/>
<path d="M569.218 362.438C569.218 362.438 565.851 366.839 570.768 373.487C575.684 380.135 579.749 385.744 578.109 389.889C578.109 389.889 570.683 377.546 564.642 377.37C558.601 377.194 562.569 369.853 569.218 362.438Z" fill="#6C63FF"/>
<path opacity="0.1" d="M569.218 362.438C568.922 362.862 568.69 363.327 568.531 363.818C562.632 370.745 559.492 377.211 565.158 377.37C570.438 377.524 576.769 386.965 578.29 389.344C578.24 389.536 578.179 389.726 578.109 389.912C578.109 389.912 570.683 377.569 564.642 377.393C558.601 377.217 562.569 369.853 569.218 362.438Z" fill="black"/>
<path d="M562.956 368.042C562.956 369.592 563.132 370.847 563.347 370.847C563.563 370.847 563.733 369.592 563.733 368.042C563.733 366.492 563.518 367.225 563.302 367.225C563.086 367.225 562.956 366.492 562.956 368.042Z" fill="#FFD037"/>
<path d="M560.809 369.893C562.172 370.631 563.359 371.08 563.461 370.892C563.563 370.705 562.541 369.95 561.19 369.189C559.838 368.428 560.361 368.985 560.259 369.189C560.156 369.393 559.447 369.149 560.809 369.893Z" fill="#FFD037"/>
<path opacity="0.1" d="M578.103 423.562C597.544 423.562 613.303 421.145 613.303 418.163C613.303 415.181 597.544 412.764 578.103 412.764C558.662 412.764 542.903 415.181 542.903 418.163C542.903 421.145 558.662 423.562 578.103 423.562Z" fill="#6C63FF"/>
<path d="M596.225 383.95L596.055 385.324L595.822 387.266L595.726 388.078L595.487 390.02L595.385 390.831L595.147 392.767L592.456 414.853C592.211 416.823 588.992 418.362 585.109 418.362H571.108C567.219 418.362 564.006 416.823 563.767 414.853L561.065 392.767L560.832 390.831L560.736 390.02L560.491 388.078L560.395 387.266L560.157 385.324L559.992 383.95C559.856 382.815 561.599 381.895 563.796 381.895H592.444C594.619 381.895 596.367 382.832 596.225 383.95Z" fill="#65617D"/>
<path d="M596.055 385.324L595.817 387.266H560.389L560.156 385.324H596.055Z" fill="#9D9CB5"/>
<path d="M595.72 388.072L595.487 390.02H560.73L560.491 388.072H595.72Z" fill="#9D9CB5"/>
<path d="M595.379 390.826L595.147 392.768H561.065L560.826 390.826H595.379Z" fill="#9D9CB5"/>
<path d="M96.6925 453C136.321 453 168.447 447.85 168.447 441.497C168.447 435.145 136.321 429.995 96.6925 429.995C57.0638 429.995 24.9385 435.145 24.9385 441.497C24.9385 447.85 57.0638 453 96.6925 453Z" fill="#F2F2F2"/>
<path d="M144.082 235.254C144.082 235.254 145.153 243.279 142.476 246.489C139.798 249.699 135.515 271.099 135.515 271.099V283.939C135.515 283.939 152.114 259.864 155.327 250.234C158.54 240.604 155.327 233.114 155.327 233.114L144.082 235.254Z" fill="#FFC1C7"/>
<path d="M142.476 195.663L142.702 195.918C145.468 199.025 147.638 202.613 149.105 206.504C152.62 215.83 160.176 238.82 157.469 241.139C153.721 244.349 143.011 246.489 142.476 245.954C141.941 245.419 131.231 212.248 131.231 212.248L142.476 195.663Z" fill="#3F3D56"/>
<path d="M125.073 423.04C125.073 423.04 137.924 425.715 138.46 423.04C138.802 421.377 139.342 419.76 140.066 418.225C140.066 418.225 151.714 418.71 148.673 428.913C148.368 429.918 147.703 430.776 146.804 431.321C144.03 433.017 137.495 437.017 134.176 439.09C131.681 440.648 128.096 439.484 125.538 438.24C124.62 437.791 123.878 437.051 123.427 436.135C122.975 435.22 122.84 434.181 123.043 433.181L125.073 423.04Z" fill="#3F3D56"/>
<path d="M88.125 424.645C88.125 424.645 75.2735 427.32 74.738 424.645C74.3956 422.982 73.8563 421.366 73.1316 419.83C73.1316 419.83 61.5058 420.314 64.5158 430.488C64.8251 431.513 65.5033 432.387 66.4195 432.942C69.2079 434.647 75.7126 438.629 79.0218 440.695C81.754 442.401 85.7931 440.843 88.3606 439.49C89.0739 439.118 89.6475 438.525 89.9956 437.801C90.3437 437.076 90.4476 436.258 90.2917 435.469L88.125 424.645Z" fill="#3F3D56"/>
<path d="M72.0607 242.209C72.0607 242.209 70.9897 250.234 73.6671 253.444C76.3445 256.654 80.6283 268.959 80.6283 268.959V281.799C80.6283 281.799 64.0285 266.819 60.8156 257.189C57.6028 247.559 60.8156 240.069 60.8156 240.069L72.0607 242.209Z" fill="#FFC1C7"/>
<path d="M109.544 176.403C116.937 176.403 122.931 170.415 122.931 163.028C122.931 155.641 116.937 149.653 109.544 149.653C102.151 149.653 96.157 155.641 96.157 163.028C96.157 170.415 102.151 176.403 109.544 176.403Z" fill="#FFC1C7"/>
<path d="M120.253 168.378C120.253 168.378 116.505 185.498 120.253 187.638C124.002 189.778 97.7634 187.638 97.7634 187.638C97.7634 187.638 103.654 173.193 100.976 168.378C98.2989 163.563 120.253 168.378 120.253 168.378Z" fill="#FFC1C7"/>
<path d="M133.105 282.334C133.105 282.334 137.924 289.289 136.318 310.689C134.711 332.089 133.105 354.559 133.105 354.559C133.105 354.559 144.886 421.97 141.137 423.575C137.389 425.18 125.073 426.785 123.466 425.18C121.86 423.575 114.363 360.979 114.363 360.979L107.402 309.619L96.6925 368.469C96.6925 368.469 90.8023 425.715 86.5184 428.39C83.456 430.302 77.3835 428.934 74.1696 427.998C73.5668 427.825 73.0398 427.454 72.6732 426.946C72.3066 426.437 72.1217 425.821 72.1483 425.195C72.5408 416.192 74.3034 380.664 78.4863 358.839C83.3056 333.694 73.667 283.404 82.2346 282.334C90.8023 281.264 133.105 282.334 133.105 282.334Z" fill="#2F2E41"/>
<path d="M95.6216 185.498C95.6216 185.498 97.7635 175.868 105.796 176.938C113.828 178.008 119.183 177.473 120.789 182.823C122.396 188.173 139.531 192.453 139.531 192.453C139.531 192.453 143.815 192.988 143.279 199.943C142.744 206.898 132.034 232.578 132.034 232.578C132.034 232.578 132.57 253.979 135.247 263.609C137.924 273.239 137.924 285.009 132.034 287.684C126.144 290.359 89.1959 299.989 80.6282 288.219C80.6282 288.219 75.8089 271.099 79.0218 264.144C82.2347 257.189 78.4863 229.903 78.4863 229.903L68.3123 207.433C68.3123 207.433 71.5251 196.733 80.6282 193.523C86.0156 191.649 91.0749 188.941 95.6216 185.498Z" fill="#3F3D56"/>
<path d="M72.5961 202.618L68.3123 207.433C68.3123 207.433 55.4608 238.999 59.2092 242.209C62.9575 245.419 73.6671 247.559 74.2025 247.024C74.738 246.489 83.8411 219.203 83.8411 219.203L72.5961 202.618Z" fill="#3F3D56"/>
<path d="M125.073 155.003C125.073 155.003 122.931 156.608 122.395 160.353C121.86 164.098 118.572 158.219 117.806 165.974C117.041 173.728 104.189 179.078 99.3698 175.333C94.5505 171.588 86.5183 148.048 97.7634 144.303C109.008 140.558 120.253 141.093 122.395 144.838C124.537 148.583 125.073 155.003 125.073 155.003Z" fill="#2F2E41"/>
<path opacity="0.1" d="M114.593 165.974C115.359 158.219 118.647 164.098 119.183 160.353C119.718 156.608 121.86 155.003 121.86 155.003C121.86 155.003 121.325 148.583 119.183 144.838C118.158 143.046 115.046 141.991 110.851 141.786C116.639 141.521 121.123 142.613 122.396 144.838C124.537 148.583 125.073 155.003 125.073 155.003C125.073 155.003 122.931 156.608 122.396 160.353C121.86 164.098 118.572 158.219 117.806 165.974C117.157 172.548 107.823 177.391 102.06 176.432C107.553 175.678 114.056 171.422 114.593 165.974Z" fill="black"/>
<path d="M625.114 466.969C667.151 466.969 701.229 461.986 701.229 455.84C701.229 449.694 667.151 444.711 625.114 444.711C583.078 444.711 549 449.694 549 455.84C549 461.986 583.078 466.969 625.114 466.969Z" fill="#F2F2F2"/>
<path d="M610.856 234.859C611.565 236.949 612.124 239.078 612.528 241.235C612.828 242.85 613.004 244.645 611.989 245.994C615.858 240.686 619.898 235.217 625.777 231.791C624.58 230.607 623.669 229.207 623.104 227.681C622.539 226.155 622.332 224.538 622.497 222.935C622.53 222.615 617.671 224.288 617.299 224.478C615.594 225.343 614.032 226.418 612.369 227.344C611.508 227.82 607.923 228.948 607.89 229.63C607.89 230.069 609.314 231.41 609.582 231.871C610.107 232.829 610.533 233.829 610.856 234.859Z" fill="#FBBEBE"/>
<path d="M628.836 435.076C627.88 434.462 626.761 434.096 625.595 434.015C624.43 433.935 623.263 434.143 622.217 434.619C620.324 435.511 619.05 437.199 617.329 438.342C614.37 440.301 610.464 440.457 607 441.517C606.081 441.799 605.103 442.218 604.714 443.041C604.584 443.387 604.532 443.754 604.561 444.118C604.591 444.483 604.701 444.839 604.886 445.164C605.465 446.341 606.479 447.295 607.752 447.858C609.306 448.536 611.095 448.567 612.816 448.586L627.774 448.746C632.37 448.796 636.996 448.845 641.563 449.367C642.628 449.489 643.781 449.623 644.721 449.146C646.251 448.384 646.426 446.456 646.309 444.866C646.001 440.84 645.015 436.881 643.384 433.129C643.205 432.713 642.967 432.241 642.461 432.165C642.102 432.15 641.75 432.253 641.467 432.454C637.246 434.741 631.902 436.033 627.415 434.203" fill="#2E2E2E"/>
<path d="M636.323 348.035C634.652 356.888 635.742 365.985 637.622 374.799C637.969 376.554 638.425 378.29 638.989 379.997C639.661 381.941 640.568 383.808 641.199 385.763C642.803 390.717 642.578 396.015 642.34 401.186L641.245 424.718C641.153 426.692 641.069 428.712 641.721 430.595C641.984 431.357 642.306 432.31 641.642 432.824C641.382 432.994 641.078 433.101 640.76 433.133C637.77 433.635 634.682 433.213 631.986 431.932L631.689 408.16C631.597 400.831 631.501 393.473 630.264 386.236C629.282 380.481 627.578 374.803 627.465 368.98C627.348 362.883 628.986 356.865 630.657 350.954C631.016 349.689 632.328 348.763 633.406 347.906C633.783 347.567 634.241 347.314 634.743 347.166C635.245 347.041 636.014 347.65 636.323 348.035Z" fill="#3F3D56"/>
<path opacity="0.1" d="M636.323 348.035C634.652 356.888 635.742 365.985 637.622 374.799C637.969 376.554 638.425 378.29 638.989 379.997C639.661 381.941 640.568 383.808 641.199 385.763C642.803 390.717 642.578 396.015 642.34 401.186L641.245 424.718C641.153 426.692 641.069 428.712 641.721 430.595C641.984 431.357 642.306 432.31 641.642 432.824C641.382 432.994 641.078 433.101 640.76 433.133C637.77 433.635 634.682 433.213 631.986 431.932L631.689 408.16C631.597 400.831 631.501 393.473 630.264 386.236C629.282 380.481 627.578 374.803 627.465 368.98C627.348 362.883 628.986 356.865 630.657 350.954C631.016 349.689 632.328 348.763 633.406 347.906C633.783 347.567 634.241 347.314 634.743 347.166C635.245 347.041 636.014 347.65 636.323 348.035Z" fill="black"/>
<path d="M604.948 320.368C604.33 322.689 605.642 325.094 605.496 327.479C605.412 328.924 604.789 330.364 605.078 331.782C605.366 333.2 606.477 334.267 607.071 335.566C607.503 336.651 607.732 337.795 607.748 338.95C607.919 341.801 607.781 344.667 607.664 347.506C607.468 352.269 607.321 357.06 608.011 361.781C608.611 365.872 609.83 369.867 611.633 373.652C612.18 374.682 612.631 375.751 612.983 376.85C613.214 377.873 613.368 378.909 613.443 379.952C613.84 383.342 614.837 386.651 616.397 389.749C617.462 391.872 619.322 393.56 619.911 395.813C620.471 397.97 620.095 400.245 620.5 402.428C620.796 404.048 621.519 405.58 621.92 407.18C622.443 409.25 622.43 411.395 622.693 413.507C623.446 419.604 626.483 425.701 624.67 431.616C624.306 432.805 623.742 434.013 623.997 435.225C624.122 435.819 624.44 436.406 624.298 436.997C624.181 437.5 623.755 437.889 623.537 438.365C623.12 439.257 623.563 440.316 624.306 441.006C625.1 441.649 626.022 442.146 627.022 442.469C630.102 443.67 633.29 444.889 636.632 444.863C637.038 444.882 637.443 444.814 637.815 444.664C638.416 444.379 638.713 443.757 638.968 443.186L640.681 439.322C640.89 438.853 641.099 438.304 640.811 437.87C640.61 437.631 640.367 437.425 640.092 437.26C638.709 436.197 639.022 434.211 639.39 432.614C640.329 428.513 640.849 424.342 640.944 420.153C641.128 411.799 639.62 403.495 638.116 395.252C637.593 392.39 637.067 389.509 636.026 386.765C634.986 384.022 633.453 381.381 633.703 378.53C633.971 375.451 633.093 372.223 633.703 369.186C634.313 366.149 635.278 363.176 635.901 360.143C636.707 356.206 636.908 352.193 637.155 348.199C637.259 346.568 637.393 344.884 638.228 343.436C638.717 342.59 639.428 341.865 639.975 341.046C641.387 338.916 641.613 336.275 642.962 334.11C643.602 333.085 644.483 332.182 644.951 331.084C645.28 330.219 645.452 329.31 645.461 328.394C645.593 326.094 645.453 323.788 645.043 321.515C637.93 318.214 630.042 316.545 622.063 316.653C619.008 316.698 615.92 316.98 613.054 317.944C610.321 318.871 607.831 320.17 604.948 320.368Z" fill="#3F3D56"/>
<path d="M622.079 441.105C620.851 442.5 620.934 444.493 620.149 446.135C619.196 448.128 617.074 449.405 615.06 450.567L602.525 457.808C601.839 458.189 601.104 458.658 600.853 459.367C600.734 459.819 600.756 460.293 600.916 460.735C601.215 461.691 601.773 462.564 602.538 463.272C603.303 463.981 604.251 464.502 605.295 464.79C606.404 465.031 607.544 465.137 608.683 465.106L614.32 465.175C616.037 465.236 617.757 465.175 619.463 464.992C621.026 464.786 622.547 464.378 624.101 464.119C626.93 463.65 629.838 463.692 632.671 463.239C634.406 462.928 636.119 462.524 637.802 462.031C639.849 461.47 641.934 460.887 643.689 459.778C644.172 459.51 644.564 459.125 644.822 458.666C645.118 458.037 644.955 457.317 644.788 456.65L642.097 445.865C641.946 444.967 641.587 444.108 641.044 443.346C640.447 442.622 639.373 442.142 638.441 442.45C638.057 442.61 637.694 442.809 637.359 443.045C635.98 443.872 634.213 444.009 632.583 443.75C631.53 443.578 630.139 443.315 629.291 442.679C628.647 442.195 628.455 441.444 627.908 440.895C627.524 440.536 627.062 440.254 626.551 440.068C626.04 439.882 625.492 439.796 624.942 439.816C624.393 439.836 623.854 439.961 623.36 440.183C622.867 440.405 622.431 440.719 622.079 441.105Z" fill="#2E2E2E"/>
<path d="M613.952 233.373C622.29 233.373 629.049 227.208 629.049 219.604C629.049 212 622.29 205.835 613.952 205.835C605.615 205.835 598.856 212 598.856 219.604C598.856 227.208 605.615 233.373 613.952 233.373Z" fill="#FBBEBE"/>
<path d="M602.307 220.412C603.753 219.673 603.753 217.542 605.232 216.834C606.711 216.125 608.391 217.356 609.339 218.598C610.722 220.417 611.682 222.476 612.16 224.646C612.294 225.263 612.419 225.938 612.929 226.368C613.438 226.799 614.107 226.852 614.759 226.913C616.667 227.086 618.578 227.244 620.491 227.386C622.622 227.542 624.87 227.668 626.805 226.833C627.568 226.522 628.224 226.027 628.702 225.4C629.085 224.799 629.358 224.146 629.512 223.465C630.511 220 631.518 216.494 631.601 212.912C631.635 211.433 631.493 209.901 630.711 208.606C630.256 207.844 629.587 207.18 629.399 206.342C629.211 205.504 629.817 204.437 630.77 204.528C629.909 204.56 629.051 204.412 628.263 204.094C627.507 203.713 626.947 202.893 627.214 202.146C625.092 202.394 623.546 200.481 621.891 199.242C621.622 198.999 621.259 198.862 620.88 198.861C620.589 198.927 620.309 199.026 620.044 199.155C619.209 199.421 618.335 198.915 617.479 198.694C615.181 198.107 612.26 199.524 610.555 198C610.718 198.972 609.41 199.623 608.332 199.604C607.254 199.585 606.143 199.223 605.124 199.551C605.271 199.797 605.357 200.07 605.376 200.351C605.394 200.631 605.345 200.911 605.231 201.172C605.116 201.433 604.941 201.667 604.715 201.859C604.49 202.05 604.222 202.194 603.929 202.28L604.434 203.286C603.913 203.381 603.432 203.607 603.044 203.938C602.657 204.269 602.378 204.693 602.241 205.161C601.685 207.161 601.823 210.004 601.956 212.062C602.023 212.965 602.988 220.073 602.307 220.412Z" fill="#192534"/>
<path d="M615.189 237.351C607.605 245.129 605.675 256.078 604.058 266.387L601.676 281.607C601.058 285.555 600.423 289.503 599.884 293.463C599.508 296.173 599.157 298.924 599.566 301.63C599.888 303.764 600.669 305.822 601.321 307.876C603.017 313.263 603.861 318.844 603.828 324.449C604.334 323.093 606.085 322.544 607.622 322.239C620.524 319.686 633.984 320.997 646.004 325.978C648.114 320.585 647.717 314.686 648.306 308.985C649.142 300.856 652.021 292.979 652.873 284.866C653.187 281.844 653.224 278.806 653.258 275.769C653.283 273.54 653.308 271.287 652.798 269.104C652.23 266.688 651.031 264.435 649.79 262.244C646.359 256.153 642.548 250.246 638.374 244.554C636.274 241.688 634.083 238.879 631.802 236.128C630.646 234.733 629.466 233.354 628.263 231.989C627.097 230.667 626.592 229.52 624.741 230.313C621.243 231.806 617.734 234.741 615.189 237.351Z" fill="#6C63FF"/>
<path d="M619.534 302.091C617.684 302.152 615.832 302.098 613.99 301.931C612.624 301.809 611.228 301.626 609.895 301.931C609.316 302.064 608.773 302.307 608.303 302.644C608.129 302.785 608.004 302.97 607.943 303.175C607.882 303.38 607.888 303.597 607.961 303.799C608.033 304.002 608.168 304.18 608.35 304.313C608.532 304.446 608.752 304.528 608.984 304.549L610.413 304.663C611.32 304.736 612.264 304.82 612.97 305.425C613.26 305.664 613.445 305.99 613.489 306.344C613.576 307.232 612.732 307.716 611.976 308.085C610.901 308.546 609.907 309.15 609.026 309.877C608.337 310.484 607.903 311.294 607.802 312.163C607.799 312.241 607.818 312.318 607.858 312.386C607.897 312.455 607.956 312.513 608.028 312.554C608.1 312.595 608.183 312.619 608.268 312.622C608.353 312.624 608.437 312.607 608.512 312.571C610.183 311.809 611.274 309.549 613.108 309.926C611.44 310.408 610.011 311.41 609.072 312.758C608.84 313.079 608.735 313.463 608.772 313.846C608.81 314.229 608.988 314.59 609.278 314.869C609.568 315.148 609.954 315.33 610.371 315.385C610.789 315.439 611.214 315.364 611.579 315.17C611.851 315.025 612.113 314.866 612.365 314.693C613.607 313.776 614.72 312.721 615.678 311.553C614.341 314.126 612.987 317.136 614.525 319.693C614.601 319.834 614.721 319.951 614.869 320.031C615.018 320.111 615.188 320.15 615.36 320.143C615.845 320.097 615.987 319.682 616.067 319.316C616.317 318.139 616.38 316.896 617.015 315.848C618.486 313.417 622.113 313.181 624.874 311.995C628.188 310.593 630.457 307.575 631.372 304.351C631.692 303.411 631.748 302.412 631.535 301.447C630.92 299.279 627.987 298.779 626.103 299.827C623.792 301.165 622.451 302.007 619.534 302.091Z" fill="#FBBEBE"/>
<path opacity="0.1" d="M616.601 259.436C619.526 263.555 624.603 265.876 628.957 268.768C630.019 269.399 630.945 270.203 631.689 271.139C632.788 272.686 632.943 274.652 632.717 276.474C632.433 278.879 631.585 281.192 630.745 283.486L628.919 288.459C627.762 291.615 626.567 294.835 624.365 297.487C623.801 298.162 623.145 298.882 623.17 299.728C623.218 300.217 623.402 300.686 623.705 301.092C624.409 302.141 625.338 303.05 626.436 303.765C627.533 304.48 628.777 304.986 630.093 305.254C630.881 305.437 631.707 305.437 632.496 305.254C633.624 304.949 634.472 304.111 635.258 303.318C639.018 299.534 642.778 295.696 645.494 291.257C648.148 286.924 649.735 282.11 651.198 277.343C651.8 275.588 652.22 273.785 652.451 271.958C652.76 268.528 651.774 265.099 650.162 262C648.549 258.902 646.33 256.097 644.045 253.372C641.887 250.696 639.491 248.187 636.879 245.873C632.333 241.997 626.771 239.718 620.688 241.917C616.393 243.472 614.784 246.715 614.4 250.869C614.074 253.868 614.849 256.881 616.601 259.436Z" fill="black"/>
<path d="M618.122 258.391C621.047 262.511 626.128 264.832 630.477 267.724C631.536 268.361 632.458 269.17 633.198 270.11C634.296 271.657 634.451 273.62 634.225 275.445C633.937 277.85 633.093 280.163 632.249 282.457L630.423 287.411C629.266 290.567 628.071 293.783 625.869 296.439C625.309 297.114 624.653 297.83 624.678 298.68C624.724 299.168 624.908 299.637 625.213 300.041C625.916 301.09 626.844 301.999 627.941 302.715C629.038 303.43 630.281 303.938 631.597 304.206C632.387 304.389 633.214 304.389 634.004 304.206C635.132 303.905 635.976 303.063 636.766 302.274C640.526 298.486 644.287 294.652 647.003 290.212C649.656 285.879 651.244 281.066 652.706 276.295C653.31 274.542 653.73 272.74 653.959 270.914C654.269 267.484 653.283 264.054 651.674 260.952C650.065 257.85 647.842 255.049 645.557 252.324C643.392 249.662 640.99 247.168 638.374 244.867C633.833 240.995 628.271 238.712 622.188 240.915C617.888 242.47 616.284 245.709 615.895 249.866C615.588 252.854 616.371 255.851 618.122 258.391Z" fill="#6C63FF"/>
<defs>
<linearGradient id="paint0_linear" x1="346.224" y1="382.684" x2="346.224" y2="77.049" gradientUnits="userSpaceOnUse">
<stop stop-color="#808080" stop-opacity="0.25"/>
<stop offset="0.54" stop-color="#808080" stop-opacity="0.12"/>
<stop offset="1" stop-color="#808080" stop-opacity="0.1"/>
</linearGradient>
<linearGradient id="paint1_linear" x1="106044" y1="239872" x2="99935.5" y2="80872.6" gradientUnits="userSpaceOnUse">
<stop stop-color="#808080" stop-opacity="0.25"/>
<stop offset="0.54" stop-color="#808080" stop-opacity="0.12"/>
<stop offset="1" stop-color="#808080" stop-opacity="0.1"/>
</linearGradient>
</defs>
</svg>
