<svg width="702" height="468" fill="none" xmlns="http://www.w3.org/2000/svg"><path d="M93.184 97.635l.261-.204c21.104 12.667 50.791 9.652 51.052 9.652l-3.276 3.719c-.261.017-26.786-.415-48.037-13.167z" fill="#444053"/><path d="M138.757 84.066s-16.163 10.589-28.387 4.775m-19.99-5.467s3.344 10.361.056 12.32m-11.008 3.219s6.376-6.33 4.599-7.494m2.685 16.487s15.897-2.129 17.6 2.021m7.818 30.556s-.857-17.384-10.787-24.106m-4.82 36.716s2.577-12.735-9.612-21.739" stroke="#444053" stroke-miterlimit="10"/><path opacity=".1" d="M364.97 446.278c31.391 0 56.838-6.286 56.838-14.041 0-7.754-25.447-14.04-56.838-14.04-31.39 0-56.837 6.286-56.837 14.04 0 7.755 25.447 14.041 56.837 14.041z" fill="#6C63FF"/><path d="M608.909 77.049H83.544a7.091 7.091 0 00-7.091 7.091v291.453a7.091 7.091 0 007.091 7.091h525.365a7.091 7.091 0 007.091-7.091V84.14a7.091 7.091 0 00-7.091-7.091z" fill="url(#paint0_linear)"/><path d="M608.114 81.347H84.401a7.091 7.091 0 00-7.09 7.091v286.139a7.091 7.091 0 007.09 7.091h523.713a7.091 7.091 0 007.091-7.091V88.438a7.091 7.091 0 00-7.091-7.091z" fill="#fff"/><path d="M608.114 81.347H84.401a7.091 7.091 0 00-7.09 7.091v286.139a7.091 7.091 0 007.09 7.091h523.713a7.091 7.091 0 007.091-7.091V88.438a7.091 7.091 0 00-7.091-7.091z" fill="#fff"/><path opacity=".04" d="M608.114 81.347H84.401a7.091 7.091 0 00-7.09 7.091v286.139a7.091 7.091 0 007.09 7.091h523.713a7.091 7.091 0 007.091-7.091V88.438a7.091 7.091 0 00-7.091-7.091z" fill="#5A5773"/><path d="M612.48 77.9H80.047a2.73 2.73 0 00-2.731 2.731v11.56H615.21V80.63a2.732 2.732 0 00-2.731-2.73z" fill="#5A5773"/><path d="M88.052 88.728a3.69 3.69 0 100-7.381 3.69 3.69 0 000 7.38zm9.935 0a3.69 3.69 0 10.001-7.38 3.69 3.69 0 000 7.38zm9.936 0a3.69 3.69 0 100-7.38 3.69 3.69 0 000 7.38z" fill="#fff"/><path opacity=".1" d="M556.052 158.668h-436.95a5.786 5.786 0 00-5.785 5.786v161.024a5.785 5.785 0 005.785 5.785h436.95a5.785 5.785 0 005.785-5.785V164.454a5.786 5.786 0 00-5.785-5.786z" fill="#6C63FF"/><path d="M566.843 153.077l-436.808-11.133a5.786 5.786 0 00-5.931 5.636l-4.103 160.972a5.786 5.786 0 005.636 5.931l436.808 11.133a5.785 5.785 0 005.931-5.636l4.103-160.972a5.786 5.786 0 00-5.636-5.931z" fill="#fff"/><path opacity=".2" d="M191.342 178.42l312.443 7.943m-313.062 16.465l312.443 7.942m-313.062 16.459l312.443 7.943M189.48 251.637l312.448 7.943" stroke="#5A5773" stroke-miterlimit="10"/><path opacity=".2" d="M217.879 245.732l-.79 31.028" stroke="#5A5773" stroke-miterlimit="10" stroke-dasharray="12 12"/><path opacity=".2" d="M188.861 276.044l312.443 7.937" stroke="#5A5773" stroke-miterlimit="10"/><path opacity=".2" d="M252.426 277.657l1.175-46.255" stroke="#5A5773" stroke-miterlimit="10" stroke-dasharray="12 12"/><path opacity=".2" d="M459.114 227.746c-5.569.483-11.008-2.64-14.341-5.922-3.452-3.406-5.956-7.596-8.374-11.672a215.348 215.348 0 00-2.362-3.901c-4.218-6.688-8.431-11.184-13.251-14.154a25.25 25.25 0 00-5.638-2.577 3.975 3.975 0 01-3.582 2.435h-.188a3.972 3.972 0 01-3.832-3.446 17.302 17.302 0 00-5.229 1.073c-4.956 1.868-8.721 5.882-12.144 9.839a225.31 225.31 0 00-11.866 14.909 841.908 841.908 0 00-2.271 3.117c-4.042 5.644-8.221 11.474-13.626 16.033-7.256 6.155-15.982 8.806-23.346 7.097-8.834-2.049-15.153-9.856-19.666-16.43-.568-.852-1.136-1.704-1.749-2.572-4.213-6.246-8.567-12.701-14.994-16.465-8.465-4.968-20.155-4.11-27.82 2.027-3.736 2.992-6.54 7.057-9.26 10.986-.931 1.351-1.896 2.748-2.89 4.088-5.109 6.864-10.259 10.588-15.812 11.394a30.071 30.071 0 01-6.625 0c-1.465-.102-2.981-.215-4.463-.176a21.457 21.457 0 00-17.923 11.168l-.784 32.679 245.443 6.246 1.374-54.067a3.408 3.408 0 01-4.781-1.703v-.006z" fill="#6C63FF"/><path opacity=".2" d="M290.658 201.88l-1.947 76.702m36.177-47.356l-1.227 48.242m35.269-42.581l-1.102 43.45m34.139-82.335l-2.112 83.146m35.734-86.047l-2.209 86.905m39.447-54.232l-1.408 55.197" stroke="#5A5773" stroke-miterlimit="10" stroke-dasharray="12 12"/><path d="M414.808 185.687a3.981 3.981 0 00-2.839-1.107 3.978 3.978 0 00-3.901 4.048c0 .154 0 .307.034.454.121.89.539 1.712 1.187 2.334a3.899 3.899 0 002.646 1.135h.187a3.972 3.972 0 003.588-2.43c.148-.353.244-.726.284-1.107a3.175 3.175 0 000-.516 3.968 3.968 0 00-1.186-2.811zm-.199 4.088a2.575 2.575 0 01-.517.744 2.838 2.838 0 01-4.831-1.465 2.656 2.656 0 01.017-1.13 2.833 2.833 0 012.713-2.214h.131a2.838 2.838 0 012.765 2.776v.176c-.01.387-.105.767-.278 1.113zm48.253 40.662a3.406 3.406 0 100-6.812 3.406 3.406 0 000 6.812z" fill="#6C63FF"/><path d="M409.209 188.606c.003.15.02.301.051.448-.386 0-.772 0-1.135.029a17.34 17.34 0 00-5.235 1.073c-4.956 1.867-8.72 5.881-12.149 9.839a226.74 226.74 0 00-11.872 14.903c-.755 1.033-1.499 2.078-2.271 3.123-4.048 5.643-8.227 11.468-13.626 16.033-7.261 6.148-15.993 8.8-23.363 7.091-8.823-2.044-15.142-9.856-19.684-16.431-.567-.846-1.169-1.703-1.748-2.572-4.219-6.245-8.579-12.7-15.006-16.464-8.465-4.968-20.166-4.111-27.819 2.027-3.685 2.986-6.524 7.051-9.243 10.98-.937 1.351-1.902 2.753-2.896 4.088-5.11 6.864-10.265 10.588-15.817 11.394a30.328 30.328 0 01-6.626 0 43.555 43.555 0 00-4.468-.176 21.41 21.41 0 00-18.616 12.559l-1.045-.454a22.592 22.592 0 0119.627-13.24 42.31 42.31 0 014.587.181c2.119.23 4.257.23 6.376 0 5.24-.755 10.168-4.337 15.068-10.946.982-1.323 1.942-2.714 2.873-4.059 2.765-3.974 5.626-8.125 9.487-11.224a26.174 26.174 0 0129.103-2.118c6.654 3.9 11.088 10.463 15.38 16.817.568.851 1.135 1.703 1.743 2.56 4.4 6.404 10.532 14.006 18.997 15.965 7.017 1.63 15.38-.931 22.369-6.853 5.274-4.468 9.425-10.219 13.427-15.828.744-1.045 1.499-2.09 2.271-3.129a243.162 243.162 0 0111.923-14.982c3.526-4.066 7.381-8.193 12.61-10.152a18.581 18.581 0 015.643-1.135c.38 0 .772-.034 1.135 0-.043.214-.06.434-.051.653zm53.851 38.958c-6.659 2.487-13.699-1.226-17.708-5.166-3.452-3.407-5.955-7.602-8.374-11.679-.766-1.283-1.561-2.617-2.368-3.894-4.218-6.694-8.431-11.191-13.256-14.16a25.319 25.319 0 00-5.638-2.572 14.634 14.634 0 00-1.136-.318c.173-.344.268-.722.279-1.107.374.097.743.204 1.135.318a26.3 26.3 0 015.944 2.714c4.985 3.06 9.311 7.67 13.626 14.517.812 1.295 1.607 2.629 2.385 3.929 2.384 4.008 4.848 8.158 8.192 11.44 3.765 3.702 10.356 7.216 16.516 4.917l.403 1.061z" fill="#6C63FF"/><path opacity=".5" d="M202.531 173.611l-10.557-.269a.511.511 0 00-.524.498l-.104 4.087a.51.51 0 00.498.523l10.556.27a.51.51 0 00.524-.498l.104-4.087a.51.51 0 00-.497-.524z" fill="#6C63FF"/><path d="M201.904 198.012l-10.557-.269a.511.511 0 00-.524.498l-.104 4.086a.511.511 0 00.498.524l10.556.269a.51.51 0 00.524-.498l.104-4.086a.51.51 0 00-.497-.524z" fill="#6C63FF"/><path opacity=".5" d="M201.282 222.424l-10.557-.269a.512.512 0 00-.524.498l-.104 4.086a.51.51 0 00.498.524l10.557.269a.51.51 0 00.523-.497l.105-4.087a.511.511 0 00-.498-.524zm-.622 24.401l-10.556-.269a.51.51 0 00-.524.498l-.104 4.086a.51.51 0 00.497.524l10.557.269a.511.511 0 00.524-.498l.104-4.086a.511.511 0 00-.498-.524zm-.621 24.407l-10.557-.27a.511.511 0 00-.524.498l-.104 4.087a.512.512 0 00.498.524l10.556.269a.51.51 0 00.524-.498l.104-4.087a.51.51 0 00-.497-.523zM221.519 282l-10.557-.269a.512.512 0 00-.524.498l-.104 4.087a.51.51 0 00.498.523l10.557.27a.512.512 0 00.524-.498l.104-4.087a.512.512 0 00-.498-.524zm36.04.918l-10.557-.269a.511.511 0 00-.524.498l-.104 4.087a.51.51 0 00.498.523l10.557.27a.51.51 0 00.523-.498l.104-4.087a.51.51 0 00-.497-.524z" fill="#6C63FF"/><path d="M292.561 285.418l-10.56-.317a.512.512 0 00-.527.495l-.122 4.088a.51.51 0 00.495.526l10.56.317a.51.51 0 00.527-.495l.122-4.088a.51.51 0 00-.495-.526z" fill="#6C63FF"/><path opacity=".5" d="M328.793 284.733l-10.557-.269a.511.511 0 00-.524.498l-.104 4.086a.511.511 0 00.498.524l10.557.269a.512.512 0 00.524-.498l.104-4.086a.51.51 0 00-.498-.524zm34.162.876l-10.557-.269a.51.51 0 00-.524.497l-.104 4.087a.512.512 0 00.498.524l10.557.269a.512.512 0 00.524-.498l.104-4.087a.51.51 0 00-.498-.523z" fill="#6C63FF"/><path d="M394.979 286.419l-10.557-.269a.51.51 0 00-.524.497l-.104 4.087a.512.512 0 00.498.524l10.557.269a.512.512 0 00.524-.498l.104-4.087a.51.51 0 00-.498-.523zm33.765.86l-10.557-.269a.51.51 0 00-.524.497l-.104 4.087a.511.511 0 00.498.524l10.557.269a.512.512 0 00.524-.498l.104-4.086a.51.51 0 00-.498-.524zm36.292 3.317l-10.004-.3a.79.79 0 00-.813.766l-.106 3.531a.79.79 0 00.766.813l10.003.3a.79.79 0 00.813-.766l.106-3.531a.79.79 0 00-.765-.813zm91.85 53.169a5.62 5.62 0 014.958 8.27 5.624 5.624 0 01-6.589 2.73 5.628 5.628 0 01-3.042-2.256 5.618 5.618 0 01.699-7.097 5.603 5.603 0 013.974-1.647zm0-.874a6.502 6.502 0 00-6.375 7.773 6.5 6.5 0 0012.876-1.284 6.502 6.502 0 00-4.015-5.997 6.484 6.484 0 00-2.486-.492z" fill="#6C63FF"/><path d="M555.143 351.299l.341-.454c.332.326.777.511 1.243.517.568 0 1.016-.29 1.016-.75s-.414-.829-1.561-.829v-.522c1.022 0 1.408-.341 1.408-.783 0-.443-.346-.653-.852-.653a1.66 1.66 0 00-1.073.437l-.363-.437a2.27 2.27 0 011.465-.568c.88 0 1.533.426 1.533 1.169 0 .523-.381.869-.937 1.056v.029a1.222 1.222 0 011.09 1.135c0 .807-.761 1.295-1.669 1.295a2.196 2.196 0 01-1.641-.642z" fill="#6C63FF"/><path d="M583.735 344.146a5.623 5.623 0 015.513 4.523 5.627 5.627 0 01-.555 3.747 5.623 5.623 0 01-9.631.473 5.618 5.618 0 01.699-7.097 5.592 5.592 0 013.974-1.646zm0-.875a6.504 6.504 0 00-6.006 4.013 6.5 6.5 0 1012.507 2.488 6.5 6.5 0 00-4.012-6.007 6.504 6.504 0 00-2.489-.494z" fill="#5A5773"/><path d="M583.82 349.091c0-.279 0-.631.04-.909h-.04c-.159.244-.341.489-.5.733l-1.135 1.481h3.071v.597h-3.866v-.477l2.305-3.032h.846v4.826h-.704l-.017-3.219zm-14.898-3.032a.6.6 0 01.835 0l2.929 2.941a.564.564 0 010 .817l-2.884 2.896a.574.574 0 01-.42.186.572.572 0 01-.42-.186.555.555 0 01-.135-.19.554.554 0 010-.455.564.564 0 01.135-.19l2.475-2.498-2.515-2.486a.588.588 0 01-.186-.421.564.564 0 01.186-.42v.006z" fill="#5A5773"/><path d="M563.926 349.38a6.388 6.388 0 1012.775.022 6.388 6.388 0 00-12.775-.022zm.982 0a5.41 5.41 0 111.585 3.816 5.36 5.36 0 01-1.585-3.816z" fill="#5A5773"/><path opacity=".2" d="M221.12 107.333H96.489c-1.21 0-2.192.981-2.192 2.191v9.158c0 1.21.981 2.191 2.192 2.191H221.12a2.191 2.191 0 002.192-2.191v-9.158c0-1.21-.981-2.191-2.192-2.191z" fill="#5A5773"/><path d="M401.505 429.864c-.942-3.406-1.556-6.415-1.556-6.415s.04-3.748-1.748-6.501l-.034-.937-.267-6.926a23.431 23.431 0 011.607-3.696c1.169-2.226-.387-10.152-.387-10.152s-5.058-11.065-4.207-18.242c.852-7.176-10.707-31.311-10.707-31.311a30.961 30.961 0 01.726-7.045c.09-.487.117-.983.08-1.477v-.181.056c-.335-4.695-4.394-13.37-4.394-13.37l-.148-16.822s1.993-10.004-2.396-23.153c-1.527-4.587-2.538-8.266-3.196-11.117-.074-.318-.148-.63-.21-.925a1144.866 1144.866 0 0013.972-2.771s-5.365-19.161-8.619-22.426c-3.253-3.264-6.16-13.802-6.16-13.802s-2.151-13.597.318-17.691c2.47-4.093 2.584-10.991 2.584-10.991s5.825-4.588 6.5-6.546c.676-1.959 1.755-6.365 1.669-8.664-.085-2.299-.919-4.321-.715-5.541.204-1.221-1.97-5.735-1.056-7.949a5.988 5.988 0 00.318-2.112v-.091a29.475 29.475 0 00-.744-5.649 16.039 16.039 0 00-6.052-2.946l-.153-.511-.398-1.369a7.523 7.523 0 00-.601-.329l-.035-.494-.13-1.958.766-4.429c1.545-7.75-8.737-8.516-8.737-8.516a5.368 5.368 0 00-3.004-2.43c-2.089-.647.103 11.559 1.096 12.303.744.568 3.134 4.326 4.287 6.177l.181.301c-.16.161-.31.331-.448.511l.494 2.651.074.403a11.202 11.202 0 00-1.528 2.839s1.953 1.987 1.669 4.298c-.283 2.311.773 5.138.824 5.291-.114-.124-1.488-1.498-2.788-1.101-1.3.397-4.939 1.641-4.939 1.641s-2.731.568-2.459 1.186c.273.619-1.748 3.339-1.748 3.339l-7.654-6.717c-.079-.204-.164-.408-.238-.624-.345-.988-.6-2.004-.761-3.038a17.297 17.297 0 002.334-.846 5.11 5.11 0 001.992-1.385c.71-.914.807-2.118 1.068-3.23.499-2.169 1.703-4.134 2.504-6.212a19.909 19.909 0 001.044-10.985 7.276 7.276 0 00-1.255-3.168c-1.271-1.613-3.48-2.203-5.109-3.464-1.63-1.26-2.748-3.242-4.639-4.167-1.703-.829-3.747-.647-5.62-.261a30.15 30.15 0 00-10.356 4.195c-1.051.676-2.203 1.46-3.452 1.284-1.067-.154-1.879-.971-2.595-1.755 0-.034 0-.068.029-.102l-.085-.096a13 13 0 00-.932 5.569c0 .295.023.591.069.886 0 .102 0 .204.028.306.006.085.006.171 0 .256.004.132-.01.263-.04.392a2.857 2.857 0 01-.653 1.027 5.871 5.871 0 00-.567.841c0-.103.056-.205.09-.301a4.362 4.362 0 00-.675 2.356 2.309 2.309 0 00.619 1.641c.383.347.8.657 1.243.925a13.692 13.692 0 00-.125 2.47 14.261 14.261 0 007.426 11.922l.273.625c1.039 2.447 1.862 5.314 1.652 7.999 0 .199-.04.392-.068.568-.091.102-.176.21-.256.318 0 0-12.189.568-15.159-1.902-2.969-2.47-7 6.626-7 6.626s-4.337 1.016-5.24.204c-.903-.812-6.001.108-6.001.108a11.043 11.043 0 00-7.727-2.487 22.502 22.502 0 00-5.706-2.895l-.136-.046a6.288 6.288 0 00-2.765-.244s-6.183-4.723-8.034-7.318c-1.851-2.595-10.56-12.138-10.6-12.178l-.04-.483-.147-1.43a5.811 5.811 0 01-.744.09 27.411 27.411 0 00-2.112-4.468s-.068-1.817.443-2.271c.511-.454-.494-7.097-.494-7.097s-5.888-12.422-10.367-2.804c0 0-8.914 6.455-.96 13.262 0 0 3.123 1.363 3.6 2.521.312.755 1.436 2.839 2.191 4.235l.335.625-.085.074.159 1.181.063.46c-1.414.88-2.362 1.731-2.101 2.333.466 1.031.802 2.116.999 3.23 0 0 11.128 12.894 12.723 18.52 0 0 29.126 15.829 38.539 16.681l-1.294 8.516s-.307 5.11-.114 6.904c.193 1.794-.738 10.077-.738 10.077s-1.135 12.156-2.464 13.899c-1.329 1.743-.784 8.987-.784 8.987a60.83 60.83 0 01-1.476 10.35c-1.198 4.644 0 10.288 0 10.288s-4.326 11.065 6.751 3.253c0 0 5.569-.568 11.985-1.028v.642c0 .829.034 1.703.062 2.668.154 6.246.449 14.824.977 21.308.942 11.463 5.314 34.065 5.314 34.065l.437 11.417a15.492 15.492 0 00-.198 3.276 21.2 21.2 0 003.514 11.31l1.169 7.585s2.271 4.933 2.396 7.948c.003.245-.016.491-.056.732a5.209 5.209 0 00-.057 1.17c0 3.463 2.418 11.656 2.418 11.656s.449 8.334 1.704 8.772c1.084.374-1.244 4.86-1.936 6.154 0-.079-.04-.159-.057-.238l-.142.255a5.847 5.847 0 00-.312 2.123 3.041 3.041 0 00.332 1.657c.266.509.67.933 1.167 1.222 2.429 1.362 3.752 2.521 1.754 3.083-.736.151-1.464.341-2.18.567l-.114-.272a1.327 1.327 0 00-.721 1.431c-.034.607.205 1.493.852 2.799 2.169 4.394 3.622 6.035 3.622 6.035l.954-.148a4.767 4.767 0 01-.517 1.056c-.343.539-.81.986-1.362 1.306a4.351 4.351 0 01-1.704.653 4.817 4.817 0 00-3.474 1.856c-1.181 1.658-1.88 3.884.658 5.718l9.05 2.736s15.437 1.408 14.489-2.01c-.948-3.417-1.556-6.415-1.556-6.415a13.693 13.693 0 00-1.481-6.064 7.021 7.021 0 00-.568-.88l.539-.085s.835-7.659 2.271-9.163c.33-.352.398-.608.312-.806.137-.421-.261-.648-.772-.767-.034.102-.068.199-.096.307a7.209 7.209 0 00-1.459-.103s-.653-3.974.914-5.484a1.52 1.52 0 00.267-1.198 6.506 6.506 0 00-.227-1.618s-.035.062-.057.097c-.96-3.589-3.946-9.238-3.946-9.238s-.261-3.622.681-5.109c.943-1.488-.885-19.701-.885-19.701s.034-8.84-1.25-12.905c-1.283-4.065 1.005-8.999 1.005-8.999s0-.097-.039-.261a.295.295 0 00.028-.063s-.074-.567-.199-1.385v.085c-.34-2.327-.982-6.54-1.408-8.482-.607-2.759-.494-16.084-.494-16.084l2.033-5.768 4.372 9.651 4.746 12.894s2.214 2.674 2.367 5.467v1.283a7.775 7.775 0 001.477 4.605s1.362 6.12 3.168 7.625c1.805 1.504 1.93 4.542 1.93 4.542s2.464 8.862 3.526 10.395c.891 1.294 1.078 4.934 1.135 6.046v.324s.42 3.185.511 5.876v.886a9.486 9.486 0 01-.176 2.186c0 .034 0 .079-.034.125v-.454a22.902 22.902 0 00-.426 5.597c.068 3.22.704 7.006 2.737 9.17 3.52 3.741 5.626 3.173 5.626 3.173s-1.436 4.9-3.406 5.945a.962.962 0 00-.205.142c0-.091-.045-.188-.062-.279a2.355 2.355 0 00-.517 1.823c-.062 2.135 1.414 5.535 2.748 7.074a4.013 4.013 0 001.703.92c-.097.074-.2.143-.306.204a5.937 5.937 0 01-.676.352c-.318.156-.659.26-1.01.307a4.77 4.77 0 00-3.469 1.856c-1.181 1.652-1.885 3.878.652 5.712l9.056 2.736s15.437 1.38 14.489-2.038z" fill="url(#paint1_linear)"/><path d="M343.05 437.835l-8.761-2.725c-2.458-1.839-1.788-4.065-.641-5.717a4.606 4.606 0 013.355-1.857 4.054 4.054 0 001.63-.647 3.89 3.89 0 001.323-1.306 6.436 6.436 0 00.857-3.378s9.385-3.145 12.087-.465a6.973 6.973 0 011.215 1.64 14.084 14.084 0 011.448 6.053s.596 2.997 1.516 6.415-14.029 1.987-14.029 1.987zm42.166-5.887l-8.766-2.748c-2.458-1.84-1.782-4.065-.641-5.717a4.566 4.566 0 013.355-1.851c.341-.047.671-.151.977-.307.227-.1.447-.216.658-.346 2.368-1.425 2.175-4.684 2.175-4.684s9.385-3.145 12.093-.466c.361.363.681.765.954 1.198 1.737 2.754 1.703 6.512 1.703 6.512s.602 3.004 1.516 6.416c.914 3.412-14.024 1.993-14.024 1.993z" fill="#2D293D"/><path opacity=".1" d="M352.9 421.717a6.958 6.958 0 011.215 1.641l-14.159 2.197a6.44 6.44 0 00.857-3.378s9.385-3.14 12.087-.46zm43.104-4.69l.102 2.663c-2.067 3.73-12.803 3.344-15.982 1.635.227-.1.447-.216.658-.346 2.368-1.425 2.175-4.684 2.175-4.684s9.385-3.145 12.093-.466c.361.363.681.765.954 1.198z" fill="#000"/><path d="M397.253 405.485a23.725 23.725 0 00-1.55 3.69l.369 9.55c-2.271 4.082-14.892 3.236-16.669 1.135-1.777-2.1-3.804-7.721-1.908-8.766 1.896-1.044 3.282-5.933 3.282-5.933s-2.038.568-5.451-3.179c-3.412-3.747-2.776-12.365-2.271-14.443.506-2.078-.352-8.948-.352-8.948s-.062-4.837-1.09-6.37c-1.027-1.533-3.406-10.401-3.406-10.401s-.114-3.026-1.868-4.542-3.077-7.631-3.077-7.631a7.944 7.944 0 01-1.408-5.149c.244-3.038-2.3-6.211-2.3-6.211l-4.61-12.894-4.246-9.652-1.959 5.769s-.091 13.319.499 16.078c.591 2.759 1.601 10.112 1.601 10.112s-2.236 4.928-.987 8.993 1.22 12.91 1.22 12.91 1.794 18.214.88 19.701c-.914 1.488-.647 5.11-.647 5.11s5.365 10.447 3.849 11.957c-1.516 1.51-.88 5.479-.88 5.479s3.407-.131 1.987 1.379c-1.419 1.51-2.185 9.164-2.185 9.164l-14.552 2.271s-1.408-1.641-3.514-6.041.21-4.003 2.135-4.542c1.924-.54.653-1.703-1.704-3.083-2.356-1.38-1.135-4.678-1.135-4.678s3.276-6.058 2.049-6.495c-1.226-.438-1.669-8.772-1.669-8.772s-2.799-9.822-2.271-12.49c.528-2.669-2.271-8.994-2.271-8.994l-1.135-7.585c-4.69-7.363-3.27-14.307-3.27-14.307l-.455-11.73s-4.258-22.596-5.183-34.064c-.568-7.347-.892-17.385-1.028-23.653-.079-3.52-.108-5.848-.108-5.848l52.017-7.448s.04 2.413 1.244 7.721c.641 2.839 1.623 6.529 3.111 11.122 4.258 13.149 2.345 23.153 2.345 23.153l.164 16.822s5.025 11.066 4.207 14.972a32.252 32.252 0 00-.675 7.04s11.219 24.146 10.407 31.322c-.812 7.177 4.087 18.242 4.087 18.242s1.505 7.932.381 10.157z" fill="#575988"/><path opacity=".05" d="M364.971 343.652l15.817-2.731s-8.63 9.538-15.817 2.731z" fill="#000"/><path opacity=".1" d="M377.893 325.478s.76 5.598-2.606 7.846c0 0 6.131-1.203 2.606-7.846zm-1.664-17.856s-12.871 11.452-17.736 10.731c-4.866-.721 17.736-10.731 17.736-10.731zm-30.755 41.923s-10.015 2.674-10.162 6.745c-.148 4.071 10.162-6.745 10.162-6.745z" fill="#000"/><path opacity=".05" d="M349.624 399.87s-14.159 3.208-10.043 4.866c4.116 1.657 10.827 2.838 10.827 2.838s4.599.08-.784-7.704zm-12.814 7.852a2.844 2.844 0 01-1.38-2.016l-.136.262s-1.209 3.315 1.136 4.678c.272.153.522.306.766.46.415-.097.874-.171 1.306-.301 1.942-.557.664-1.72-1.692-3.083zm18.316-1.669c.38-.381.329-1.306.045-2.493-.607.965-.71 2.425-.675 3.532.13-.389.346-.744.63-1.039zm-4.485-60.079a16.449 16.449 0 00-.795 4.479c.233-1.061.564-2.099.988-3.1 0 0-.074-.516-.193-1.379zm32.412-7.585c.081-.438.109-.884.085-1.329a33.648 33.648 0 00-.301 2.493c.063-.392.137-.767.216-1.164zm-31.101 50.592c.182-.301.255-1.306.255-2.697a9.156 9.156 0 00-.567 3.406c.075-.248.18-.486.312-.709zm3.872 22.681c-.891 2.759-1.38 7.489-1.38 7.489l-14.551 2.271s-1.408-1.641-3.503-6.053a14.104 14.104 0 01-.454-1.05c-.858.437-1.17 1.357.085 3.974 2.106 4.4 3.509 6.041 3.509 6.041l14.551-2.271s.795-7.659 2.192-9.169c.675-.727.204-1.062-.449-1.232zm-20.149-20.967s.443 8.34 1.669 8.778c.568-1.408.914-2.731.363-2.924-1.226-.437-1.669-8.778-1.669-8.778s-2.799-9.816-2.271-12.49c.528-2.674-2.271-8.993-2.271-8.993l-1.135-7.58c-4.639-7.329-3.214-14.284-3.214-14.284l-.454-11.724s-4.258-22.596-5.184-34.065c-.567-7.341-.891-17.384-1.027-23.652 0-1.136-.046-2.135-.063-2.981l-.414.057s0 2.328.102 5.848c.142 6.245.437 16.305 1.033 23.646.926 11.469 5.184 34.065 5.184 34.065l.414 11.718s-1.425 6.955 3.214 14.285l1.135 7.585s2.788 6.308 2.271 8.987c-.516 2.68 2.317 12.502 2.317 12.502zm44.097 25.906a14.005 14.005 0 01-2.538-5.649c-1.442 1.403.477 6.564 2.163 8.573 1.777 2.112 14.398 2.958 16.663-1.135l-.09-2.305c-3.14 3.378-14.523 2.515-16.198.516zm17.844-14.364a23.736 23.736 0 00-1.55 3.691l.062 1.703c.25-.63.614-1.47 1.136-2.47a7.375 7.375 0 00.414-3.014c-.034.034-.045.062-.062.09zm-17.555 2.584a23.85 23.85 0 001.079-2.918s-2.038.567-5.45-3.18c-2.482-2.725-2.839-8.033-2.618-11.519-.528 2.078-1.164 10.696 2.271 14.437 2.209 2.447 3.85 3.055 4.718 3.18zm-7.335-26.565c.302 2.373.474 4.761.517 7.154.044-.383.112-.762.204-1.136.528-2.078-.352-8.942-.352-8.942s-.062-4.843-1.09-6.376c-1.028-1.533-3.407-10.401-3.407-10.401s-.113-3.02-1.867-4.542c-1.755-1.522-3.089-7.613-3.089-7.613a7.909 7.909 0 01-1.408-5.15c.244-3.037-2.271-6.205-2.271-6.205l-4.65-12.917-4.247-9.651-1.958 5.791v1.839l1.589-4.684 4.247 9.652 4.616 12.899s2.543 3.174 2.271 6.206a7.95 7.95 0 001.408 5.155s1.328 6.12 3.077 7.63c1.749 1.511 1.874 4.542 1.874 4.542s2.396 8.869 3.406 10.401c1.011 1.533 1.13 6.348 1.13 6.348z" fill="#000"/><path d="M374.316 155.455l-.738 4.451.13 1.959.091 1.447-5.019.716-.607-1.022c-1.136-1.851-3.435-5.615-4.156-6.183-.965-.744-3.1-12.95-1.073-12.303a5.304 5.304 0 012.907 2.436s9.952.755 8.465 8.499z" fill="#FFCDD3"/><path opacity=".1" d="M373.799 163.312l-5.019.716-.607-1.022a4.454 4.454 0 015.535-1.136l.091 1.442z" fill="#000"/><path d="M375.167 165.657l-6.591 1.794-.182-.982-.477-2.651s2.498-3.611 6.404-1.136l.386 1.346.46 1.629z" fill="#DCE6F2"/><path d="M267.046 160.065l-6.95 4.088s-.295-.568-.698-1.317c-.727-1.391-1.817-3.486-2.123-4.236-.466-1.135-3.486-2.532-3.486-2.532-7.705-6.813.914-13.257.914-13.257 4.32-9.612 10.037 2.839 10.037 2.839s.977 6.625.483 7.097c-.494.471-.426 2.271-.426 2.271a26.603 26.603 0 011.868 3.974 25.2 25.2 0 01.381 1.073z" fill="#FFCDD3"/><path opacity=".1" d="M267.045 160.065l-6.949 4.088s-.295-.568-.698-1.317c.971-.875 4.411-3.895 5.587-3.81a8.972 8.972 0 001.703 0c.227.63.357 1.039.357 1.039z" fill="#000"/><path d="M267.852 162.188l-7.824 4.236-.227-1.704-.159-1.18s4.474-4.139 5.842-4.043a7.282 7.282 0 002.084-.085l.147 1.436.137 1.34z" fill="#DCE6F2"/><path d="M356.102 185.517s-34.632 5.263-28.217 2.901c4.468-1.646 6.16-4.593 6.41-7.801.205-2.685-.568-5.552-1.601-7.999a34.65 34.65 0 00-3.355-6.166s26.031-15.653 21.245-2.157a21.165 21.165 0 00-1.266 6.358c-.082 2.157.232 4.31.925 6.354a19.011 19.011 0 005.859 8.51z" fill="#FFCDD3"/><path opacity=".1" d="M350.584 164.295a21.165 21.165 0 00-1.266 6.358c-2.424 2.203-5.178 2.169-8.704 2.306-2.713.102-5.677.874-7.903-.347a34.655 34.655 0 00-3.355-6.166s26.014-15.647 21.228-2.151z" fill="#000"/><path d="M339.604 173.912c7.951 0 14.398-6.446 14.398-14.398s-6.447-14.398-14.398-14.398c-7.952 0-14.398 6.446-14.398 14.398s6.446 14.398 14.398 14.398z" fill="#FFCDD3"/><path opacity=".1" d="M356.102 185.517s-34.632 5.263-28.217 2.901c4.468-1.646 6.16-4.593 6.41-7.801 1.664-1.941 5.11-3.406 7.296-4.235a10.45 10.45 0 016.302-.346 8.71 8.71 0 012.333.976 18.996 18.996 0 005.876 8.505zm19.065-19.86l-6.591 1.794-.182-.982a5.886 5.886 0 016.313-2.435l.46 1.623zm-107.315-3.469l-7.824 4.236-.227-1.704c2.788-1.794 7.506-3.707 7.914-3.872l.137 1.34zm105.385 110.461c-13.387 2.646-32.458 6.155-35.535 5.343-2.555-.67-10.612-.278-17.6.233-.08-3.521-.108-5.848-.108-5.848l52.017-7.449s.022 2.413 1.226 7.721z" fill="#000"/><path d="M386.556 268.97s-44.074 9.323-48.894 8.057c-4.82-1.267-29.199 1.243-29.199 1.243-10.719 7.795-6.541-3.259-6.541-3.259s-1.186-5.643-.034-10.288a63.025 63.025 0 001.42-10.344s-.523-7.244.743-8.987c1.266-1.743 2.368-13.893 2.368-13.893s.891-8.272.704-10.078c-.188-1.805.096-6.903.096-6.903l1.244-8.517c-9.084-.863-37.324-16.725-37.324-16.725-1.55-5.632-12.337-18.532-12.337-18.532a13.765 13.765 0 00-.971-3.23c-.801-1.908 9.93-6.194 9.93-6.194s8.482 9.6 10.276 12.195c1.794 2.595 7.79 7.324 7.79 7.324a5.974 5.974 0 012.674.25.787.787 0 01.142.039 21.754 21.754 0 015.535 2.902c4.338-.409 7.477 2.498 7.477 2.498s4.928-.914 5.808-.103c.88.812 5.076-.193 5.076-.193s3.889-9.112 6.768-6.619c2.878 2.492 14.676 1.918 14.676 1.918 1.493-2.151 5.257-3.798 7.619-4.661a10.45 10.45 0 016.302-.346c.905.23 1.763.615 2.538 1.135l7.426 6.734s1.953-2.737 1.703-3.333c-.249-.596 2.379-1.181 2.379-1.181s3.463-1.226 4.781-1.635c1.317-.409 2.589.977 2.696 1.102-.045-.154-1.067-3.043-.8-5.292.267-2.248-1.618-4.298-1.618-4.298 3.832-10.56 13.717-2.219 13.717-2.219s1.305 5.637.42 7.851c-.886 2.215 1.226 6.734 1.033 7.949-.193 1.215.607 3.247.698 5.541.091 2.294-.965 6.643-1.635 8.624-.67 1.982-6.245 6.535-6.245 6.535s-.097 6.904-2.481 10.986c-2.385 4.082-.29 17.691-.29 17.691s2.839 10.543 5.979 13.813c3.139 3.27 8.351 22.443 8.351 22.443z" fill="#656691"/><path opacity=".1" d="M318.818 191.916s-1.482-3.941-2.708-4.253a28.76 28.76 0 01-3.565-1.436l.721-1.522s4.593 1.073 5.365 2.373c.772 1.301.187 4.838.187 4.838zm-24.634-7.892c-.199 1.221-10.912 2.719-10.912 2.719l5.229-5.677.136.045c1.98.699 3.848 1.68 5.547 2.913z" fill="#000"/><path d="M262.413 169.597a.965.965 0 100-1.93.965.965 0 000 1.93zm1.311 1.885a.965.965 0 100-1.93.965.965 0 000 1.93zm1.278 1.738a.965.965 0 100-1.93.965.965 0 000 1.93zm1.345 1.885a.966.966 0 10-.002-1.932.966.966 0 00.002 1.932zm113.947-4.667a.79.79 0 100-1.579.79.79 0 000 1.579zm.188 1.777a.79.79 0 10-.002-1.58.79.79 0 00.002 1.58zm.175 1.777a.79.79 0 100-1.58.79.79 0 000 1.58z" fill="#575988"/><path opacity=".1" d="M320.141 224.675c-.119-.142 28.456 33.224 48.826 12.524.023 0-33.23 5.82-48.826-12.524zm-14.977 18.491s16.323-.182 18.208 4.44l.187 4.882a3.114 3.114 0 01-3.032.12c-1.703-.829-11.729-5.456-15.113-2.913l-.25-6.529z" fill="#000"/><path d="M305.476 243.155s15.613-.176 17.413 4.235l.182 4.65a2.99 2.99 0 01-2.901.114c-1.607-.784-11.219-5.201-14.455-2.771l-.239-6.228z" fill="#656691"/><path opacity=".1" d="M312.709 207.443a52.615 52.615 0 006.745 10.6 42.456 42.456 0 0010.271 9.186s-16.652-17.583-17.016-19.786zm-6.063-18.769s3.174 11.639 10.339 15.357l-10.339-15.357zm-4.122 1.345c-.079-.215-2.061 9.379 9.595 14.194 0 .006-4.928-1.459-9.595-14.194zm70.9-10.617c-.181 0 5.797 3.498 7.443 5.161 0 0-4.008-5.507-7.443-5.161z" fill="#000"/><path d="M336.22 172.709c.233.732.517 1.533 1.198 1.896.429.192.899.278 1.368.25 4.394.108 8.965.125 12.956-1.704a4.885 4.885 0 001.93-1.39c.687-.909.778-2.113 1.028-3.225.483-2.169 1.624-4.133 2.419-6.211a20.515 20.515 0 00.999-11.026 7.371 7.371 0 00-1.221-3.168c-1.226-1.618-3.372-2.209-4.962-3.469-1.59-1.26-2.657-3.248-4.491-4.173-1.652-.835-3.628-.653-5.439-.273a28.542 28.542 0 00-9.986 4.207c-1.017.676-2.13 1.46-3.339 1.278-1.061-.153-1.856-1.011-2.566-1.811a13.42 13.42 0 00-.835 6.307 2.8 2.8 0 010 .949c-.135.381-.35.729-.63 1.022-1.033 1.3-1.635 3.31-.516 4.542.488.533 1.215.806 1.703 1.351.851.982.636 2.447.664 3.741-.029.451.101.897.369 1.261.242.208.534.35.848.412.313.063.637.044.94-.055a4.812 4.812 0 011.885-.255c.69.194 1.291.619 1.704 1.203 2.106 2.47 3.009 5.269 3.974 8.341z" fill="#2D293D"/><path opacity=".1" d="M354.11 170.619a4.867 4.867 0 01-1.925 1.386c-3.974 1.845-8.562 1.828-12.962 1.703a3.033 3.033 0 01-1.368-.25c-.676-.363-.965-1.169-1.198-1.902-.965-3.066-1.868-5.87-3.974-8.368a3.139 3.139 0 00-1.703-1.198 4.902 4.902 0 00-1.885.249 1.864 1.864 0 01-1.794-.352 1.955 1.955 0 01-.369-1.266c-.029-1.294.187-2.759-.659-3.735-.477-.568-1.204-.818-1.703-1.357a2.836 2.836 0 01-.386-2.873c-.721 1.249-.994 2.839-.057 3.86.483.534 1.215.807 1.703 1.357.852.977.636 2.442.664 3.736-.029.451.102.897.369 1.261a1.86 1.86 0 001.789.357 4.906 4.906 0 011.885-.255c.689.194 1.29.619 1.703 1.203 2.129 2.499 3.026 5.297 3.974 8.369.233.732.517 1.533 1.198 1.902.43.189.899.275 1.369.25 4.394.102 8.964.119 12.956-1.703a4.944 4.944 0 001.93-1.386 4 4 0 00.568-1.192c-.034.068-.074.125-.125.204zm-28.797-19.888c.187-.216.327-.47.409-.744.057-.311.057-.63 0-.942a13.336 13.336 0 01.471-5.229l-.085-.097a13.439 13.439 0 00-.834 6.308c.035.233.049.469.039.704zm8.676 30.795s18.06 1.703 19.576-1.073l-19.576 1.073zm34.649-8.783s9.987-.369 12.326 3.287l-12.326-3.287z" fill="#000"/><path d="M586.999 362.438s3.367 4.401-1.555 11.049c-4.923 6.648-8.976 12.257-7.335 16.402 0 0 7.426-12.343 13.466-12.519 6.041-.176 2.073-7.517-4.576-14.932z" fill="#6C63FF"/><path opacity=".1" d="M586.999 362.438c.296.424.528.889.687 1.38 5.899 6.927 9.039 13.393 3.373 13.552-5.28.154-11.616 9.595-13.132 11.974.05.192.111.382.181.568 0 0 7.427-12.343 13.467-12.519 6.041-.176 2.073-7.54-4.576-14.955z" fill="#000"/><path d="M593.262 368.042c0 1.55-.176 2.805-.392 2.805-.216 0-.386-1.255-.386-2.805 0-1.55.216-.817.431-.817.216 0 .347-.733.347.817z" fill="#FFD037"/><path d="M595.408 369.893c-1.363.738-2.549 1.187-2.651.999-.103-.187.919-.942 2.271-1.703 1.351-.761.823-.204.931 0 .107.204.806-.04-.551.704z" fill="#FFD037"/><path d="M569.218 362.438s-3.367 4.401 1.55 11.049c4.916 6.648 8.981 12.257 7.341 16.402 0 0-7.426-12.343-13.467-12.519-6.041-.176-2.073-7.517 4.576-14.932z" fill="#6C63FF"/><path opacity=".1" d="M569.218 362.438a5.223 5.223 0 00-.687 1.38c-5.899 6.927-9.039 13.393-3.373 13.552 5.28.154 11.611 9.595 13.132 11.974-.05.192-.111.382-.181.568 0 0-7.426-12.343-13.467-12.519-6.041-.176-2.073-7.54 4.576-14.955z" fill="#000"/><path d="M562.956 368.042c0 1.55.176 2.805.391 2.805.216 0 .386-1.255.386-2.805 0-1.55-.215-.817-.431-.817s-.346-.733-.346.817z" fill="#FFD037"/><path d="M560.809 369.893c1.363.738 2.55 1.187 2.652.999.102-.187-.92-.942-2.271-1.703-1.352-.761-.829-.204-.931 0-.103.204-.812-.04.55.704z" fill="#FFD037"/><path opacity=".1" d="M578.103 423.562c19.441 0 35.2-2.417 35.2-5.399s-15.759-5.399-35.2-5.399c-19.441 0-35.2 2.417-35.2 5.399s15.759 5.399 35.2 5.399z" fill="#6C63FF"/><path d="M596.225 383.95l-.17 1.374-.233 1.942-.096.812-.239 1.942-.102.811-.238 1.936-2.691 22.086c-.245 1.97-3.464 3.509-7.347 3.509h-14.001c-3.889 0-7.102-1.539-7.341-3.509l-2.702-22.086-.233-1.936-.096-.811-.245-1.942-.096-.812-.238-1.942-.165-1.374c-.136-1.135 1.607-2.055 3.804-2.055h28.648c2.175 0 3.923.937 3.781 2.055z" fill="#65617D"/><path d="M596.055 385.324l-.238 1.942h-35.428l-.233-1.942h35.899zm-.335 2.748l-.233 1.948H560.73l-.239-1.948h35.229zm-.341 2.754l-.232 1.942h-34.082l-.239-1.942h34.553z" fill="#9D9CB5"/><path d="M96.692 453c39.629 0 71.755-5.15 71.755-11.503 0-6.352-32.126-11.502-71.755-11.502-39.628 0-71.753 5.15-71.753 11.502 0 6.353 32.125 11.503 71.754 11.503z" fill="#F2F2F2"/><path d="M144.082 235.254s1.071 8.025-1.606 11.235c-2.678 3.21-6.961 24.61-6.961 24.61v12.84s16.599-24.075 19.812-33.705c3.213-9.63 0-17.12 0-17.12l-11.245 2.14z" fill="#FFC1C7"/><path d="M142.476 195.663l.226.255a33.911 33.911 0 016.403 10.586c3.515 9.326 11.071 32.316 8.364 34.635-3.748 3.21-14.458 5.35-14.993 4.815-.535-.535-11.245-33.706-11.245-33.706l11.245-16.585zM125.073 423.04s12.851 2.675 13.387 0c.342-1.663.882-3.28 1.606-4.815 0 0 11.648.485 8.607 10.688a4.263 4.263 0 01-1.869 2.408c-2.774 1.696-9.309 5.696-12.628 7.769-2.495 1.558-6.08.394-8.638-.85a4.61 4.61 0 01-2.495-5.059l2.03-10.141zm-36.948 1.605s-12.852 2.675-13.387 0a21.395 21.395 0 00-1.606-4.815s-11.626.484-8.616 10.658a4.333 4.333 0 001.903 2.454c2.789 1.705 9.294 5.687 12.603 7.753 2.732 1.706 6.771.148 9.339-1.205a3.727 3.727 0 001.93-4.021l-2.166-10.824z" fill="#3F3D56"/><path d="M72.06 242.209s-1.07 8.025 1.607 11.235c2.677 3.21 6.961 15.515 6.961 15.515v12.84s-16.6-14.98-19.812-24.61c-3.213-9.63 0-17.12 0-17.12l11.245 2.14zm37.484-65.806c7.393 0 13.387-5.988 13.387-13.375s-5.994-13.375-13.387-13.375c-7.393 0-13.387 5.988-13.387 13.375s5.994 13.375 13.387 13.375z" fill="#FFC1C7"/><path d="M120.253 168.378s-3.748 17.12 0 19.26c3.749 2.14-22.49 0-22.49 0s5.891-14.445 3.213-19.26c-2.677-4.815 19.277 0 19.277 0z" fill="#FFC1C7"/><path d="M133.105 282.334s4.819 6.955 3.213 28.355c-1.607 21.4-3.213 43.87-3.213 43.87s11.781 67.411 8.032 69.016c-3.748 1.605-16.064 3.21-17.671 1.605-1.606-1.605-9.103-64.201-9.103-64.201l-6.961-51.36-10.71 58.85s-5.89 57.246-10.174 59.921c-3.062 1.912-9.135.544-12.348-.392a2.798 2.798 0 01-2.022-2.803c.393-9.003 2.155-44.531 6.338-66.356 4.82-25.145-4.819-75.435 3.749-76.505 8.567-1.07 50.87 0 50.87 0z" fill="#2F2E41"/><path d="M95.622 185.498s2.141-9.63 10.174-8.56c8.032 1.07 13.387.535 14.993 5.885 1.607 5.35 18.742 9.63 18.742 9.63s4.284.535 3.748 7.49c-.535 6.955-11.245 32.635-11.245 32.635s.536 21.401 3.213 31.031c2.677 9.63 2.677 21.4-3.213 24.075-5.89 2.675-42.838 12.305-51.406.535 0 0-4.82-17.12-1.606-24.075 3.213-6.955-.536-34.241-.536-34.241l-10.174-22.47s3.213-10.7 12.316-13.91a54.49 54.49 0 0014.994-8.025z" fill="#3F3D56"/><path d="M72.596 202.618l-4.284 4.815s-12.851 31.566-9.103 34.776c3.748 3.21 14.458 5.35 14.993 4.815.536-.535 9.64-27.821 9.64-27.821l-11.246-16.585z" fill="#3F3D56"/><path d="M125.073 155.003s-2.142 1.605-2.678 5.35c-.535 3.745-3.823-2.134-4.589 5.621-.765 7.754-13.617 13.104-18.436 9.359-4.82-3.745-12.852-27.285-1.607-31.03 11.245-3.745 22.49-3.21 24.632.535 2.142 3.745 2.678 10.165 2.678 10.165z" fill="#2F2E41"/><path opacity=".1" d="M114.593 165.974c.766-7.755 4.054-1.876 4.59-5.621.535-3.745 2.677-5.35 2.677-5.35s-.535-6.42-2.677-10.165c-1.025-1.792-4.137-2.847-8.332-3.052 5.788-.265 10.272.827 11.545 3.052 2.141 3.745 2.677 10.165 2.677 10.165s-2.142 1.605-2.677 5.35c-.536 3.745-3.824-2.134-4.59 5.621-.649 6.574-9.983 11.417-15.746 10.458 5.493-.754 11.996-5.01 12.533-10.458z" fill="#000"/><path d="M625.114 466.969c42.037 0 76.115-4.983 76.115-11.129s-34.078-11.129-76.115-11.129c-42.036 0-76.114 4.983-76.114 11.129s34.078 11.129 76.114 11.129z" fill="#F2F2F2"/><path d="M610.856 234.859a46.475 46.475 0 011.672 6.376c.3 1.615.476 3.41-.539 4.759 3.869-5.308 7.909-10.777 13.788-14.203a11.32 11.32 0 01-2.673-4.11 10.536 10.536 0 01-.607-4.746c.033-.32-4.826 1.353-5.198 1.543-1.705.865-3.267 1.94-4.93 2.866-.861.476-4.446 1.604-4.479 2.286 0 .439 1.424 1.78 1.692 2.241a16.47 16.47 0 011.274 2.988z" fill="#FBBEBE"/><path d="M628.836 435.076a6.886 6.886 0 00-3.241-1.061 7.014 7.014 0 00-3.378.604c-1.893.892-3.167 2.58-4.888 3.723-2.959 1.959-6.865 2.115-10.329 3.175-.919.282-1.897.701-2.286 1.524a2.496 2.496 0 00.172 2.123c.579 1.177 1.593 2.131 2.866 2.694 1.554.678 3.343.709 5.064.728l14.958.16c4.596.05 9.222.099 13.789.621 1.065.122 2.218.256 3.158-.221 1.53-.762 1.705-2.69 1.588-4.28a36.38 36.38 0 00-2.925-11.737c-.179-.416-.417-.888-.923-.964a1.605 1.605 0 00-.994.289c-4.221 2.287-9.565 3.579-14.052 1.749" fill="#2E2E2E"/><path d="M636.323 348.035c-1.671 8.853-.581 17.95 1.299 26.764a43.403 43.403 0 001.367 5.198c.672 1.944 1.579 3.811 2.21 5.766 1.604 4.954 1.379 10.252 1.141 15.423l-1.095 23.532c-.092 1.974-.176 3.994.476 5.877.263.762.585 1.715-.079 2.229-.26.17-.564.277-.882.309-2.99.502-6.078.08-8.774-1.201l-.297-23.772c-.092-7.329-.188-14.687-1.425-21.924-.982-5.755-2.686-11.433-2.799-17.256-.117-6.097 1.521-12.115 3.192-18.026.359-1.265 1.671-2.191 2.749-3.048a3.462 3.462 0 011.337-.74c.502-.125 1.271.484 1.58.869z" fill="#3F3D56"/><path opacity=".1" d="M636.323 348.035c-1.671 8.853-.581 17.95 1.299 26.764a43.403 43.403 0 001.367 5.198c.672 1.944 1.579 3.811 2.21 5.766 1.604 4.954 1.379 10.252 1.141 15.423l-1.095 23.532c-.092 1.974-.176 3.994.476 5.877.263.762.585 1.715-.079 2.229-.26.17-.564.277-.882.309-2.99.502-6.078.08-8.774-1.201l-.297-23.772c-.092-7.329-.188-14.687-1.425-21.924-.982-5.755-2.686-11.433-2.799-17.256-.117-6.097 1.521-12.115 3.192-18.026.359-1.265 1.671-2.191 2.749-3.048a3.462 3.462 0 011.337-.74c.502-.125 1.271.484 1.58.869z" fill="#000"/><path d="M604.948 320.368c-.618 2.321.694 4.726.548 7.111-.084 1.445-.707 2.885-.418 4.303.288 1.418 1.399 2.485 1.993 3.784a9.494 9.494 0 01.677 3.384c.171 2.851.033 5.717-.084 8.556-.196 4.763-.343 9.554.347 14.275a41.643 41.643 0 003.622 11.871 19.49 19.49 0 011.35 3.198c.231 1.023.385 2.059.46 3.102a29.363 29.363 0 002.954 9.797c1.065 2.123 2.925 3.811 3.514 6.064.56 2.157.184 4.432.589 6.615.296 1.62 1.019 3.152 1.42 4.752.523 2.07.51 4.215.773 6.327.753 6.097 3.79 12.194 1.977 18.109-.364 1.189-.928 2.397-.673 3.609.125.594.443 1.181.301 1.772-.117.503-.543.892-.761 1.368-.417.892.026 1.951.769 2.641a8.432 8.432 0 002.716 1.463c3.08 1.201 6.268 2.42 9.61 2.394.406.019.811-.049 1.183-.199.601-.285.898-.907 1.153-1.478l1.713-3.864c.209-.469.418-1.018.13-1.452a2.86 2.86 0 00-.719-.61c-1.383-1.063-1.07-3.049-.702-4.646a62.115 62.115 0 001.554-12.461c.184-8.354-1.324-16.658-2.828-24.901-.523-2.862-1.049-5.743-2.09-8.487-1.04-2.743-2.573-5.384-2.323-8.235.268-3.079-.61-6.307 0-9.344.61-3.037 1.575-6.01 2.198-9.043.806-3.937 1.007-7.95 1.254-11.944.104-1.631.238-3.315 1.073-4.763.489-.846 1.2-1.571 1.747-2.39 1.412-2.13 1.638-4.771 2.987-6.936.64-1.025 1.521-1.928 1.989-3.026a7.775 7.775 0 00.51-2.69c.132-2.3-.008-4.606-.418-6.879-7.113-3.301-15.001-4.97-22.98-4.862-3.055.045-6.143.327-9.009 1.291-2.733.927-5.223 2.226-8.106 2.424z" fill="#3F3D56"/><path d="M622.079 441.105c-1.228 1.395-1.145 3.388-1.93 5.03-.953 1.993-3.075 3.27-5.089 4.432l-12.535 7.241c-.686.381-1.421.85-1.672 1.559-.119.452-.097.926.063 1.368a5.842 5.842 0 001.622 2.537 6.653 6.653 0 002.757 1.518c1.109.241 2.249.347 3.388.316l5.637.069c1.717.061 3.437 0 5.143-.183 1.563-.206 3.084-.614 4.638-.873 2.829-.469 5.737-.427 8.57-.88a49.022 49.022 0 005.131-1.208c2.047-.561 4.132-1.144 5.887-2.253a2.913 2.913 0 001.133-1.112c.296-.629.133-1.349-.034-2.016l-2.691-10.785a6.077 6.077 0 00-1.053-2.519c-.597-.724-1.671-1.204-2.603-.896-.384.16-.747.359-1.082.595-1.379.827-3.146.964-4.776.705-1.053-.172-2.444-.435-3.292-1.071-.644-.484-.836-1.235-1.383-1.784a3.977 3.977 0 00-1.357-.827 4.258 4.258 0 00-3.191.115 3.894 3.894 0 00-1.281.922z" fill="#2E2E2E"/><path d="M613.952 233.373c8.338 0 15.097-6.165 15.097-13.769s-6.759-13.769-15.097-13.769c-8.337 0-15.096 6.165-15.096 13.769s6.759 13.769 15.096 13.769z" fill="#FBBEBE"/><path d="M602.307 220.412c1.446-.739 1.446-2.87 2.925-3.578 1.479-.709 3.159.522 4.107 1.764a15.508 15.508 0 012.821 6.048c.134.617.259 1.292.769 1.722.509.431 1.178.484 1.83.545 1.908.173 3.819.331 5.732.473 2.131.156 4.379.282 6.314-.553a4.523 4.523 0 001.897-1.433 6.103 6.103 0 00.81-1.935c.999-3.465 2.006-6.971 2.089-10.553.034-1.479-.108-3.011-.89-4.306-.455-.762-1.124-1.426-1.312-2.264-.188-.838.418-1.905 1.371-1.814a6.106 6.106 0 01-2.507-.434c-.756-.381-1.316-1.201-1.049-1.948-2.122.248-3.668-1.665-5.323-2.904a1.516 1.516 0 00-1.011-.381 3.86 3.86 0 00-.836.294c-.835.266-1.709-.24-2.565-.461-2.298-.587-5.219.83-6.924-.694.163.972-1.145 1.623-2.223 1.604-1.078-.019-2.189-.381-3.208-.053a1.763 1.763 0 01.107 1.621c-.115.261-.29.495-.516.687a2.149 2.149 0 01-.786.421l.505 1.006a2.959 2.959 0 00-1.39.652 2.564 2.564 0 00-.803 1.223c-.556 2-.418 4.843-.285 6.901.067.903 1.032 8.011.351 8.35z" fill="#192534"/><path d="M615.189 237.351c-7.584 7.778-9.514 18.727-11.131 29.036l-2.382 15.22c-.618 3.948-1.253 7.896-1.792 11.856-.376 2.71-.727 5.461-.318 8.167.322 2.134 1.103 4.192 1.755 6.246a54.082 54.082 0 012.507 16.573c.506-1.356 2.257-1.905 3.794-2.21 12.902-2.553 26.362-1.242 38.382 3.739 2.11-5.393 1.713-11.292 2.302-16.993.836-8.129 3.715-16.006 4.567-24.119.314-3.022.351-6.06.385-9.097.025-2.229.05-4.482-.46-6.665-.568-2.416-1.767-4.669-3.008-6.86a175.92 175.92 0 00-11.416-17.69 178.364 178.364 0 00-10.111-12.565c-1.166-1.322-1.671-2.469-3.522-1.676-3.498 1.493-7.007 4.428-9.552 7.038z" fill="#6C63FF"/><path d="M619.534 302.091c-1.85.061-3.702.007-5.544-.16-1.366-.122-2.762-.305-4.095 0a4.439 4.439 0 00-1.592.713 1.084 1.084 0 00-.36.531.994.994 0 00.018.624c.072.203.207.381.389.514.182.133.402.215.634.236l1.429.114c.907.073 1.851.157 2.557.762.29.239.475.565.519.919.087.888-.757 1.372-1.513 1.741a12.166 12.166 0 00-2.95 1.792c-.689.607-1.123 1.417-1.224 2.286a.407.407 0 00.056.223.45.45 0 00.17.168.525.525 0 00.484.017c1.671-.762 2.762-3.022 4.596-2.645-1.668.482-3.097 1.484-4.036 2.832a1.591 1.591 0 00-.3 1.088c.038.383.216.744.506 1.023.29.279.676.461 1.093.516.418.054.843-.021 1.208-.215.272-.145.534-.304.786-.477a18.466 18.466 0 003.313-3.14c-1.337 2.573-2.691 5.583-1.153 8.14a.842.842 0 00.344.338c.149.08.319.119.491.112.485-.046.627-.461.707-.827.25-1.177.313-2.42.948-3.468 1.471-2.431 5.098-2.667 7.859-3.853 3.314-1.402 5.583-4.42 6.498-7.644.32-.94.376-1.939.163-2.904-.615-2.168-3.548-2.668-5.432-1.62-2.311 1.338-3.652 2.18-6.569 2.264z" fill="#FBBEBE"/><path opacity=".1" d="M616.601 259.436c2.925 4.119 8.002 6.44 12.356 9.332a10.022 10.022 0 012.732 2.371c1.099 1.547 1.254 3.513 1.028 5.335-.284 2.405-1.132 4.718-1.972 7.012l-1.826 4.973c-1.157 3.156-2.352 6.376-4.554 9.028-.564.675-1.22 1.395-1.195 2.241.048.489.232.958.535 1.364a9.56 9.56 0 002.731 2.673 10.558 10.558 0 003.657 1.489 5.328 5.328 0 002.403 0c1.128-.305 1.976-1.143 2.762-1.936 3.76-3.784 7.52-7.622 10.236-12.061 2.654-4.333 4.241-9.147 5.704-13.914a27.05 27.05 0 001.253-5.385c.309-3.43-.677-6.859-2.289-9.958-1.613-3.098-3.832-5.903-6.117-8.628a62.118 62.118 0 00-7.166-7.499c-4.546-3.876-10.108-6.155-16.191-3.956-4.295 1.555-5.904 4.798-6.288 8.952-.326 2.999.449 6.012 2.201 8.567z" fill="#000"/><path d="M618.122 258.391c2.925 4.12 8.006 6.441 12.355 9.333a10.046 10.046 0 012.721 2.386c1.098 1.547 1.253 3.51 1.027 5.335-.288 2.405-1.132 4.718-1.976 7.012l-1.826 4.954c-1.157 3.156-2.352 6.372-4.554 9.028-.56.675-1.216 1.391-1.191 2.241.046.488.23.957.535 1.361a9.566 9.566 0 002.728 2.674 10.557 10.557 0 003.656 1.491c.79.183 1.617.183 2.407 0 1.128-.301 1.972-1.143 2.762-1.932 3.76-3.788 7.521-7.622 10.237-12.062 2.653-4.333 4.241-9.146 5.703-13.917a26.723 26.723 0 001.253-5.381c.31-3.43-.676-6.86-2.285-9.962-1.609-3.102-3.832-5.903-6.117-8.628a62.225 62.225 0 00-7.183-7.457c-4.541-3.872-10.103-6.155-16.186-3.952-4.3 1.555-5.904 4.794-6.293 8.951-.307 2.988.476 5.985 2.227 8.525z" fill="#6C63FF"/><defs><linearGradient id="paint0_linear" x1="346.224" y1="382.684" x2="346.224" y2="77.049" gradientUnits="userSpaceOnUse"><stop stop-color="gray" stop-opacity=".25"/><stop offset=".54" stop-color="gray" stop-opacity=".12"/><stop offset="1" stop-color="gray" stop-opacity=".1"/></linearGradient><linearGradient id="paint1_linear" x1="106044" y1="239872" x2="99935.5" y2="80872.6" gradientUnits="userSpaceOnUse"><stop stop-color="gray" stop-opacity=".25"/><stop offset=".54" stop-color="gray" stop-opacity=".12"/><stop offset="1" stop-color="gray" stop-opacity=".1"/></linearGradient></defs></svg>