<svg width="14" height="19" fill="none" xmlns="http://www.w3.org/2000/svg"><path d="M6.307 17.944a270.13 270.13 0 00-1.933-2.777 113.254 113.254 0 00-1.512-2.18 41.202 41.202 0 01-1.055-1.547A29.356 29.356 0 011 10.104a30.724 30.724 0 01-.422-.984A6.248 6.248 0 01.296 8.1 13.927 13.927 0 01.26 7.045c0-1.875.657-3.468 1.97-4.78C3.541.951 5.135.294 7.01.294c1.876 0 3.47.657 4.782 1.97 1.312 1.312 1.969 2.905 1.969 4.78 0 .399-.024.75-.07 1.055-.024.281-.118.621-.282 1.02-.14.398-.281.726-.422.984-.117.258-.375.703-.773 1.336a41.14 41.14 0 01-1.055 1.547c-.305.422-.82 1.148-1.547 2.18a1261.67 1261.67 0 01-1.898 2.777c-.164.234-.399.351-.704.351-.304 0-.539-.117-.703-.351zm-1.3-8.895c.562.54 1.23.809 2.004.809.773 0 1.43-.27 1.968-.809.563-.562.844-1.23.844-2.004a2.62 2.62 0 00-.844-1.968 2.624 2.624 0 00-1.968-.844c-.774 0-1.442.281-2.004.844a2.68 2.68 0 00-.809 1.968c0 .774.27 1.442.809 2.004z" fill="#fff"/></svg>