<svg width="19" height="19" fill="none" xmlns="http://www.w3.org/2000/svg"><path d="M17.483 13.022c.352.14.527.398.527.773a.39.39 0 01-.035.176l-.843 3.656a.612.612 0 01-.176.317.57.57 0 01-.281.246.678.678 0 01-.352.105c-4.5 0-8.344-1.593-11.531-4.78C1.604 10.326.01 6.482.01 1.982a.94.94 0 01.07-.352.967.967 0 01.247-.28.828.828 0 01.351-.177L4.335.331A.391.391 0 014.51.295c.375 0 .632.176.773.528L6.97 4.76a.7.7 0 01.07.317c0 .257-.105.48-.316.668L4.616 7.467c.539 1.172 1.418 2.367 2.637 3.586 1.218 1.219 2.414 2.098 3.586 2.637l1.722-2.11a.865.865 0 01.668-.316c.117 0 .223.024.317.07l3.937 1.688z" fill="#fff"/></svg>