<svg width="20" height="21" fill="none" xmlns="http://www.w3.org/2000/svg"><path d="M19.414 14.64c.39.157.586.443.586.86a.434.434 0 01-.04.195l-.937 4.063a.68.68 0 01-.195.351.635.635 0 01-.312.274.754.754 0 01-.391.117c-5 0-9.27-1.77-12.813-5.313C1.772 11.646 0 7.375 0 2.376c0-.13.026-.26.078-.39.078-.13.17-.235.274-.313a.92.92 0 01.39-.195L4.805.539A.435.435 0 015 .5c.417 0 .703.195.86.586L7.733 5.46a.775.775 0 01.079.351c0 .287-.118.534-.352.743L5.117 8.469c.6 1.302 1.576 2.63 2.93 3.984s2.682 2.33 3.984 2.93l1.914-2.344c.209-.234.456-.351.742-.351.13 0 .248.025.352.078l4.375 1.875z" fill="#fff"/></svg>