<svg width="635" height="451" fill="none" xmlns="http://www.w3.org/2000/svg"><path opacity=".1" d="M350.5-26.078c-42.349 7.29-88.555 108.244-129.386 102.814-40.831-5.43-81.567-12.365-124.005-11.02-27.284.875-57.635 6.403-76.514 23.367C2.434 105.41-.165 127.724.008 147.898c.13 15.184 1.512 30.906 11.483 43.106 6.921 8.475 17.503 14.621 25.504 22.455 27.877 27.261 19.97 69.492 2.32 105.26-8.305 16.774-18.453 33.248-24.022 50.444-5.57 17.195-6.122 35.743 4.377 50.009 10.403 14.114 30.303 22.253 51.009 26.607 42.047 8.849 88.714 4.281 133.851-2.067 99.9-14.144 198.715-37.021 297.175-59.83 36.459-8.445 73.079-16.933 108.157-29.353 19.478-6.886 39.294-15.551 51.768-29.249 15.83-17.397 15.973-41.411.332-55.984-26.21-24.405 77.36-66.054 56.975-93.854-11.234-15.288-8.583-91.649 0-109.725 18.386-38.77-51.785-16.81-56.975-55.769-3.559-26.76-73.91-29.831-107.303-36.026-34.995-6.494-94.437-17.031-114.229 9.57-20.41 27.383-52.539-16.003-89.93-9.57z" fill="#6C63FF"/></svg>