<svg width="542" height="409" fill="none" xmlns="http://www.w3.org/2000/svg"><g clip-path="url(#clip0)"><path d="M498.557 106.413s-6.715-2.73-28.066 7.069c-21.352 9.798-24.02 8.553-29.551 7.054-5.531-1.499-8.59-1.852-14.537-10.023 0 0-4.176-22.662-8.223-26.17-4.047-3.508-21.237 2-21.237 2s-20.612 4.725-24.539-22.825c0 0 2.787-20.762-1.007-27.134 0 0 7.636 3.303 20.301-2.033 12.666-5.336 22.76 5.727 22.76 5.727s3.188 8.253 2.863 13.174c-.324 4.92 1.685 6.773 7.717 4.396 0 0 2.959-4.215-1.231-11.183-4.19-6.969-7.187-12.152-6.018-17.56 1.169-5.408 4.534-12.887 15.353-16.662 10.819-3.776 25.504-4.473 32.557-7.408 7.054-2.935 8.757-4.85 8.757-4.85s-4.338 4.349 5.88 22.782 3.708 26.433 3.708 26.433-5.44 12.958-29.445 11.908c0 0-23.132.845-10.524 10.653 0 0 8.08-1.642 20.154-5.484s20.794 12.009 22.955 23.034c2.162 11.026 11.373 17.102 11.373 17.102z" fill="#6C63FF"/><path d="M467.46 13.98l.129-.033c.926 3.517-9.411 17.66-18.25 28.885l-.105-.08c12.471-15.852 18.942-26.07 18.226-28.772z" fill="#444053"/><path d="M449.42 42.522l.053.143c-7.058 8.974-15.94 19.689-23.046 27.621a53.81 53.81 0 00-1.995 2.358l-.205-.162a75.428 75.428 0 012.004-2.386c7.107-7.914 16.131-18.606 23.189-27.574z" fill="#444053"/><path d="M424.399 72.277l.143.243c-12.933 16.147-13.787 41.219-13.84 41.434l-2.725-3.15c.048-.229 3.403-22.275 16.422-38.527z" fill="#444053"/><path d="M483.562 97.654s-15.272-7.927-27.136-5.083c-11.864 2.845-38.656-10.056-38.656-10.056s-11.358-4.616-13.644-9.876c0 0-7.794-8.242-8.237-12.51-.444-4.266-8.032-14.982-12.981-15.397m98.444 60.554s-7.678-5.173-6.786-11.207m-4.996 17.89s-10.977-3.986-12.084-19.622m-5.612 23.669s-10.5-8.706-7.011-23.922m-14.308 19.669s-6.991-14.667-.768-24.213m53.952.44s-7.942 2.52-6.238 6.681m-3.345-21.101s-10.624 3.375-10.876 18.41m-3.947-21.88s-9.674 11.933-8.963 22.796m-7.974-18.109s-9.612 9.183-8.386 14.29m2.592-17.535s-9.011 1.613-10.27-1.341m-1.442-9.537s4.553 6.028 5.727 4.678m39.392-8.492s-22.708 1.647-27.847-5.197m-22.049-21.378s10.657 22.877 18.398 25.774m-7.216-36.661s6.543 21.039 14.651 27.606" stroke="#444053" stroke-miterlimit="10"/><path d="M479.553 39.482s-17.271 7.417-27.641-.086m-5.236-24.495s3.947 15.47 9.264 19.192m21.027-11.933s-9.707 3.676-13.33.86" stroke="#444053" stroke-width=".75" stroke-miterlimit="10"/><path d="M416.582 65.719s-.029 13.483-3.675 14.438m-26.334 3.031s14.575 1.245 21.299-6.277m4.944-27.124s-3.526 13.679-13.253 17.359m-21.733 1.637s10.318 3.584 19.19-5.551m4.323-25.202s-.954 11.618-7.287 17.05m-15.835-3.995s8.562.057 10.571-2.735" stroke="#444053" stroke-miterlimit="10"/><path opacity=".1" d="M322.537 393.983c93.175 0 168.709-3.597 168.709-8.033 0-4.437-75.534-8.033-168.709-8.033s-168.709 3.596-168.709 8.033c0 4.436 75.534 8.033 168.709 8.033z" fill="#6C63FF"/><path d="M88.103 391.72s-17.233-1.04-15.2 11.035c0 0-.4 2.134 1.532 3.103 0 0 .029-.893 1.766-.592a7.763 7.763 0 001.87.091 3.899 3.899 0 002.291-.955s4.844-2 6.725-9.918c0 0 1.393-1.723 1.34-2.167l-2.91 1.241s.997 2.095.214 3.842c0 0-.095-3.766-.654-3.68-.114 0-1.513.73-1.513.73s1.714 3.652.42 6.31c0 0 .478-4.505-.954-6.047l-2.047 1.193s1.985 3.795.649 6.864c0 0 .343-4.721-1.074-6.563l-1.857 1.432s1.876 3.718.735 6.271c0 0-.152-5.498-1.135-5.913 0 0-1.623 1.432-1.871 2.019 0 0 1.284 2.701.477 4.123 0 0-.477-3.66-.888-3.679 0 0-1.617 2.429-1.785 4.09a8.797 8.797 0 011.394-4.324 4.845 4.845 0 00-2.477 1.284s.253-1.719 2.864-1.867c0 0 1.336-1.842 1.694-1.952 0 0-2.61-.219-4.19.477 0 0 1.393-1.618 4.667-.882l1.833-1.494s-3.437-.478-4.892.047c0 0 1.675-1.432 5.383-.386l1.995-1.194s-2.925-.63-4.672-.405c0 0 1.842-.993 5.25.086l1.431-.64s-2.143-.425-2.772-.477c-.63-.053-.664-.244-.664-.244a7.452 7.452 0 014.033.449s3.04-1.117 2.992-1.308z" fill="#6C63FF"/><path opacity=".1" d="M76.234 408.97c6.734 0 12.193-.923 12.193-2.062 0-1.139-5.459-2.062-12.193-2.062s-12.194.923-12.194 2.062c0 1.139 5.46 2.062 12.194 2.062z" fill="#6C63FF"/><path d="M57.913 392.365s-9.712-.587-8.567 6.204a1.664 1.664 0 00.864 1.752s0-.506.998-.334c.348.059.702.076 1.054.052.477-.033.929-.22 1.289-.534 0 0 2.73-1.127 3.794-5.589 0 0 .782-.955.754-1.227l-1.642.702c.316.68.359 1.456.12 2.167 0 0-.053-2.124-.368-2.072-.062 0-.85.406-.85.406s.955 2.062.234 3.561c0 0 .277-2.54-.534-3.408l-1.155.673s1.126 2.128.363 3.861c0 0 .195-2.663-.606-3.699l-1.046.816s1.06 2.095.416 3.537c0 0-.086-3.098-.64-3.341a6.26 6.26 0 00-1.055 1.141s.721 1.522.272 2.324c0 0-.272-2.067-.477-2.072 0 0-.911 1.366-1.007 2.306a5.007 5.007 0 01.788-2.439c-.526.1-1.012.35-1.399.721 0 0 .144-.955 1.623-1.05.276-.402.596-.772.954-1.103a6.06 6.06 0 00-2.362.272s.783-.912 2.634-.477l1.031-.84s-1.937-.268-2.758 0c0 0 .954-.807 3.035-.22l1.126-.668a10.14 10.14 0 00-2.634-.229s1.036-.559 2.964.048l.802-.363s-1.208-.239-1.566-.272c-.358-.034-.372-.139-.372-.139a4.23 4.23 0 012.271.253s1.685-.615 1.652-.72z" fill="#6C63FF"/><path opacity=".1" d="M51.227 402.092c3.798 0 6.877-.522 6.877-1.165s-3.08-1.164-6.877-1.164c-3.798 0-6.877.521-6.877 1.164 0 .643 3.079 1.165 6.877 1.165z" fill="#6C63FF"/><path d="M76.406 377.931s-11.726-.706-10.347 7.513a2.004 2.004 0 001.046 2.109s0-.606 1.202-.4c.42.071.849.091 1.274.062a2.66 2.66 0 001.556-.645s3.298-1.36 4.582-6.749c0 0 .954-1.174.906-1.479l-1.975.835s.672 1.432.143 2.615c0 0-.062-2.563-.444-2.501-.076 0-1.03.478-1.03.478s1.164 2.486.285 4.295c0 0 .335-3.064-.649-4.114l-1.393.816s1.36 2.568.439 4.663c0 0 .239-3.212-.73-4.467l-1.26.988s1.274 2.53.477 4.267c0 0-.1-3.742-.773-4.024a7.818 7.818 0 00-1.274 1.375s.878 1.838.334 2.807c0 0-.334-2.492-.606-2.506 0 0-1.098 1.651-1.212 2.787a6.038 6.038 0 01.954-2.945 3.3 3.3 0 00-1.685.874s.172-1.17 1.957-1.27c0 0 .912-1.255 1.155-1.332 0 0-1.775-.148-2.863.33 0 0 .954-1.103 3.178-.602l1.245-1.016s-2.338-.32-3.34.033c0 0 1.14-.954 3.66-.262l1.394-.812a12.468 12.468 0 00-3.183-.272s1.255-.678 3.579.057l.954-.434s-1.46-.291-1.885-.334c-.424-.043-.477-.162-.477-.162a5.058 5.058 0 012.744.305s2.1-.754 2.062-.883z" fill="#6C63FF"/><path opacity=".1" d="M68.331 389.673c4.584 0 8.3-.629 8.3-1.404 0-.775-3.716-1.403-8.3-1.403-4.583 0-8.299.628-8.299 1.403s3.716 1.404 8.3 1.404z" fill="#6C63FF"/><path d="M319.077 374.227v3.733H208.711v-3.036a36.27 36.27 0 0023.644-32.664 36.28 36.28 0 00-21.148-34.334h107.121a36.34 36.34 0 00-20.044 24.056 36.274 36.274 0 0014.035 38.408 36.3 36.3 0 006.758 3.837z" fill="#D2D4DE"/><path opacity=".1" d="M318.328 307.926a36.34 36.34 0 00-20.044 24.056H231.26a36.336 36.336 0 00-20.044-24.056h107.112z" fill="#000"/><path d="M82.338 288.916v20.948c0 11.575 8.466 20.954 18.913 20.954h324.704c10.446 0 18.913-9.379 18.913-20.954v-20.948H82.338z" fill="#D2D4DE"/><path opacity=".1" d="M319.077 374.227v3.733H208.711v-3.036a36.16 36.16 0 008.514-4.534h95.085a36.284 36.284 0 006.767 3.837z" fill="#000"/><path d="M351.009 371.555H176.774a4.534 4.534 0 00-4.534 4.534v1.99a4.534 4.534 0 004.534 4.534h174.235a4.534 4.534 0 004.534-4.534v-1.99a4.534 4.534 0 00-4.534-4.534z" fill="#D2D4DE"/><path d="M444.868 59.323a18.916 18.916 0 00-18.913-18.915H101.251a18.912 18.912 0 00-18.913 18.915v233.664h362.53V59.323z" fill="#30374E"/><path d="M434.979 67.761v200.784a9.31 9.31 0 01-9.311 9.312H101.542a9.311 9.311 0 01-8.603-5.748 9.307 9.307 0 01-.708-3.564V67.761a9.314 9.314 0 019.311-9.326h324.126a9.313 9.313 0 019.311 9.326z" fill="#DFE3EF"/><path d="M263.603 53.796a4.368 4.368 0 10-.001-8.735 4.368 4.368 0 00.001 8.735zm0 267.709c5.946 0 10.766-4.82 10.766-10.767 0-5.947-4.82-10.768-10.766-10.768s-10.767 4.821-10.767 10.768c0 5.947 4.821 10.767 10.767 10.767zM434.975 67.761H92.231a9.307 9.307 0 019.311-9.326h324.122a9.303 9.303 0 018.607 5.758 9.315 9.315 0 01.704 3.569z" fill="#fff"/><path d="M101.542 65.432a2.33 2.33 0 100-4.658 2.33 2.33 0 000 4.658zm6.982 0a2.33 2.33 0 100-4.658 2.33 2.33 0 000 4.658zm6.982 0a2.33 2.33 0 100-4.658 2.33 2.33 0 000 4.658z" fill="#DFE3EF"/><path d="M401.119 93.55H124.502v161.669h276.617V93.549z" fill="#fff"/><path d="M478.322 311.797c.1-.272-.659-1.799-.659-1.875 0-.077-.777-.926-.777-1.399 0-.472-1.036-1.503-1.036-1.503s-1.384-.573-1.532-1.824c-.148-1.25-1.661-1.274-1.666-1.274v-.286a4.042 4.042 0 00-.181-1.466 1.485 1.485 0 00-.859-.725 3.231 3.231 0 00-.477-1.275 1.432 1.432 0 01-.353-1.35c.152-.478-.201-1.676-.955-1.852a19.934 19.934 0 01-1.56-.449l-.201.034-.1-.034a4.952 4.952 0 01-.53.067.667.667 0 01-.429-.143c-.253-.272-2.291-.797-2.668-.797a6.306 6.306 0 01-1.46-.478l-1.084-.825a7.08 7.08 0 01-.954-1.308 5.239 5.239 0 01-.229-.659c.375-.384.696-.818.954-1.288l.072-.148a.627.627 0 00.162 0l.067-.029a1.058 1.058 0 00.534-.64.913.913 0 00.048-.162v-.057a1.103 1.103 0 000-.115.321.321 0 000-.062 1.084 1.084 0 000-.114v-.206c.024-.176.043-.353.081-.529.218-.655.503-1.285.85-1.881a3.616 3.616 0 00.214-.577.513.513 0 000-.096c0-.072.039-.148.053-.224.014-.077 0-.067 0-.1 0-.105.029-.21.038-.315a3.82 3.82 0 00-.258-1.757c-.186-.477-.477-.892-.658-1.36-.291-.711-.368-1.518-.721-2.196a2.618 2.618 0 00-3.135-1.279c-.549.205-1.022.601-1.58.778-.744.239-1.537.057-2.31-.048-.773-.105-1.622-.114-2.238.387-.716.577-.912 1.666-1.58 2.305-.281.268-.63.435-.926.683a1.507 1.507 0 00-.477.635v.052a.749.749 0 000 .067.482.482 0 000 .076v.053a1.475 1.475 0 000 .133c.006.042.014.084.024.125v.033c.008.036.02.071.034.105l.042.115.029.057a.124.124 0 000 .047c.098.186.176.381.234.583a.654.654 0 010 .382 1.1 1.1 0 01-.282.367 5.27 5.27 0 00-1.135 1.819c-.029.076-.053.157-.082.234h.034c.071.022.145.038.219.047h.129c.171.009.343-.004.511-.038l.129-.029c.175-.048.346-.112.51-.19v.243a5.947 5.947 0 003.303 5.317v.162c.002.045.002.089 0 .134l-.067-.062s-.477-.224-.883.425a2.856 2.856 0 01-1.236.954s-4.581.726-4.772 1.327l-2.138.124s-.754.1-.831 1.676c-.076 1.575-.477 1.723-.477 1.723s-.883 1.551-.807 2.353a1.302 1.302 0 01-.682 1.198l-.1 1.432a.96.96 0 00-.704.205.948.948 0 00-.351.644 3.444 3.444 0 01-.63 1.432s-1.384 1.15-1.46 2.124l-.859.525s-1.985-.449-2.439-1.251l-.143-.128a6.651 6.651 0 00-.83-.735c.057.125.07.266.038.4l-.148-.162-.244-.496s-2.959-3.399-4.844-3.637a1.193 1.193 0 00-.849.821c-.239.811-.477 2.157.134 2.821l2.982 3.178.077.058.649.83a10.5 10.5 0 00-.282.749c0 .053-.033.101-.048.148v.048l-.043.139c0 .028 0 .057-.023.081v.047a8.892 8.892 0 00-.139.554l-.167-.052.162.071a.235.235 0 000 .053l.153.067c.883.386 5.283 2.314 5.512 2.61a3.185 3.185 0 003.422.478 3.61 3.61 0 001.837-2.024 21.324 21.324 0 001.489-2.267c.048-.296 1.184-.649 1.184-.649s.1 3.341-.477 4.577c-.578 1.236-1.661 6.644-1.661 6.644a.774.774 0 01.215 0l-.062.315a.749.749 0 01.267 0c-.081.62-.544 3.484-.544 3.484a7.376 7.376 0 01-.401 1.752c-.253.448-.282 2.797-.282 2.797l-.401 1.704s.053.114.153.291a4.3 4.3 0 001.16 1.494 2.999 2.999 0 01-.205.778 2.764 2.764 0 00-.201 1.202c-.194.814-.32 1.643-.377 2.478a9.257 9.257 0 01-.277 1.909l-.477 4.353s-.3 3.77-.153 4.773a9.074 9.074 0 01-.1 2.424s.301 2.979.229 3.303c-.071.325-.477 1.728-.229 2.501.248.773.1 2.902.1 2.902s.153 2.802.33 3.699a6.344 6.344 0 01-.053 2.053 16.38 16.38 0 01-.253 1.909c-.071 0-.73 1.327.606 2.63 1.337 1.303.506 1.097.506 1.097s-1.059-.525-.954.549c.105 1.074.286.759.301.731l-.249.821.177.023c-.048.058-.096.12-.148.177-.152.19-.321.366-.506.525a1.096 1.096 0 00-.329.726 19.646 19.646 0 01-3.599 3.049 10.69 10.69 0 00-2.047 1.375c-.31.339-.258.616.387.826a9.757 9.757 0 005.459.1 6.372 6.372 0 002.673-1.723 3.844 3.844 0 012.138-.353c1.059.2 3.173-1.174 3.173-1.174l-.038-.354-.114-1.021a.821.821 0 01-.177-.625 3.348 3.348 0 00-.086-.898c0-.1-.038-.2-.057-.291l.196-.038s-.253-1.274.2-1.522c.453-.249.325-3.528.325-3.528a4 4 0 00-.879-.873c-.3-.129-.028-1.68 0-1.876.029-.196.478-4.081.478-4.081a5.257 5.257 0 01.052-1.747c.201-.525-.253-2.548-.253-2.548a.484.484 0 01.124-.554c.277-.301.177-2.974.177-2.974s-.024-1.35-.024-1.704c.073-.71.268-1.403.578-2.047.276-.425.105-1.752.105-1.752v-.377a19.34 19.34 0 01.477-2.167c.329-1.05.706-2.902.706-2.902l2.343-6.104v-.072a9.567 9.567 0 011.084 3.852c.127.936.194 1.88.2 2.825.018 1.144.094 2.287.229 3.423 0 0 .325 4.052.325 4.228 0 .177.405 3.299.658 3.776.253.477-.253 1.909-.405 2.076-.153.167.047 3.818.047 3.818s-.377 2.902-.453 3.504c-.076.601-.377 2.902-.124 3.818.253.917.153 1.022.153 1.022s.906.925.377 1.002a1.38 1.38 0 00-1.007 1.823c.314.914.684 1.809 1.107 2.678l.42-.086v.296l.028 1.489c.084.58.11 1.167.077 1.752-.072.238-.177 1.36-.224 1.942 0 .215-.029.358-.029.358s0 1.327 2.797.926c2.796-.401 3.297-1.499 3.297-1.499v-.138c.043-.253.134-.792.205-1.088.101-.401-.801-2.201-.801-2.201s-.153-1.226-.406-1.503a1.275 1.275 0 01-.2-.525c0-.1-.043-.205-.062-.306l.186.034s-.148-.878.429-1.15a.832.832 0 00.353-1.103c.02-.557.095-1.11.225-1.651a.82.82 0 01.2-.798c.358-.353.63-2.801.63-2.801l.053-9.455a9.144 9.144 0 00-.024-2.349c-.206-.677-.406-1.976-.129-2.329.277-.353.028-1.971.028-1.971s0-3.427.377-4.296c.377-.868.253-6.228.253-6.228l.101-3.528s.82-.773.625-4.835c.878-.052 1.866-.086 2.019.034.276.224 2.061 1.379 3.121.654.435-.304.854-.631 1.255-.979l-.444-7.498c.277.42.449.697.449.697 0-1.05 2.968-4.453 2.968-4.453s2.768-3.575 3.374-4c.606-.425 1.79-2.673 1.79-2.673.173-.429.374-.847.601-1.25.425-.435-.482-1.633-.377-1.91zm-6.5 2.625c-.754.077-2.338 1.805-2.386 2.177-.053.249-.168.48-.334.673 0-.153 0-.306-.034-.477-.181-2.21-.372-4.902-.286-5.16.102-.822.135-1.65.1-2.477l.029-.038c.506 1.57 2.085 3.417 2.085 3.417s.277.802.602.826c.324.024.224 1.059.224 1.059z" fill="url(#paint0_linear)"/><path d="M431.452 313.854s.921-4.815 3.876-4.839l2.157 4.438-1.432.993s-3.135.101-4.601-.592zm30.549 19.603s3.102-.296 3.374-.072c.272.225 2.037 1.365 3.078.645 1.04-.721.348-3.227.348-3.341 0-.115-.1-3.647-.1-3.647l-1.861-2.506-2.334-4.396-4.772-.477.124 6.973v3.571l2.143 3.25z" fill="#65617D"/><path opacity=".1" d="M462.001 333.457s3.102-.296 3.374-.072c.272.225 2.037 1.365 3.078.645 1.04-.721.348-3.227.348-3.341 0-.115-.1-3.647-.1-3.647l-1.861-2.506-2.334-4.396-4.772-.477.124 6.973v3.571l2.143 3.25z" fill="#000"/><path d="M434.693 308.891s-.243 3.026-2.133 3.073c0 0-.535-.319-1.251-.859-1.66-1.241-4.295-3.622-3.56-5.842 1.041-3.174 6.104 2.683 6.104 2.683l.391.434.449.511z" fill="#FBBEBE"/><path opacity=".1" d="M434.693 308.891s-.244 3.026-2.133 3.073c0 0-.535-.319-1.251-.859l-.162-.205c.319.167.671.261 1.031.277a1.387 1.387 0 001.35-.85c.201-.389.376-.791.525-1.203.089-.241.153-.49.191-.744l.449.511z" fill="#000"/><path d="M433.886 314.375l-.425-.549-1.431-1.838-.73-.954c.32.167.674.263 1.035.281a1.391 1.391 0 001.346-.854c.199-.388.375-.788.525-1.198.234-.673.229-1.017.148-1.131.291.225.564.472.816.74l.138.128.048.101.721 1.432v.062c.081.472.324 3.369-2.191 3.78z" fill="#E7EFFD"/><path d="M448.752 378.256s-2.085 1.365-3.13 1.164a3.73 3.73 0 00-2.11.349 6.269 6.269 0 01-2.629 1.713c-1.685.568-4.043.344-5.384-.1-.634-.21-.687-.477-.381-.821a10.603 10.603 0 012.018-1.365 19.403 19.403 0 003.551-3.026 1.08 1.08 0 01.32-.721c.175-.158.334-.332.477-.52.267-.315.515-.644.515-.644l6.133.195s.105.444.186.898c.069.292.098.592.086.892a.806.806 0 00.172.621l.109 1.012.067.353zm12.828 1.709c-.076.3-.162.83-.205 1.083v.134s-.477 1.093-3.25 1.489c-2.773.396-2.753-.917-2.753-.917s0-.143.028-.353c.04-.64.113-1.277.22-1.909a9.01 9.01 0 00-.077-1.737l-.028-1.48v-1.031l4.562-.477c.031.341.08.681.148 1.016.031.186.099.363.2.521.249.272.397 1.489.397 1.489s.859 1.775.758 2.172z" fill="#65617D"/><path opacity=".1" d="M448.156 374.48s.105.444.186.898c-.664.119-3.556.62-4.295.272-.833-.309-1.7-.517-2.582-.621l.028-.1c.268-.315.516-.644.516-.644l6.147.195zm12.031 1.294c-1.155-.201-3.694.277-4.691.477v-1.031l4.562-.477c.024.346.067.69.129 1.031z" fill="#000"/><path d="M462.769 338.13l-.096 3.498s.124 5.336-.248 6.205c-.372.869-.372 4.243-.372 4.243s.248 1.613-.029 1.962c-.276.348-.071 1.637.124 2.305a8.94 8.94 0 01.024 2.334l-.047 9.384s-.272 2.429-.621 2.778a.801.801 0 00-.196.792 8.33 8.33 0 00-.224 1.642.82.82 0 01-.348 1.088c-.573.277-.425 1.146-.425 1.146-1.36-.325-5.25.544-5.25.544a23.018 23.018 0 01-1.092-2.659 1.378 1.378 0 01.465-1.568c.157-.117.336-.199.527-.241.52-.076-.372-.993-.372-.993s.1-.124-.153-1.016c-.253-.893.053-3.179.124-3.776l.449-3.47s-.201-3.651-.048-3.818c.153-.167.644-1.589.396-2.057-.248-.468-.644-3.575-.644-3.752 0-.176-.324-4.195-.324-4.195s-.296-2.802-.225-3.398a21.889 21.889 0 00-.195-2.802 9.567 9.567 0 00-1.069-3.818l-.024.071-2.31 6.057s-.372 1.838-.692 2.864c-.201.709-.36 1.429-.477 2.157v.373s.176 1.312-.096 1.737a6.084 6.084 0 00-.573 2.033c0 .349.024 1.69.024 1.69s.101 2.654-.171 2.949a.474.474 0 00-.125.549s.444 2.01.249 2.53a5.196 5.196 0 00-.053 1.737s-.396 3.847-.444 4.048c-.047.2-.324 1.737-.024 1.861.331.243.623.537.864.869 0 0 .129 3.25-.32 3.498-.448.249-.2 1.513-.2 1.513s-3.598.697-4.414.296c-.834-.306-1.7-.514-2.582-.62l.248-.816c0 .028-.181.296-.296-.721-.115-1.017.916-.549.916-.549s.821.201-.477-1.088c-1.298-1.289-.668-2.606-.596-2.606.12-.631.203-1.269.248-1.909a6.394 6.394 0 00.052-2.038c-.176-.893-.324-3.675-.324-3.675s.124-2.105-.101-2.864c-.224-.759.148-2.158.225-2.482.076-.325-.225-3.274-.225-3.274.137-.788.171-1.59.101-2.387-.148-1.021.148-4.773.148-4.773l.448-4.295a9.27 9.27 0 00.272-1.91c.059-.826.183-1.646.372-2.453a2.765 2.765 0 01.196-1.193 8.976 8.976 0 00.349-2.134l2.386-5.46 1.164-4.816 15.749-.148s.057.42.153 1.179c.095.759.229 1.881.377 3.265.138 1.26.291 2.744.434 4.391.41 5.26-.582 6.186-.582 6.186z" fill="#3F3D56"/><path d="M461.309 294.696l-3.675 3.923s-4.715-1.909-4.219-2.529c.191-.253.162-1.041.053-1.91-.177-1.374-.549-2.954-.549-2.954s8.237-1.341 7.545.048a2.276 2.276 0 00-.053 1.646c.199.638.503 1.238.898 1.776z" fill="#FBBEBE"/><path opacity=".1" d="M460.464 291.269c-.253.506-.377.558-.22 1.102-1.074 1.155-2.443 2.42-4.147 2.42a5.85 5.85 0 01-2.629-.615c-.177-1.375-.549-2.955-.549-2.955s8.237-1.341 7.545.048z" fill="#000"/><path d="M462.001 288.734a5.918 5.918 0 01-1.67 4.287 5.898 5.898 0 01-4.236 1.79 5.902 5.902 0 01-4.237-1.79 5.915 5.915 0 01-1.669-4.287v-.081a5.911 5.911 0 015.945-5.705 5.906 5.906 0 015.867 5.786z" fill="#FBBEBE"/><path opacity=".1" d="M462.85 327.706c-.778 0-3.384.028-6.295.071h-1.026c-3.45.053-6.853-.62-8.218-.477-2.902.272 1.04-2.683 1.04-2.683a24.23 24.23 0 006.615.669l.835-.043c2.639-.148 5.293-.396 6.681-.812.091.774.225 1.886.368 3.275z" fill="#000"/><path d="M462.85 327.553c-.778 0-3.384.028-6.295.076h-1.026c-3.45.057-6.853-.616-8.218-.477-2.902.272 1.04-2.683 1.04-2.683a24.23 24.23 0 006.615.669l.835-.043c2.639-.148 5.293-.396 6.681-.812.091.769.225 1.886.368 3.27z" fill="#E3A79F"/><path opacity=".1" d="M454.508 296.333l-4.543 2.134-3.546 27.253s2.085-.955 3.274-.348c1.188.606 4.863.052 4.863.052s2.682-.153 3.078.148c.396.301 5.063-1.241 5.063-1.241s.84-1.909.196-2.186c-.644-.277.2-3.226.2-3.226l-.396-19.655-.797-2.53-2.133-1.289-2.167 1.728-1.045.153-2.047-.993z" fill="#000"/><path d="M454.508 296.032l-4.543 2.134-3.522 27.253s2.085-.954 3.273-.348c1.189.606 4.864.048 4.864.048s2.682-.148 3.078.148c.396.295 5.063-1.241 5.063-1.241s.84-1.91.196-2.182c-.644-.272.2-3.226.2-3.226l-.396-19.655-.797-2.535-2.133-1.288-2.191 1.737-1.045.148-2.047-.993z" fill="#E7EFFD"/><path opacity=".1" d="M454.431 297.297s1.318 1.566 1.294 1.909l-.077 1.089-.992 2.014s-.544 2.505-.544 3.026c0 .52-.869 5.035-.869 5.035l-1.045 6.95-1.313 9.111 1.337 2.306 1.589-1.342 2.109-16.228.449-3.202s.477-5.757.477-6.353a19.83 19.83 0 00-.277-2.158s.325-1.489 1.666-1.837c1.341-.349-.1-.076-.1-.076l-.769-.621-.673.272s-1.866-.587-2.262.105z" fill="#000"/><path d="M454.284 297.149s1.317 1.566 1.288 1.909c-.029.344-.071 1.093-.071 1.093l-.993 2.01s-.549 2.51-.549 3.031c0 .52-.869 5.035-.869 5.035l-1.04 6.949-1.317 9.107 1.341 2.31 1.589-1.341 2.11-16.228.448-3.203s.477-5.756.477-6.352a20.142 20.142 0 00-.272-2.162s.325-1.49 1.666-1.833c1.341-.344-.1-.077-.1-.077l-.769-.62-.673.272s-1.87-.592-2.266.1z" fill="#3F3D56"/><path opacity=".1" d="M453.415 294.543s-.2.153-.248 1.146a19.77 19.77 0 01-.745 3.221s2.582-1.785 3.871-1.584l-2.878-2.783z" fill="#000"/><path d="M453.415 294.247s-.2.148-.248 1.141a19.598 19.598 0 01-.745 3.226s2.582-1.785 3.871-1.589l-2.878-2.778z" fill="#E7EFFD"/><path opacity=".1" d="M460.464 293.741l-4.071 3.575s3.426 2.033 3.87 2.53c.444.496.893-4.864.893-4.864l-.692-1.241z" fill="#000"/><path d="M460.612 293.455l-4.071 3.57s3.427 2.038 3.87 2.534c.444.497.898-4.863.898-4.863l-.697-1.241z" fill="#E7EFFD"/><path opacity=".1" d="M453.563 294.543s-.444-.219-.869.425a2.778 2.778 0 01-1.217.954s-4.514.721-4.686 1.318l-2.11.124s-.744.1-.82 1.661c-.077 1.561-.478 1.713-.478 1.713s-.868 1.537-.792 2.334a1.299 1.299 0 01-.668 1.189l3.102 8.066s.096 3.341-.477 4.544c-.573 1.203-1.637 6.601-1.637 6.601s.444-.1.42.196c-.024.296-.544 3.551-.544 3.551a7.246 7.246 0 01-.401 1.737c-.248.449-.272 2.778-.272 2.778l-.396 1.69s.954 2.109 2.386 1.813c1.432-.296 4.047-5.933 4.047-5.933l1.661-6.08 1.288-6.005.373-4.071.596-9.011.869-5.957s.973-3.212.625-3.637z" fill="#000"/><path d="M453.415 294.247s-.449-.224-.869.42a2.773 2.773 0 01-1.217.955s-4.514.721-4.686 1.312l-2.109.124s-.745.101-.821 1.666c-.077 1.566-.477 1.714-.477 1.714s-.869 1.537-.793 2.329a1.31 1.31 0 01-.673 1.193l3.102 8.066s.101 3.341-.477 4.539c-.577 1.198-1.642 6.606-1.642 6.606s.449-.1.425.196c-.024.296-.549 3.551-.549 3.551a7.142 7.142 0 01-.396 1.737c-.248.444-.272 2.778-.272 2.778l-.396 1.69s.955 2.109 2.386 1.809c1.432-.301 4.047-5.933 4.047-5.933l1.661-6.076 1.289-6.009.372-4.071.596-9.007.869-5.957s.997-3.212.63-3.632z" fill="#65617D"/><path opacity=".1" d="M437.485 313.454l-1.432.992a16.856 16.856 0 01-3.77-.315l-.802-.358-.162-.066.167.052c.639.227 1.332.25 1.985.067 2.038-.683 1.814-4.048 1.733-4.807v-.148a.989.989 0 00.09.129l.091.096.721 1.432v.062l1.379 2.864z" fill="#000"/><path d="M442.472 303.764l-.697.201-.095 1.432a.954.954 0 00-1.045.845 3.443 3.443 0 01-.621 1.431s-1.365 1.141-1.432 2.105l-.844.525s-1.962-.448-2.386-1.241c0 0 .892 6.401-3.876 4.84 0 0 5.336 2.329 5.584 2.654a3.131 3.131 0 003.374.477 3.602 3.602 0 001.814-2.009s1.431-2.014 1.489-2.31c.057-.296 1.164-.645 1.164-.645l2.138-5.164-4.567-3.141z" fill="#65617D"/><path opacity=".1" d="M459.891 296.729l.721-3.274c.13.474.349.919.644 1.312l1.069.821c.456.218.937.378 1.432.478.372 0 2.386.52 2.629.792.244.272 1.241.076 1.241.076s.821.272 1.542.444c.72.172 1.064 1.365.916 1.838a1.431 1.431 0 00.348 1.341c.237.386.39.816.449 1.265a1.421 1.421 0 01.84.721c.16.564.219 1.152.177 1.737l-3.694 5.212a15.23 15.23 0 01-.101 2.453c-.147.449.521 8.043.521 8.043l.773 13.054c-.396.34-.811.659-1.241.954-.224.101-.449-4.615-.449-4.773 0-.157-5.726-8.591-5.726-8.591a7.746 7.746 0 01-.769-1.513c0-.272-.72-2.778-.72-2.778l-1.093-4.84.491-14.772z" fill="#000"/><path d="M472.209 304.013v.286l-3.704 5.193c.035.819.003 1.639-.095 2.453-.086.263.1 2.931.277 5.126.124 1.585.243 2.917.243 2.917l.324 5.536.444 7.518c-.395.341-.809.66-1.241.954-.224.101-.448-4.615-.448-4.773 0-.157-5.727-8.591-5.727-8.591a7.687 7.687 0 01-.768-1.513c0-.272-.721-2.778-.721-2.778l-1.088-4.84.477-14.796.42-3.274c.267.472.588.913.955 1.313l1.064.821c.456.216.937.377 1.432.477.372 0 2.386.52 2.629.792.244.272 1.241.077 1.241.077s.816.272 1.537.443c.72.172 1.069 1.365.921 1.838a1.431 1.431 0 00.343 1.341c.239.385.392.816.449 1.265a1.427 1.427 0 01.845.721c.156.481.22.988.191 1.494z" fill="#65617D"/><path opacity=".1" d="M441.875 370.137c.124 0 5.336.2 5.25 1.045-.086.845-5.25-1.045-5.25-1.045zm1.169 1.403s3.499.568 2.578 1.093c-.922.525-2.578-1.093-2.578-1.093zm13-1.947s5.808.477 4.94 1.141c-.869.663-2.93.744-3.026.768a27.142 27.142 0 01-1.914-1.909zm-.691 2.558s3.226.544 3.34 1.165c.115.62-3.34-1.165-3.34-1.165zm1.77-14.93s2.954.697 3.126 1.17l-3.126-1.17zm-11.377 2.124s-1.537.444-.048 1.337c1.489.892.048-1.337.048-1.337zm6.824-23.85c.177 0 2.864-.893 3.818-.477a6.337 6.337 0 002.11.396l-5.928.081zm.349 2.826l-.024.248-2.31 6.057s-.372 1.837-.692 2.863c-.201.71-.36 1.43-.477 2.158l2.047-12.701 1.456 1.375z" fill="#000"/><path d="M456.522 327.629h-.988l-.563-2.501.835-.043.716 2.544z" fill="#3F3D56"/><path d="M468.228 324.598l-.615.511-2.062 1.699s-5.584 2.979-7.125.148c-1.355-2.491 4.978-4.295 6.5-4.658l.324-.081 2.978 2.381z" fill="#FBBEBE"/><path opacity=".1" d="M444.381 300.204s1.093.477 1.341 1.188-1.341-1.188-1.341-1.188zm-3.374 7.446s-1.589 1.933-.955 2.677c.635.745.955-2.677.955-2.677zm28.391-6.353s-1.489.148-1.542 1.432l1.542-1.432zm-13.797 20.347c.148-.148 3.569-5.212 4.366-4.773l-4.366 4.773zm6.4-32.91a5.93 5.93 0 01-.697 2.793h-.043c-.377-.082-.573-.516-.859-.788a1.151 1.151 0 00-1.336-.186 1.34 1.34 0 00-.659 1.27c-.191-.793-.129-1.638-.315-2.435-.186-.797-.74-1.603-1.503-1.618-.325 0-.707.124-.955-.124-.143-.148-.172-.382-.281-.558-.54-.883-2.196-.435-2.864 0a17.58 17.58 0 01-2.3 1.561 5.913 5.913 0 011.814-4.061 5.906 5.906 0 019.998 4.142v.004z" fill="#000"/><path d="M455.362 286.925c.11.182.139.416.282.564.238.243.62.119.954.124.759 0 1.313.821 1.499 1.618.186.797.124 1.642.315 2.434a1.347 1.347 0 01.658-1.274c.215-.112.459-.154.699-.119.24.034.463.142.638.31.286.272.477.706.859.787.381.081.735-.282.868-.678.094-.408.166-.82.215-1.236.167-.773.673-1.408.954-2.143.33-.897.32-1.883-.028-2.773-.186-.477-.477-.883-.649-1.351-.287-.706-.363-1.503-.711-2.176a2.564 2.564 0 00-3.088-1.27c-.539.201-1.007.592-1.556.769-.735.238-1.517.057-2.276-.048-.759-.105-1.599-.115-2.21.387-.701.572-.892 1.651-1.556 2.286-.276.262-.62.434-.911.678a1.237 1.237 0 00-.511 1.007c.043.515.544.983.358 1.455a1.129 1.129 0 01-.272.363 5.19 5.19 0 00-1.203 2.048c1.327.415 2.764-1.05 3.818-1.742.659-.454 2.315-.898 2.854-.02z" fill="#3F3D56"/><path opacity=".1" d="M468.228 324.598l-.615.511c-.544-.907-2.782-2.721-2.782-2.721l.095-.09.325-.081 2.977 2.381z" fill="#000"/><path d="M468.825 323.682s-.219.549-.453 1.031c-.234.482-.478.912-.478.558-.028-.697-2.906-3.03-2.906-3.03l.391-.382.478-.439 2.968 2.262z" fill="#E7EFFD"/><path opacity=".1" d="M468.925 319.992l.325 5.537c-.769-1.198-2.864-4.296-4.248-4.171l3.303-3.795c.135-.151.261-.311.377-.477.124 1.589.243 2.906.243 2.906z" fill="#000"/><path opacity=".1" d="M468.825 323.682s-.219.549-.453 1.031c-.864-1.189-2.052-2.592-3.002-2.864l.477-.439 2.978 2.272z" fill="#000"/><path d="M471.307 303.602l.892.697s1.489 0 1.637 1.265c.148 1.265 1.518 1.814 1.518 1.814s1.016 1.016 1.016 1.489c0 .472.768 1.312.768 1.389 0 .076.745 1.584.645 1.861-.1.277.792 1.461.52 1.909-.224.402-.423.816-.597 1.241 0 0-1.164 2.234-1.761 2.654-.596.42-3.34 3.971-3.34 3.971s-2.931 3.375-2.931 4.42c0 0-2.863-4.773-4.543-4.639l3.303-3.819s.572-.62.596-.993c.024-.372 1.589-2.085 2.334-2.157 0 0 .124-1.021-.201-1.045-.324-.024-.596-.816-.596-.816s-2.181-2.583-2.21-4.22c-.028-1.637 2.95-5.021 2.95-5.021z" fill="#65617D"/><path opacity=".1" d="M472.624 305.96s-2.086 1.542-1.642 2.038c.444.496 1.642-2.038 1.642-2.038zm.095 6.353s3.871-1.241 4.295 0h-4.295zm-23.967 65.943s-2.085 1.365-3.13 1.164a3.73 3.73 0 00-2.11.349 6.269 6.269 0 01-2.629 1.713c-1.685.568-4.043.344-5.384-.1-.634-.21-.687-.477-.381-.821 1.46.291 4.715.869 5.593.449a23.515 23.515 0 002.777-1.738s2.134-.3 2.434-.3c.949-.303 1.879-.66 2.787-1.069l.043.353zm12.623 2.792v.134s-.477 1.093-3.25 1.489c-2.773.396-2.753-.917-2.753-.917s0-.143.028-.353c.85.329 2.754.697 5.975-.353zm-15.963-75.374s0 5.656-.478 6.204c-.477.549.478-6.204.478-6.204zm22.373 1.813l.716 2.024s.286-1.985-.716-2.024zm-17.548-21.693c.181-.477-.296-.921-.358-1.432a.951.951 0 00-.077.449c.029.377.31.726.382 1.074a.745.745 0 00.053-.091zm8.237 5.346c-.182-.783-.129-1.613-.306-2.386-.176-.774-.744-1.599-1.503-1.614-.329 0-.711.12-.955-.124-.143-.148-.171-.382-.281-.563-.544-.878-2.195-.434-2.863 0-1.017.678-2.411 2.091-3.713 1.771-.065.156-.12.315-.167.477 1.326.415 2.763-1.05 3.817-1.742.678-.477 2.334-.897 2.864 0 .11.181.138.415.281.563.239.243.621.119.955.124.759 0 1.312.821 1.498 1.618.187.797.125 1.642.315 2.434a1.304 1.304 0 01.058-.558zm3.732-.931c-.139.392-.477.754-.874.673-.396-.081-.568-.515-.854-.787a1.163 1.163 0 00-1.341-.186 1.352 1.352 0 00-.658 1.202c.102-.303.31-.559.587-.72a1.154 1.154 0 011.336.191c.286.272.477.706.859.787.382.081.735-.282.868-.678.071-.231.117-.47.139-.711a3.689 3.689 0 01-.062.229zm1.164-3.384c-.277.74-.782 1.375-.954 2.148a4.083 4.083 0 00-.077.477c.172-.773.673-1.403.955-2.138.124-.331.201-.678.229-1.031a3.92 3.92 0 01-.153.544z" fill="#000"/><path d="M185.813 108.828h-35.316v36.618h35.316v-36.618zm45.338 0h-35.316v36.618h35.316v-36.618z" fill="#DFE3EF"/><path opacity=".2" d="M276.488 108.828h-35.315v36.618h35.315v-36.618zm45.338 0H286.51v36.618h35.316v-36.618zm45.337 0h-35.315v36.618h35.315v-36.618z" fill="#6C63FF"/><path opacity=".1" d="M364.253 95.2l-28.163 21.311 22.091 29.202 28.163-21.31-22.091-29.202z" fill="#6C63FF"/><path d="M168.155 112.627a5.897 5.897 0 00-5.785 7.052 5.896 5.896 0 008.046 4.296 5.897 5.897 0 003.189-7.71 5.89 5.89 0 00-5.45-3.638zm4.057 7.484c-.23-.076-.669-.1-.836-.296-.081-.1-.028-.477-.028-.477.302.019.605-.04.878-.172.11-.067.062-.076 0-.172-.31-.52-.172-1.179-.186-1.747a1.442 1.442 0 00-.568-1.26 1.798 1.798 0 00-.888-.195 1.965 1.965 0 00-.716.114c-1.202.478-.477 2.076-.906 2.988-.072.158-.172.21 0 .301.259.11.538.17.82.176v.397c-.033.138-.334.233-.448.267a3.478 3.478 0 00-.477.162.12.12 0 00-.055.042.116.116 0 00.055.173c.111.018.222.045.329.081.485.127.932.369 1.303.706.338.338.54.788.568 1.265a.36.36 0 01-.158.33l-.162.1a.082.082 0 01-.04.013.07.07 0 01-.04-.01.076.076 0 01-.03-.029.075.075 0 01-.009-.041 1.913 1.913 0 00-1.299-1.847c-.386-.134-.796-.143-1.178-.277-.12-.038-.349-.091-.396-.22a1.416 1.416 0 01-.053-.42v-.324c0-.105.181-.22.22-.286.127-.279.193-.582.195-.888.248.067.277-.387.32-.53.043-.143.143-.592-.072-.668.066-.13.106-.271.12-.416.072-.37.061-.751-.034-1.116a1.76 1.76 0 00-1.68-1.175 1.807 1.807 0 00-1.072.248 1.806 1.806 0 00-.727.826 2.359 2.359 0 00-.081 1.122c.011.177.057.351.134.511-.182.081-.129.477-.096.606.034.129.086.663.344.592.017.231.054.461.11.687a.968.968 0 00.234.396c.047.057.076.062.071.134a2.91 2.91 0 01-.052.678c-.058.214-.53.305-.721.343a4.11 4.11 0 00-1.174.33 5.116 5.116 0 01-.059-5.112 5.111 5.111 0 014.397-2.606 5.128 5.128 0 014.757 3.126 5.15 5.15 0 01-.013 3.995 1.314 1.314 0 00-.635-.43l.034.005z" fill="#fff"/><path opacity=".5" d="M168.694 139.68v-6.524l3.007 3.007.749-.778-4.295-4.296-4.295 4.296.754.749 3.007-2.978v6.524h1.073zm45.338 0v-6.524l3.007 3.007.749-.778-4.295-4.296-4.295 4.296.749.749 3.011-2.978v6.524h1.074z" fill="#6C63FF"/><path d="M213.66 117.381a.13.13 0 00-.103-.051.126.126 0 00-.057.014.115.115 0 00-.045.037l-2.449 3.25a.121.121 0 00-.028.062.122.122 0 00.008.068.127.127 0 00.042.053.134.134 0 00.064.023l4.296.372a.127.127 0 00.066-.012.12.12 0 00.05-.045.12.12 0 00.003-.129l-1.842-3.628-.005-.014zm2.792 1.728a.13.13 0 00-.103-.051.14.14 0 00-.057.013.127.127 0 00-.045.038l-.659.668a.114.114 0 000 .143l.678 1.318a.115.115 0 00.04.042.118.118 0 00.055.02l1.198.1a.124.124 0 00.117-.057.12.12 0 00.019-.064.113.113 0 00-.017-.065l-1.212-2.091-.014-.014zm.291-1.055a.635.635 0 00.566-.889.625.625 0 00-.625-.369.63.63 0 00.059 1.258z" fill="#fff"/><path d="M218.795 115.524l-1.752-.152-.162-1.785a.725.725 0 00-.787-.654l-7.908.716a.708.708 0 00-.489.255.714.714 0 00-.165.527l.711 7.895a.735.735 0 00.259.488c.073.06.158.105.248.133.091.028.186.037.281.028l.415-.033-.038.443a.72.72 0 00.658.778l7.913.692a.726.726 0 00.782-.658l.697-7.895a.72.72 0 00-.166-.526.72.72 0 00-.492-.252h-.005zm-9.788 4.563a.185.185 0 01-.196-.162l-.477-5.327a.167.167 0 01.006-.07.186.186 0 01.033-.062.181.181 0 01.123-.063l7.431-.668a.183.183 0 01.129.042c.037.03.06.073.066.12l.129 1.408-5.369-.477a.719.719 0 00-.782.653l-.397 4.535-.696.067v.004zm9.645-3.613l-.478 5.327a.18.18 0 01-.195.162l-.478-.043-6.939-.601a.203.203 0 01-.068-.019.198.198 0 01-.056-.044.199.199 0 01-.034-.062.172.172 0 01-.009-.071l.101-1.169.367-4.153a.164.164 0 01.018-.068.176.176 0 01.173-.099l5.273.477.788.072 1.374.119a.179.179 0 01.163.172z" fill="#fff"/><path d="M231.151 181.439h-80.654v60.139h80.654v-60.139z" fill="#DFE3EF"/><path d="M200.078 199.91a28.33 28.33 0 00-25.679 3.705 28.325 28.325 0 00-11.89 23.062 2.009 2.009 0 11-4.018 0 32.357 32.357 0 0113.52-26.293 32.348 32.348 0 0129.245-4.321" fill="#6C63FF"/><path d="M201.256 196.063a32.396 32.396 0 0121.901 30.614 2.01 2.01 0 01-4.018 0 28.375 28.375 0 00-19.061-26.767" fill="#fff"/><path d="M193.802 212.377h-.034a3.513 3.513 0 00-2.944 1.613 3.51 3.51 0 00-1.268-1.18 3.51 3.51 0 00-1.677-.433h-.033a3.507 3.507 0 00-2.459 1.036 3.506 3.506 0 00-1.015 2.467 7.53 7.53 0 001.484 4.119c1.866 2.554 4.968 4.773 4.968 4.773s3.102-2.233 4.968-4.773a7.537 7.537 0 001.484-4.119 3.502 3.502 0 00-3.474-3.503z" fill="#6C63FF"/><path d="M375.754 156.3H253.395v91.005h122.359V156.3z" fill="#DFE3EF"/><path d="M271 224.782h-5.011v16.796H271v-16.796zm9.545-20.791h-5.011v37.587h5.011v-37.587z" fill="#fff"/><path d="M290.09 185.257h-5.011v56.321h5.011v-56.321z" fill="#DFE3EF"/><path d="M299.634 171.893h-5.011v69.685h5.011v-69.685z" fill="#fff"/><path d="M290.09 171.893h-5.011v69.685h5.011v-69.685zm19.089 31.382h-5.011v38.303h5.011v-38.303z" fill="#6C63FF"/><path d="M318.724 193.371h-5.011v48.207h5.011v-48.207zm9.545-15.035h-5.011v63.242h5.011v-63.242z" fill="#fff"/><path opacity=".2" d="M337.813 213.417h-5.011v28.161h5.011v-28.161zm9.545-13.006h-5.011v41.167h5.011v-41.167zm9.545-15.154h-5.011v56.321h5.011v-56.321zm9.545 0h-5.011v56.321h5.011v-56.321z" fill="#6C63FF"/><path d="M389.432 147.508l4.906-2.759 2.3 1.379 45.977 221.331-2.754.525-5.746-4.987-44.683-215.489z" fill="#65617D"/><path opacity=".1" d="M394.338 144.749l45.523 223.235 2.754-.525-45.977-221.331-2.3-1.379z" fill="#000"/><path d="M360.497 156.849l34.991 3.35v2.706l-34.805-3.03-.186-3.026zm3.708 32.971h37.105v3.962h-37.582l.477-3.962zm3.402 34.57l37.459-1.489 4.686 1.489v2.54l-33.282 1.751h-8.557l-.306-4.291z" fill="#65617D"/><path opacity=".1" d="M376.947 226.452l32.805-2.062v2.54l-33.282 1.751.477-2.229z" fill="#000"/><path opacity=".1" d="M367.607 224.39l9.34 2.062-.477 2.229h-8.557l-.306-4.291z" fill="#000"/><path d="M371 261.91l41.358-3.837 4.558 1.189v2.648l-36.943 3.881-8.973.797v-4.678z" fill="#65617D"/><path opacity=".1" d="M379.815 263.562l32.992-3.317 4.109-.983v2.649l-36.943 3.88-.158-2.229z" fill="#000"/><path opacity=".1" d="M370.447 264.049l9.368-.487.158 2.229-8.972.797-.554-2.539z" fill="#000"/><path d="M372.967 299.225l46.64-6.195 4 1.59v3.026l-40.232 6.052h-9.454l-.954-4.473z" fill="#65617D"/><path opacity=".1" d="M383.375 301.784l40.232-7.164v3.026l-40.232 6.052v-1.914zm-9.85.052l9.85-.052v1.914h-9.454l-.396-1.862z" fill="#000"/><path d="M375.721 337.648l51.16-9.542 4.529 2.664v2.105l-44.889 10.891-9.254.702-1.546-6.82z" fill="#65617D"/><path opacity=".1" d="M386.521 341.6l44.889-10.83v2.105l-44.889 10.892V341.6zm-9.793.491l9.792-.491v2.166l-9.253.702-.539-2.377z" fill="#000"/><path d="M363.756 141.99l-4.138.921 14.948 237.999 4.366 1.608h3.451L363.756 141.99z" fill="#65617D"/><path opacity=".1" d="M361.737 142.439l17.195 240.079h3.451L363.756 141.99l-2.019.449z" fill="#000"/><path d="M368.574 93.705l-28.164 21.31 22.091 29.202 28.163-21.31-22.09-29.202z" fill="#fff"/><path d="M368.574 93.705l-28.164 21.31 22.091 29.202 28.163-21.31-22.09-29.202z" fill="#DFE3EF"/><path opacity=".5" d="M373.831 129.037l-3.933-5.213 4.209.583.129-1.074-6.013-.835-.821 6.028 1.05.148.601-4.191 3.938 5.203.84-.649z" fill="#6C63FF"/><path d="M364.539 117.663a5.537 5.537 0 01-6.171.34 5.532 5.532 0 01-2.634-5.591.458.458 0 01.175-.291.46.46 0 01.331-.081.45.45 0 01.372.511 4.637 4.637 0 002.202 4.704 4.641 4.641 0 005.185-.28 4.638 4.638 0 001.711-2.95 4.64 4.64 0 00-6.96-4.686l1.045 1.379a.446.446 0 01-.112.59.454.454 0 01-.31.09.453.453 0 01-.289-.141l-1.327-1.751a.45.45 0 01.086-.626 5.537 5.537 0 016.681 8.826l.015-.043z" fill="#fff"/><path d="M357.881 112.508l3.389-.081a.83.83 0 01.915.81.839.839 0 01-.25.617.826.826 0 01-.622.238.787.787 0 01-.268-.038l-3.24-1.002a.284.284 0 01-.163-.137.266.266 0 01-.03-.104.276.276 0 01.11-.246.28.28 0 01.159-.057z" fill="#fff"/><path d="M400.895 225.164c-.353-1.28-.582-2.387-.582-2.387a5.05 5.05 0 00-.654-2.439v-.353l-.1-2.597c.162-.477.365-.94.606-1.384.434-.835-.148-3.818-.148-3.818s-1.909-4.152-1.575-6.844c.334-2.692-4.019-11.742-4.019-11.742-.011-.889.081-1.776.272-2.644.035-.182.045-.369.029-.554a.375.375 0 000-.067c-.129-1.761-1.651-5.016-1.651-5.016l-.053-6.31s.745-3.751-.897-8.682a46.208 46.208 0 01-1.203-4.171c-.028-.12-.052-.239-.076-.349 2.969-.572 5.25-1.04 5.25-1.04s-2.014-7.188-3.236-8.41c-1.222-1.222-2.31-5.179-2.31-5.179s-.806-5.102.12-6.639c.925-1.537.954-4.124.954-4.124s2.186-1.718 2.439-2.453c.357-1.049.568-2.143.625-3.25-.034-.86-.344-1.623-.267-2.077.076-.453-.74-2.152-.396-2.983.089-.254.129-.523.119-.792v-.024a11.122 11.122 0 00-.277-2.119 6.047 6.047 0 00-2.272-1.107l-.057-.191-.148-.506a2.093 2.093 0 00-.224-.12v-.186l-.048-.735.291-1.67c.578-2.907-3.278-3.189-3.278-3.189a2.033 2.033 0 00-1.16-.916c-.783-.243.038 4.334.41 4.615a17.425 17.425 0 011.609 2.315l.066.115c-.06.059-.116.123-.167.191l.187.992.028.153a3.992 3.992 0 00-.572 1.069 2.247 2.247 0 01.625 1.609c-.03.675.074 1.35.305 1.985-.043-.043-.558-.563-1.045-.41-.487.153-1.852.616-1.852.616s-1.026.219-.921.444c.105.224-.654 1.25-.654 1.25l-2.863-2.515c-.029-.081-.062-.158-.091-.239a6.64 6.64 0 01-.281-1.136c.298-.086.59-.193.873-.32a1.91 1.91 0 00.749-.52c.218-.369.353-.781.396-1.208.263-.799.582-1.579.955-2.333a7.475 7.475 0 00.396-4.139 2.75 2.75 0 00-.477-1.188c-.477-.601-1.308-.826-1.909-1.298-.602-.473-1.026-1.217-1.737-1.561a3.31 3.31 0 00-2.11-.1 11.344 11.344 0 00-3.899 1.613 2.002 2.002 0 01-1.293.477 1.772 1.772 0 01-.955-.658v-.039l-.028-.038a4.825 4.825 0 00-.353 2.091c0 .108.009.218.028.329a1.103 1.103 0 000 .115.557.557 0 010 .1.732.732 0 010 .148 1.073 1.073 0 01-.248.382 2.396 2.396 0 00-.21.315.945.945 0 01.034-.115 1.655 1.655 0 00-.258.888.9.9 0 00.234.616c.147.129.307.244.477.343a4.95 4.95 0 00-.048.926c.039.922.316 1.819.804 2.602a5.346 5.346 0 001.978 1.87c.039.077.072.153.105.234.438.938.65 1.964.621 2.998 0 .076 0 .148-.029.224l-.095.119s-4.567.22-5.684-.716c-1.117-.935-2.625 2.487-2.625 2.487s-1.627.382-1.966.077c-.339-.306-2.253.042-2.253.042a4.141 4.141 0 00-2.897-.954 8.482 8.482 0 00-2.142-1.084h-.058a2.372 2.372 0 00-1.035-.09s-2.32-1.771-3.016-2.745c-.697-.973-3.957-4.553-3.976-4.567v-.177l-.057-.539a1.67 1.67 0 01-.282.033l-.066-.181a9.91 9.91 0 00-.726-1.499s0-.683.167-.859c.167-.177-.186-2.663-.186-2.663s-2.205-4.659-3.885-1.05c0 0-3.34 2.419-.362 4.973 0 0 1.169.511 1.35.955.12.286.539 1.069.821 1.589l.129.234-.033.028.062.444v.172c-.53.329-.883.649-.788.878.176.385.303.791.377 1.208 0 0 4.176 4.835 4.773 6.949 0 0 10.924 5.938 14.455 6.258l-.477 3.193s-.115 1.909-.043 2.591c.071.683-.277 3.781-.277 3.781s-.434 4.558-.926 5.212c-.491.654-.291 3.374-.291 3.374a22.895 22.895 0 01-.553 3.881 9.839 9.839 0 000 3.861s-1.623 4.148 2.534 1.217c0 0 2.09-.21 4.495-.387v1.241c.058 2.339.167 5.561.368 7.995.353 4.296 1.995 12.777 1.995 12.777l.162 4.296a6.187 6.187 0 00-.076 1.231 7.952 7.952 0 001.317 4.243l.439 2.864s.844 1.852.902 2.974c0 .092-.008.185-.024.277a1.791 1.791 0 000 .439c0 1.298.907 4.372.907 4.372s.167 3.126.644 3.288c.477.162-.477 1.823-.73 2.306v-.086l-.053.095a2.299 2.299 0 00-.119.797 1.147 1.147 0 00.563 1.079c.912.511 1.408.954.659 1.155a8.113 8.113 0 00-.816.205c0-.033-.034-.071-.043-.1a.479.479 0 00-.291.558c.023.37.133.73.319 1.05.365.805.821 1.564 1.36 2.263l.358-.053c-.048.14-.114.273-.195.396a1.48 1.48 0 01-.511.478 1.734 1.734 0 01-.63.248 1.786 1.786 0 00-1.303.697c-.444.62-.706 1.456.244 2.143l3.398 1.026s5.76.468 5.426-.807c-.334-1.274-.587-2.386-.587-2.386a5.18 5.18 0 00-.554-2.277 3.132 3.132 0 00-.219-.329l.205-.029s.31-2.864.849-3.441c.129-.129.153-.229.12-.301.052-.157-.101-.243-.292-.286 0 .038-.023.071-.033.114a2.949 2.949 0 00-.563-.043s-.243-1.489.344-2.057a.587.587 0 00.1-.448 2.443 2.443 0 00-.086-.607.097.097 0 000 .034 22.155 22.155 0 00-1.484-3.46s-.096-1.361.257-1.91c.354-.549-.334-7.388-.334-7.388s0-3.317-.477-4.845c-.477-1.527.387-3.374.387-3.374v-.096s-.029-.205-.077-.52v.034c-.129-.874-.367-2.454-.529-3.184-.225-1.036-.182-6.033-.182-6.033l.759-2.162 1.642 3.613 1.78 4.835c.476.591.783 1.3.887 2.052v.153a2.58 2.58 0 000 .329c-.002.62.192 1.225.554 1.728 0 0 .511 2.296 1.188 2.864.439.46.695 1.064.721 1.699 0 0 .926 3.341 1.322 3.9.339.477.406 1.851.42 2.267v.124s.153 1.193.191 2.205v.329a3.74 3.74 0 01-.105.759.193.193 0 000 .048v-.172a8.554 8.554 0 00-.158 2.1c.024 1.208.263 2.63 1.026 3.441 1.322 1.404 2.11 1.189 2.11 1.189s-.539 1.838-1.274 2.229a.29.29 0 00-.077.057 1.838 1.838 0 010-.105.874.874 0 00-.195.683 4.836 4.836 0 001.03 2.653c.185.167.408.285.649.344l-.114.076a1.853 1.853 0 01-.253.134c-.121.057-.25.095-.382.115a1.797 1.797 0 00-1.303.697c-.439.62-.701 1.455.248 2.143l3.394 1.026s5.765.525 5.407-.754z" fill="url(#paint1_linear)"/><path d="M378.971 228.152l-3.289-1.031c-.921-.688-.668-1.523-.238-2.143a1.733 1.733 0 011.26-.697c.219-.036.427-.119.611-.244a1.44 1.44 0 00.477-.477c.223-.385.333-.825.32-1.27 0 0 3.522-1.179 4.533-.171.191.178.352.386.478.615.348.707.532 1.484.539 2.272 0 0 .229 1.127.573 2.387.343 1.26-5.264.759-5.264.759zm15.811-2.187l-3.289-1.03c-.921-.693-.668-1.528-.243-2.144a1.705 1.705 0 011.26-.696c.128-.016.253-.055.367-.115.084-.037.166-.08.244-.129.887-.534.821-1.761.821-1.761s3.517-1.179 4.533-.172c.136.135.257.286.358.449.411.749.631 1.589.64 2.444 0 0 .224 1.126.568 2.386.343 1.26-5.259.768-5.259.768z" fill="#2D293D"/><path opacity=".1" d="M382.674 222.109c.19.179.351.387.477.616l-5.312.825c.223-.385.334-.825.32-1.269 0 0 3.494-1.179 4.515-.172zm16.159-1.761l.038.997c-.778 1.404-4.801 1.256-5.994.616.084-.037.165-.08.244-.129.887-.534.82-1.761.82-1.761s3.518-1.179 4.534-.172c.136.135.256.286.358.449z" fill="#000"/><path d="M399.301 216.019a8.985 8.985 0 00-.582 1.384l.138 3.58c-.849 1.532-5.584 1.217-6.252.424-.668-.792-1.431-2.897-.716-3.288.716-.392 1.232-2.229 1.232-2.229s-.764.215-2.043-1.193c-1.279-1.408-1.04-4.635-.845-5.418.196-.783-.128-3.341-.128-3.341s-.024-1.814-.411-2.386c-.386-.573-1.284-3.9-1.284-3.9a2.673 2.673 0 00-.701-1.699c-.659-.563-1.155-2.864-1.155-2.864a2.996 2.996 0 01-.53-1.909c.096-1.141-.859-2.329-.859-2.329l-1.732-4.84-1.589-3.618-.735 2.162s-.039 4.998.186 6.033c.224 1.036.601 3.795.601 3.795s-.84 1.847-.372 3.374c.467 1.528.477 4.84.477 4.84s.673 6.835.329 7.389c-.343.553-.243 1.909-.243 1.909s2.014 3.918 1.432 4.486c-.583.568-.33 2.058-.33 2.058s1.27-.053.745.515c-.525.568-.821 3.437-.821 3.437l-5.46.844a11.595 11.595 0 01-1.317-2.262c-.787-1.651.081-1.504.802-1.714.721-.21.243-.644-.64-1.155-.882-.51-.429-1.756-.429-1.756s1.231-2.272.768-2.434c-.463-.163-.625-3.294-.625-3.294s-1.05-3.679-.859-4.687c.191-1.007-.859-3.374-.859-3.374l-.425-2.864a7.855 7.855 0 01-1.207-5.355l-.167-4.401s-1.599-8.476-1.947-12.777c-.22-2.754-.334-6.52-.387-8.873a247.264 247.264 0 01-.038-2.191l19.51-2.806c.07.978.23 1.948.477 2.897.238 1.069.606 2.449 1.164 4.172 1.599 4.935.878 8.686.878 8.686l.062 6.31s1.909 4.153 1.58 5.613a12.232 12.232 0 00-.262 2.644s4.209 9.069 3.903 11.751c-.305 2.683 1.532 6.845 1.532 6.845s.559 2.973.134 3.809z" fill="#575988"/><path opacity=".05" d="M387.193 192.822l5.932-1.021s-3.245 3.575-5.932 1.021z" fill="#000"/><path opacity=".1" d="M392.037 186.006s.286 2.101-.954 2.945c-.019 0 2.276-.453.954-2.945zm-.62-6.696s-4.83 4.296-6.653 4.024c-1.823-.272 6.653-4.024 6.653-4.024zm-11.54 15.727s-3.751 1.007-3.818 2.529c-.067 1.523 3.818-2.529 3.818-2.529z" fill="#000"/><path opacity=".05" d="M381.438 213.914s-5.312 1.203-3.766 1.823c1.321.466 2.678.823 4.057 1.069 0 0 1.727.024-.291-2.892zm-4.806 2.945a1.063 1.063 0 01-.52-.759l-.052.1s-.449 1.241.434 1.752l.286.176c.158-.038.329-.067.477-.114.735-.21.258-.64-.625-1.155zm6.877-.63c.143-.139.124-.478 0-.955-.201.41-.288.867-.253 1.322.058-.139.144-.264.253-.367zM381.82 193.7a6.192 6.192 0 00-.301 1.685c.089-.398.213-.788.372-1.164l-.071-.521zm12.155-2.849c.03-.165.041-.333.034-.501a10.93 10.93 0 00-.115.954c.024-.181.053-.305.081-.453zm-11.664 18.977c.089-.329.121-.671.096-1.012a3.486 3.486 0 00-.215 1.279c.029-.093.069-.183.119-.267zm1.451 8.501c-.247.921-.42 1.862-.515 2.811l-5.46.845a11.573 11.573 0 01-1.317-2.263 5.703 5.703 0 01-.172-.396c-.32.163-.439.511.033 1.489.35.805.792 1.566 1.318 2.268l5.455-.85s.3-2.864.82-3.436c.258-.273.082-.401-.162-.468zm-7.559-7.857s.167 3.127.63 3.289c.21-.53.343-1.026.138-1.098-.477-.167-.625-3.293-.625-3.293s-1.05-3.68-.864-4.687c.186-1.007-.854-3.375-.854-3.375l-.43-2.863a7.85 7.85 0 01-1.202-5.36l-.172-4.396s-1.599-8.477-1.943-12.777c-.224-2.754-.334-6.52-.386-8.873 0-.425 0-.802-.024-1.117h-.158s0 .873.039 2.195c.052 2.349.167 6.115.386 8.869.349 4.295 1.947 12.777 1.947 12.777l.167 4.4a7.86 7.86 0 001.232 5.399l.424 2.863s1.046 2.387.859 3.375c-.186.988.836 4.672.836 4.672zm16.541 9.718a5.33 5.33 0 01-.955-2.124c-.544.53.177 2.468.811 3.217.635.75 5.398 1.112 6.248-.42l-.034-.864c-1.174 1.26-5.44.941-6.07.191zm6.695-5.388a8.532 8.532 0 00-.582 1.384l.024.635c.124-.316.264-.625.42-.926a2.81 2.81 0 00.153-1.132l-.015.039zm-6.585.968c.159-.356.294-.723.405-1.097 0 0-.763.214-2.047-1.194-.931-1.021-1.055-3.011-.955-4.295-.2.778-.439 4.014.84 5.417.816.893 1.427 1.122 1.757 1.169zm-2.754-9.965c.115.889.18 1.785.195 2.682 0-.177.053-.32.077-.425.2-.778-.129-3.341-.129-3.341s-.029-1.814-.411-2.386c-.381-.573-1.288-3.9-1.288-3.9a2.664 2.664 0 00-.702-1.699c-.653-.563-1.15-2.864-1.15-2.864a2.939 2.939 0 01-.529-1.909c.09-1.141-.864-2.329-.864-2.329l-1.728-4.84-1.594-3.618-.735 2.124v.692l.597-1.756 1.594 3.618 1.727 4.835s.955 1.188.864 2.329a2.96 2.96 0 00.525 1.909s.477 2.296 1.155 2.864c.427.463.676 1.064.702 1.694 0 0 .902 3.341 1.283 3.904.382.564.411 2.416.411 2.416z" fill="#000"/><path d="M390.696 122.23l-.276 1.666.047.74.038.539-1.885.268-.229-.382a16.807 16.807 0 00-1.556-2.32c-.362-.282-1.164-4.859-.405-4.615a1.99 1.99 0 011.093.911s3.741.287 3.173 3.193z" fill="#FFCDD3"/><path opacity=".1" d="M390.505 125.175l-1.885.268-.229-.382a1.662 1.662 0 012.076-.425l.038.539z" fill="#000"/><path d="M391.016 126.053l-2.472.678-.067-.372-.181-.993a1.723 1.723 0 012.386-.425l.143.506.191.606z" fill="#DCE6F2"/><path d="M350.465 123.958l-2.606 1.532-.262-.477c-.272-.52-.683-1.308-.797-1.589-.177-.435-1.308-.955-1.308-.955-2.892-2.558.344-4.973.344-4.973 1.622-3.604 3.765 1.054 3.765 1.054s.368 2.487.182 2.664c-.187.176-.163.859-.163.859.275.479.51.98.702 1.499.095.252.143.386.143.386z" fill="#FFCDD3"/><path opacity=".1" d="M350.465 123.958l-2.606 1.532-.262-.477c.363-.329 1.656-1.461 2.095-1.432.21.019.42.019.63 0 .095.243.143.377.143.377z" fill="#000"/><path d="M350.766 124.779l-2.93 1.566-.082-.645-.062-.439s1.68-1.556 2.191-1.518c.261.028.525.017.783-.033l.057.539.043.53z" fill="#DCE6F2"/><path d="M383.867 133.504s-12.991 1.976-10.585 1.088c1.68-.615 2.31-1.723 2.386-2.926a6.866 6.866 0 00-.601-3.002 12.845 12.845 0 00-1.256-2.31s9.765-5.871 7.961-.806a8.04 8.04 0 00-.477 2.386 6.71 6.71 0 00.348 2.386 7.157 7.157 0 002.224 3.184z" fill="#FFCDD3"/><path opacity=".1" d="M381.791 125.548a8.04 8.04 0 00-.477 2.386c-.907.826-1.943.811-3.265.864-1.016.038-2.133.329-2.963-.134a12.84 12.84 0 00-1.255-2.31s9.764-5.871 7.96-.806z" fill="#000"/><path d="M377.682 129.151a5.398 5.398 0 100-10.797 5.398 5.398 0 000 10.797z" fill="#FFCDD3"/><path opacity=".1" d="M383.867 133.504s-12.991 1.976-10.585 1.088c1.68-.615 2.31-1.723 2.386-2.926.625-.725 1.909-1.283 2.739-1.589a3.927 3.927 0 012.363-.129c.307.081.601.204.873.368a7.16 7.16 0 002.224 3.188zm7.149-7.451l-2.472.678-.067-.372a2.208 2.208 0 012.386-.912l.153.606zm-40.25-1.274l-2.93 1.566-.082-.645a22.217 22.217 0 012.969-1.432l.043.511zm39.544 41.41c-5.026.993-12.175 2.31-13.33 2.005-.954-.253-3.98-.105-6.609.086-.029-1.318-.038-2.191-.038-2.191l19.499-2.797c.071.978.231 1.948.478 2.897z" fill="#000"/><path d="M395.287 164.81s-16.531 3.498-18.34 3.021c-1.809-.477-10.977.477-10.977.477-4.018 2.926-2.453-1.222-2.453-1.222a10.111 10.111 0 010-3.861c.29-1.279.472-2.58.545-3.89 0 0-.196-2.716.276-3.369.473-.654.888-5.213.888-5.213s.334-3.102.267-3.78c-.067-.677.034-2.591.034-2.591l.477-3.194c-3.417-.324-13.998-6.276-13.998-6.276-.582-2.11-4.629-6.949-4.629-6.949a5.136 5.136 0 00-.362-1.213c-.301-.716 3.722-2.324 3.722-2.324s3.183 3.603 3.856 4.577c.673.974 2.921 2.745 2.921 2.745a2.17 2.17 0 011.002.095.235.235 0 01.053 0c.741.26 1.44.626 2.076 1.088a3.935 3.935 0 012.801.955s1.852-.344 2.181-.038c.329.305 1.909-.072 1.909-.072s1.455-3.417 2.539-2.482c1.083.936 5.502.721 5.502.721.559-.807 1.971-1.432 2.864-1.752a3.923 3.923 0 012.362-.129c.34.083.662.224.955.416l2.782 2.524s.735-1.026.635-1.25c-.101-.224.892-.439.892-.439s1.298-.477 1.79-.616c.491-.138.954.368 1.016.411a5.24 5.24 0 01-.305-1.981 2.269 2.269 0 00-.606-1.613c1.431-3.962 5.144-.836 5.144-.836s.477 2.12.158 2.95c-.32.83.477 2.525.386 2.978-.09.454.229 1.217.263 2.081a12.371 12.371 0 01-.602 3.246c-.243.74-2.357 2.453-2.357 2.453s-.034 2.592-.955 4.124c-.921 1.532-.109 6.634-.109 6.634s1.064 3.957 2.243 5.184c1.178 1.226 3.154 8.41 3.154 8.41z" fill="#656691"/><path opacity=".1" d="M369.884 135.905s-.559-1.475-1.017-1.594c-.457-.15-.903-.33-1.336-.54l.272-.568s1.718.401 2.009.888c.291.487.072 1.814.072 1.814zm-9.239-2.959c-.077.477-4.095 1.021-4.095 1.021l1.961-2.124h.053a8.07 8.07 0 012.081 1.103z" fill="#000"/><path d="M348.728 127.533a.363.363 0 100-.726.363.363 0 000 .726zm.491.706a.362.362 0 10.002-.724.362.362 0 00-.002.724zm.482.654a.362.362 0 10.002-.724.362.362 0 00-.002.724zm.502.707a.363.363 0 10-.002-.726.363.363 0 00.002.726zm42.736-1.752a.295.295 0 10.001-.59.295.295 0 00-.001.59zm.072.668a.296.296 0 100-.592.296.296 0 000 .592zm.067.664a.296.296 0 10-.002-.592.296.296 0 00.002.592z" fill="#575988"/><path opacity=".1" d="M370.38 148.195c-.048-.052 10.671 12.462 18.321 4.697 0 0-12.475 2.186-18.321-4.697zm-5.617 6.935s6.123-.067 6.834 1.666l.067 1.833a1.165 1.165 0 01-1.136.043c-.63-.31-4.4-2.048-5.669-1.093l-.096-2.449z" fill="#000"/><path d="M364.878 155.125s5.855-.066 6.533 1.59l.067 1.747a1.128 1.128 0 01-1.088.038c-.602-.291-4.209-1.947-5.422-1.041l-.09-2.334z" fill="#656691"/><path opacity=".1" d="M367.593 141.718c.68 1.424 1.53 2.76 2.53 3.981a15.934 15.934 0 003.851 3.441s-6.247-6.582-6.381-7.422zm-2.276-7.03s1.193 4.367 3.88 5.761l-3.88-5.761zm-1.547.506c-.028-.081-.773 3.517 3.599 5.326 0 .01-1.847-.549-3.599-5.326zm26.592-3.981c-.067 0 2.177 1.313 2.792 1.909.019.024-1.503-2.052-2.792-1.909z" fill="#000"/><path d="M376.408 128.702c.056.285.216.538.448.712.163.07.339.102.516.095 1.646.038 3.364.043 4.858-.649.281-.112.53-.29.725-.52a3.04 3.04 0 00.387-1.208 16.87 16.87 0 01.907-2.334c.5-1.317.631-2.747.377-4.133a2.84 2.84 0 00-.477-1.189c-.478-.606-1.265-.83-1.862-1.303-.596-.472-.997-1.217-1.684-1.565a3.14 3.14 0 00-2.043-.1c-1.337.28-2.608.813-3.746 1.57a1.878 1.878 0 01-1.251.477 1.747 1.747 0 01-.954-.678 4.987 4.987 0 00-.31 2.363c.019.119.019.239 0 .358a1.073 1.073 0 01-.239.382c-.386.477-.611 1.241-.191 1.704.182.2.477.305.635.506.315.367.234.916.248 1.403-.014.17.033.34.134.477a.684.684 0 00.673.134c.227-.076.467-.108.706-.096.256.077.479.236.635.454.717.93 1.23 2 1.508 3.14z" fill="#2D293D"/><path opacity=".1" d="M383.118 127.92a1.849 1.849 0 01-.721.52c-1.498.692-3.212.682-4.863.644-.175.01-.35-.023-.511-.095a1.119 1.119 0 01-.448-.711 8.464 8.464 0 00-1.499-3.141 1.168 1.168 0 00-.634-.449c-.24-.015-.48.017-.707.096a.716.716 0 01-.673-.134.733.733 0 01-.138-.477c0-.477.072-1.036-.248-1.403-.177-.206-.449-.306-.635-.511a1.06 1.06 0 01-.143-1.079 1.249 1.249 0 000 1.432c.186.201.477.301.635.506.319.368.238.916.248 1.403a.736.736 0 00.138.478.688.688 0 00.673.133 1.9 1.9 0 01.706-.095c.256.076.48.236.635.453a8.412 8.412 0 011.499 3.136c.052.287.213.543.448.716.161.07.336.103.511.095 1.651.039 3.341.043 4.863-.649.28-.11.528-.289.721-.52.098-.134.172-.284.219-.444l-.076.096zm-10.8-7.437a.72.72 0 00.152-.281.952.952 0 000-.353 5.06 5.06 0 01.177-1.962l-.029-.033a4.996 4.996 0 00-.315 2.362c.015.088.019.178.015.267zm3.255 11.527s6.776.635 7.339-.406l-7.339.406zm12.995-3.293s3.746-.143 4.624 1.231l-4.624-1.231z" fill="#000"/><path d="M430.857 295.425l-35.315-.055-.058 36.618 35.316.055.057-36.618z" fill="#fff"/><path d="M430.857 295.425l-35.315-.055-.058 36.618 35.316.055.057-36.618z" fill="#fff"/><path opacity=".5" d="M413.666 326.78v-6.52l3.002 3.011.754-.778-4.296-4.295-4.295 4.295.75.75 3.011-2.974v6.525l1.074-.014z" fill="#6C63FF"/><path d="M407.28 304.69h5.856v-5.851h-.42a5.445 5.445 0 00-5.436 5.851z" fill="#DFE3EF"/><path d="M409.304 308.537a5.438 5.438 0 002.13 1.611 5.438 5.438 0 005.155-.491 5.448 5.448 0 002.417-4.58 5.45 5.45 0 00-5.035-5.384v5.837h-5.851a5.43 5.43 0 001.184 3.007z" fill="#DFE3EF"/><path d="M102.029 49.295c-3.078 6.358-8.113 13.598-13.807 10.83-5.693-2.769-9.945-14.49-6.867-20.848 3.078-6.358 10.203-9.274 15.93-6.506 5.727 2.768 7.827 10.162 4.744 16.524z" fill="#6C63FF"/><path d="M89.845 64.163s-1.112-.182-.687-1.103a1.5 1.5 0 01.133-.234c.171-.26.294-.55.363-.854a2.74 2.74 0 00.062-.325c.067-.492.05-.993-.052-1.48l3.03-.2s-1.179 1.007-1.04 1.528a.32.32 0 00.138.186.68.68 0 00.2.086c.078.017.155.04.23.066.797.277.477.683.477.683-.12 1.289-2.854 1.647-2.854 1.647z" fill="#6C63FF"/><path d="M91.792 61.666l-2.138.292c.027-.107.048-.216.062-.325.54 0 1.394-.1 1.938-.153.021.077.07.144.138.187z" fill="#444053"/><path d="M89.845 64.163s-1.112-.182-.687-1.103c.43.104.876.122 1.312.053a2.916 2.916 0 001.752-1.28c.797.277.477.683.477.683-.12 1.289-2.854 1.647-2.854 1.647z" fill="#6C63FF"/><path opacity=".1" d="M89.845 64.163s-1.112-.182-.687-1.103c.43.104.876.122 1.312.053a2.916 2.916 0 001.752-1.28c.797.277.477.683.477.683-.12 1.289-2.854 1.647-2.854 1.647z" fill="#000"/><path opacity=".1" d="M91.463 33.425s-3.388-.406-4.348 1.847a2.806 2.806 0 011.217.072c.249.112.52.165.792.152a4.543 4.543 0 012.339-2.071z" fill="#fff"/><path d="M84.734 79.55a8.736 8.736 0 01-1.91 1.585c-.195.124-.4.248-.61.363-5.398 2.969-14.938 3.021-19.41-.921-4.175-3.68-5.616-9.198-3.994-13.708.081-.22.167-.434.263-.654a10.402 10.402 0 011.732-2.716c3.393-3.847 9.068-4.63 13.93-2.31.432.203.85.431 1.256.683a14.018 14.018 0 012.014 1.475c.248.22.477.443.749.672l.062.058a37.302 37.302 0 014.233 4.505c.391.502.764 1.008 1.093 1.523.234.353.477.711.659 1.07a9.404 9.404 0 011.403 4.772c0 .153 0 .306-.034.477v.072a5.294 5.294 0 01-.525 1.752c-.246.471-.552.91-.911 1.303z" fill="#6C63FF"/><path opacity=".1" d="M84.734 79.55a8.736 8.736 0 01-1.91 1.585c-.195.124-.4.248-.61.363-5.398 2.969-14.938 3.021-19.41-.921-4.175-3.68-5.616-9.198-3.994-13.708.081-.22.167-.434.263-.654a10.402 10.402 0 011.732-2.716c3.393-3.847 9.068-4.63 13.93-2.31.432.203.85.431 1.256.683a14.018 14.018 0 012.014 1.475c.248.22.477.443.749.672l.062.058a37.302 37.302 0 014.233 4.505c.391.502.764 1.008 1.093 1.523.234.353.477.711.659 1.07a9.404 9.404 0 011.403 4.772c0 .153 0 .306-.034.477v.072a5.294 5.294 0 01-.525 1.752c-.246.471-.552.91-.911 1.303z" fill="#000"/><path d="M87.802 79.436a1.429 1.429 0 01-.19-.19 2.602 2.602 0 00-.726-.578 2.51 2.51 0 00-.3-.148 3.943 3.943 0 00-.955-.287 3.417 3.417 0 00-.477-.057l.43-2.052v-.029l.185-.892c.125.26.268.51.43.749.22.334.477.659.764.663a.348.348 0 00.21-.086.586.586 0 00.138-.171c.048-.077.086-.144.129-.206.477-.687.778-.253.778-.253.544.196.768.84.85 1.494 0 .096.009.191.028.287.027.463.01.928-.048 1.389 0 0-.472 1.021-1.246.367z" fill="#6C63FF"/><path d="M86.886 78.663a2.502 2.502 0 00-.3-.148c.104-.444.233-1.117.324-1.637 0-.038 0-.072.024-.11.024-.038 0-.11.029-.157a.348.348 0 00.21-.086l-.044.324v.13l-.243 1.684z" fill="#444053"/><path d="M87.802 79.436a3.47 3.47 0 00.401-1.255 2.68 2.68 0 00-.09-.788c-.024-.08-.043-.152-.072-.229a2.353 2.353 0 00-.601-1.012c.477-.687.778-.253.778-.253.544.196.768.84.85 1.494 0 .096.009.191.028.287.027.463.01.928-.048 1.389 0 0-.472 1.021-1.246.367z" fill="#6C63FF"/><path opacity=".1" d="M87.802 79.436a3.47 3.47 0 00.401-1.255 2.68 2.68 0 00-.09-.788c-.024-.08-.043-.152-.072-.229a2.353 2.353 0 00-.601-1.012c.477-.687.778-.253.778-.253.544.196.768.84.85 1.494 0 .096.009.191.028.287.027.463.01.928-.048 1.389 0 0-.472 1.021-1.246.367z" fill="#000"/><path opacity=".1" d="M59.884 69.275s-1.298 3.154.616 4.687a2.73 2.73 0 01.396-1.156 1.7 1.7 0 00.358-.725 4.525 4.525 0 01-1.37-2.806z" fill="#fff"/><path d="M108.462 59.805c-2.577 1.656-5.55 3.26-8.376 4.11-2.171.663-4.252.868-5.994.315a5.416 5.416 0 01-2.033-1.17 6.055 6.055 0 01-1.026-1.222c-2.019-3.155-1.98-8.7-.382-13.507 1.112-3.341 2.969-6.3 5.407-7.861 5.947-3.819 13.545-2.582 16.971 2.759 3.427 5.34 1.379 12.762-4.567 16.576z" fill="#6C63FF"/><path opacity=".1" d="M108.462 59.805c-2.577 1.656-5.55 3.26-8.376 4.11-2.171.663-4.252.868-5.994.315a5.416 5.416 0 01-2.033-1.17 6.055 6.055 0 01-1.026-1.222c-2.019-3.155-1.98-8.7-.382-13.507 1.112-3.341 2.969-6.3 5.407-7.861 5.947-3.819 13.545-2.582 16.971 2.759 3.427 5.34 1.379 12.762-4.567 16.576z" fill="#000"/><path d="M93.591 66.186c-.763 1.065-3.274-.071-3.274-.071s-.854-.74 0-1.298a1.86 1.86 0 01.239-.13 2.83 2.83 0 00.978-.787 4.268 4.268 0 00.726-1.288l2.691 1.431a6.095 6.095 0 00-.844.206c-.387.124-.769.31-.84.553a.301.301 0 000 .23.57.57 0 00.129.176c.055.056.108.115.157.177.54.634.038.801.038.801z" fill="#6C63FF"/><path d="M93.272 65.012l-1.972-.85c.077-.08.153-.162.22-.248.477.263 1.24.645 1.732.883a.3.3 0 00.02.215z" fill="#444053"/><path d="M93.591 66.186c-.763 1.065-3.274-.071-3.274-.071s-.854-.74 0-1.298a3.48 3.48 0 001.098.73 2.887 2.887 0 002.157-.181c.52.653.02.82.02.82z" fill="#6C63FF"/><path opacity=".1" d="M93.591 66.186c-.763 1.065-3.274-.071-3.274-.071s-.854-.74 0-1.298a3.48 3.48 0 001.098.73 2.887 2.887 0 002.157-.181c.52.653.02.82.02.82z" fill="#000"/><path opacity=".1" d="M107.732 40.775s-2.677-2.119-4.672-.697c.38.155.721.393.997.697.155.227.361.413.602.544a4.526 4.526 0 013.073-.544z" fill="#fff"/><g opacity=".1" fill="#000"><path opacity=".1" d="M54.706 57.652c-.217.349-.35.742-.392 1.15-1.908-1.522-.615-4.682-.615-4.682a4.558 4.558 0 001.365 2.812 1.7 1.7 0 01-.358.72zm24.258 5.365l.62-2.969c.126.258.27.507.43.745a5.36 5.36 0 01-.573 2.281 4.472 4.472 0 00-.477-.057zm-.153 1.06a7.767 7.767 0 01-.262.32 8.762 8.762 0 01-1.91 1.584 7.17 7.17 0 01-.605.363c-4.63 2.549-12.304 2.95-17.22.525a10.502 10.502 0 011.996-3.37c3.393-3.847 9.067-4.63 13.93-2.31A14.044 14.044 0 0178 63.346c.267.24.544.478.811.73z"/><path opacity=".1" d="M81.617 64.277a1.201 1.201 0 01-.19-.19 2.763 2.763 0 00-.726-.578 4.13 4.13 0 00-1.255-.434 4.45 4.45 0 00-.477-.058l.62-2.969c.126.258.27.507.43.745.22.334.5.659.763.663a.324.324 0 00.21-.086.53.53 0 00.139-.171l.124-.2c.477-.688.782-.259.782-.259 1.227.444.83 3.17.83 3.17s-.481 1.026-1.25.367z"/><path opacity=".1" d="M80.701 63.509a3.535 3.535 0 00-.3-.148c.124-.525.276-1.37.376-1.91a.325.325 0 00.21-.085l-.286 2.143zm.917.768a3.49 3.49 0 00.4-1.25 2.917 2.917 0 00-.768-2.029c.477-.687.783-.258.783-.258 1.226.444.83 3.17.83 3.17s-.477 1.026-1.245.367z"/><path opacity=".1" d="M81.618 64.277a3.49 3.49 0 00.4-1.25 2.917 2.917 0 00-.768-2.029c.477-.687.783-.258.783-.258 1.226.444.83 3.17.83 3.17s-.477 1.026-1.245.367zm-27.284-5.474c-1.909-1.523-.615-4.683-.615-4.683a4.558 4.558 0 001.365 2.812 1.7 1.7 0 01-.358.72c-.217.349-.35.742-.392 1.15z"/></g><path d="M78.94 63.81l-.19.21c-.514.528-1.09.99-1.719 1.374l-.181.115c-.139.086-.282.167-.425.248-4.672 2.568-12.442 2.954-17.348.477a9.704 9.704 0 01-2.061-1.374c-5.302-4.673-6.204-12.32-2.005-17.083 3.398-3.847 9.068-4.63 13.936-2.305a14.2 14.2 0 013.26 2.134 39.362 39.362 0 015.043 5.25c.31.396.607.797.879 1.198.076.105.143.22.214.324.134.196.258.396.377.597.12.2.186.32.277.477a9.351 9.351 0 011.408 4.773 5.362 5.362 0 01-.573 2.282c-.238.471-.538.91-.892 1.303z" fill="#6C63FF"/><path d="M82.013 63.685a1.205 1.205 0 01-.19-.19 2.664 2.664 0 00-.726-.578 4.13 4.13 0 00-1.255-.434 4.504 4.504 0 00-.477-.058l.62-2.968a6.2 6.2 0 00.43.744c.22.334.5.659.763.664a.348.348 0 00.21-.086.586.586 0 00.139-.172c.043-.076.085-.143.124-.2.477-.693.782-.258.782-.258 1.227.444.83 3.169.83 3.169s-.486 1.03-1.25.367z" fill="#6C63FF"/><path d="M81.092 62.922a2.501 2.501 0 00-.3-.148c.124-.525.276-1.37.377-1.91a.348.348 0 00.21-.085l-.287 2.143z" fill="#444053"/><path d="M82.013 63.685c.212-.387.348-.812.401-1.25a2.917 2.917 0 00-.768-2.029c.477-.692.783-.257.783-.257 1.226.444.83 3.169.83 3.169s-.482 1.03-1.246.367z" fill="#6C63FF"/><path opacity=".1" d="M82.013 63.685c.212-.387.348-.812.401-1.25a2.917 2.917 0 00-.768-2.029c.477-.692.783-.257.783-.257 1.226.444.83 3.169.83 3.169s-.482 1.03-1.246.367z" fill="#000"/><path opacity=".1" d="M54.09 53.533s-1.303 3.155.616 4.687c.043-.409.177-.804.391-1.155.176-.21.3-.458.363-.725a4.524 4.524 0 01-1.37-2.807z" fill="#fff"/><g opacity=".1" fill="#000"><path opacity=".1" d="M73.614 32.241a1.67 1.67 0 01-.802.115c-.409.02-.808.13-1.169.324.177-2.443 3.522-3.15 3.522-3.15a4.553 4.553 0 00-1.55 2.711zm4.73 22.123c.234.353.453.711.653 1.074a10.917 10.917 0 01-1.326-.573c-3.427-1.733-6.825-5.436-8.724-9.412a14.019 14.019 0 013.26 2.152 39.356 39.356 0 015.044 5.25c.391.487.758.993 1.093 1.509zm6.156.659a5.455 5.455 0 01-2.205.82 3.47 3.47 0 00-.224-.43l2.806-1.168c-.144.25-.27.51-.377.778z"/><path opacity=".1" d="M83.536 59.132s-1.112.186-1.007-.816c.01-.09.027-.18.052-.267.074-.303.097-.616.067-.926a2.488 2.488 0 00-.047-.33 3.9 3.9 0 00-.306-.954 3.477 3.477 0 00-.224-.43l2.806-1.17c-.144.25-.27.51-.377.779-.153.377-.258.787-.115 1.007a.344.344 0 00.191.124.588.588 0 00.215 0h.239c.844 0 .653.477.653.477.33 1.299-2.147 2.506-2.147 2.506z"/><path opacity=".1" d="M84.576 56.154l-1.909.954a2.472 2.472 0 00-.047-.329c.505-.196 1.288-.544 1.784-.764a.346.346 0 00.172.139zm-1.04 2.978s-1.112.186-1.007-.816c.44-.046.867-.174 1.26-.377a2.907 2.907 0 001.24-1.776c.845 0 .654.478.654.478.33 1.284-2.147 2.491-2.147 2.491z"/><path opacity=".1" d="M83.536 59.132s-1.112.186-1.007-.816c.44-.046.867-.174 1.26-.377a2.907 2.907 0 001.24-1.776c.845 0 .654.478.654.478.33 1.284-2.147 2.491-2.147 2.491zm-9.922-26.891a1.67 1.67 0 01-.802.115c-.409.02-.808.13-1.169.324.177-2.443 3.522-3.15 3.522-3.15a4.553 4.553 0 00-1.55 2.711z"/></g><path d="M84.696 54.731a5.445 5.445 0 01-2.205.84 5.933 5.933 0 01-1.594 0 8.28 8.28 0 01-2.176-.591 10.417 10.417 0 01-.85-.387l-.057-.029c-3.26-1.665-6.486-5.111-8.414-8.868-1.312-2.558-2.023-5.25-1.728-7.636.87-7.012 6.682-12.067 12.972-11.289 6.29.778 10.7 7.093 9.831 14.105a39.312 39.312 0 01-1.48 7.126 12.63 12.63 0 01-.2.606c-.926 2.668-2.243 4.93-4.1 6.123z" fill="#6C63FF"/><path opacity=".1" d="M84.696 54.731a5.445 5.445 0 01-2.205.84 5.933 5.933 0 01-1.594 0 8.28 8.28 0 01-2.176-.591 10.417 10.417 0 01-.85-.387l-.057-.029c-3.26-1.665-6.486-5.111-8.414-8.868-1.312-2.558-2.023-5.25-1.728-7.636.87-7.012 6.682-12.067 12.972-11.289 6.29.778 10.7 7.093 9.831 14.105a39.312 39.312 0 01-1.48 7.126 12.63 12.63 0 01-.2.606c-.926 2.668-2.243 4.93-4.1 6.123z" fill="#000"/><path d="M83.731 58.84s-1.111.187-1.006-.82c.01-.09.027-.18.052-.267a2.75 2.75 0 00.067-.922 3.972 3.972 0 00-.353-1.289 3.484 3.484 0 00-.225-.429l2.806-1.17a6.49 6.49 0 00-.377.784c-.152.372-.257.787-.114 1.002a.348.348 0 00.19.129.6.6 0 00.216 0h.238c.845 0 .654.477.654.477.33 1.298-2.148 2.506-2.148 2.506z" fill="#6C63FF"/><path d="M84.772 55.862l-1.91.955a2.56 2.56 0 00-.047-.334c.506-.196 1.289-.544 1.785-.764.04.066.1.116.172.143z" fill="#444053"/><path d="M83.731 58.84s-1.111.187-1.006-.82c.44-.041.869-.17 1.26-.377a2.892 2.892 0 001.24-1.776c.845 0 .654.478.654.478.33 1.288-2.148 2.496-2.148 2.496z" fill="#6C63FF"/><path opacity=".1" d="M83.731 58.84s-1.111.187-1.006-.82c.44-.041.869-.17 1.26-.377a2.892 2.892 0 001.24-1.776c.845 0 .654.478.654.478.33 1.288-2.148 2.496-2.148 2.496z" fill="#000"/><path opacity=".1" d="M75.356 29.234s-3.34.711-3.517 3.155a2.681 2.681 0 011.174-.324c.27.024.544-.015.797-.115a4.568 4.568 0 011.546-2.716z" fill="#fff"/><path d="M119.825 83.355c-4.147 4.801-11.845 4.95-17.181.329-2.596-2.243-5.278-4.983-6.867-7.756a9.36 9.36 0 01-1.432-4.773 5.446 5.446 0 01.54-2.286 6.26 6.26 0 01.882-1.332 10.938 10.938 0 014.248-2.802c5.498-2.18 13.62-1.947 17.658 1.556 5.326 4.625 6.299 12.262 2.152 17.064z" fill="#6C63FF"/><path d="M94.746 71.91a5.78 5.78 0 00-.434-.75c-.23-.334-.51-.654-.769-.654a.303.303 0 00-.214.086.772.772 0 00-.139.172c-.037.07-.078.14-.124.205-.477.697-.778.267-.778.267-1.23-.434-.859-3.164-.859-3.164s.478-1.031 1.241-.382c.071.057.137.121.196.19.208.233.455.427.73.574.097.053.198.1.3.143a4.34 4.34 0 001.432.33l-.582 2.982z" fill="#6C63FF"/><path d="M93.544 70.506a.301.301 0 00-.215.086l.267-2.138c.097.053.198.1.3.143-.118.53-.262 1.374-.352 1.909z" fill="#444053"/><path d="M93.066 70.969c-.477.697-.778.267-.778.267-1.23-.434-.859-3.164-.859-3.164s.478-1.031 1.241-.382c-.208.39-.338.816-.382 1.255-.011.75.267 1.475.778 2.024z" fill="#6C63FF"/><path opacity=".1" d="M93.066 70.969c-.477.697-.778.267-.778.267-1.23-.434-.859-3.164-.859-3.164s.478-1.031 1.241-.382c-.208.39-.338.816-.382 1.255-.011.75.267 1.475.778 2.024z" fill="#000"/><path opacity=".1" d="M120.67 77.575s1.269-3.174-.659-4.683a2.75 2.75 0 01-.386 1.16c-.174.21-.295.46-.354.726a4.525 4.525 0 011.399 2.797z" fill="#fff"/><path opacity=".1" d="M95.763 75.928a9.36 9.36 0 01-1.432-4.773c-.23-.334-.51-.654-.769-.654a.299.299 0 00-.214.086.775.775 0 00-.139.172c-.037.07-.078.14-.124.205-.477.697-.778.267-.778.267-1.23-.434-.859-3.164-.859-3.164s.478-1.031 1.241-.382c.071.058.137.121.196.191a2.883 2.883 0 001.03.716c.307.129.627.221.955.277.236-.48.533-.927.883-1.332A10.94 10.94 0 01100 64.735c-.668 4.234-1.913 8.687-4.237 11.193zm-6.696 1.46a7.487 7.487 0 01-1.026-.229 9.778 9.778 0 01-.912-.31l-.195-.08c-.253-.11-.516-.235-.769-.364s-.386-.205-.582-.315c-3.632-2.095-7.158-6.305-8.733-10.581a13.99 13.99 0 01-.854-3.637 9.765 9.765 0 01.028-1.981 14.004 14.004 0 011.79-5.346c.105-.172.205-.339.315-.506 2.386-3.68 6.4-5.904 10.666-5.46-.926 2.678-2.243 4.96-4.1 6.152-.152.373-.257.788-.114 1.003a.348.348 0 00.19.129.6.6 0 00.216 0h.238c.845 0 .654.477.654.477.33 1.265-2.147 2.472-2.147 2.472s-1.112.186-1.007-.82c.01-.091.027-.18.052-.268a2.76 2.76 0 00.067-.921 3.97 3.97 0 00-.353-1.289 5.924 5.924 0 01-1.594 0 8.28 8.28 0 01-2.176-.592c.1.158.186.32.276.478a9.352 9.352 0 011.408 4.773c.22.334.501.658.764.663a.349.349 0 00.21-.086.588.588 0 00.138-.172c.043-.076.086-.143.124-.2.477-.692.783-.258.783-.258 1.226.444.83 3.17.83 3.17s-.477 1.025-1.245.367a1.205 1.205 0 01-.191-.191 2.667 2.667 0 00-.726-.578 4.128 4.128 0 00-1.255-.434 5.974 5.974 0 01-.892 1.322l-.191.21.062.057a37.317 37.317 0 014.233 4.506c.391.501.764 1.007 1.093 1.523.234.353.477.71.659 1.069a9.404 9.404 0 011.403 4.773c.22.334.477.658.763.663a.348.348 0 00.21-.086.586.586 0 00.139-.172c.047-.076.085-.143.129-.205.477-.687.777-.253.777-.253.54.234.764.874.845 1.527z" fill="#000"/><g opacity=".1" fill="#000"><path opacity=".1" d="M83.631 53.514c-.254.1-.53.138-.802.11-.41.02-.81.131-1.173.325.18-2.44 3.521-3.146 3.521-3.146a4.53 4.53 0 00-1.546 2.711zm16.661 8.897a54.92 54.92 0 01-.205 1.503c-2.172.664-4.253.87-5.995.316-.386.124-.768.31-.84.553a.3.3 0 000 .23.569.569 0 00.13.176c.055.056.107.115.157.177.534.653.033.82.033.82-.763 1.065-3.274-.071-3.274-.071s-.854-.74 0-1.298a1.84 1.84 0 01.239-.13 2.836 2.836 0 00.978-.787 4.31 4.31 0 00.54-.84 6.053 6.053 0 01-1.027-1.222c-2.018-3.155-1.98-8.7-.381-13.507 6.2.883 10.504 7.14 9.645 14.08zm-5.78 13.879a5.432 5.432 0 01-2.2.822 3.477 3.477 0 00-.224-.43l2.806-1.165a6.2 6.2 0 00-.382.774z"/><path opacity=".1" d="M93.553 80.39s-1.117.187-1.007-.82c.008-.09.024-.18.048-.267a2.65 2.65 0 00.067-.922 2.555 2.555 0 00-.043-.334 4.296 4.296 0 00-.53-1.384l2.806-1.164a6.193 6.193 0 00-.382.773c-.148.377-.253.792-.11 1.007a.3.3 0 00.187.129.537.537 0 00.22 0h.238c.844 0 .654.477.654.477.324 1.313-2.148 2.506-2.148 2.506z"/><path opacity=".1" d="M94.589 77.427l-1.91.954c0-.108-.014-.218-.042-.329a52.657 52.657 0 001.785-.764.3.3 0 00.167.139zm-1.041 2.963s-1.112.187-1.007-.82c.441-.04.87-.169 1.26-.377a2.902 2.902 0 001.246-1.776c.844 0 .654.477.654.477.324 1.303-2.153 2.497-2.153 2.497z"/><path opacity=".1" d="M93.548 80.39s-1.112.187-1.007-.82c.441-.04.87-.169 1.26-.377a2.902 2.902 0 001.246-1.776c.844 0 .654.477.654.477.324 1.303-2.153 2.497-2.153 2.497zm-9.917-26.876c-.254.1-.53.138-.802.11-.41.02-.81.131-1.173.325.18-2.44 3.521-3.146 3.521-3.146a4.53 4.53 0 00-1.546 2.711z"/></g><path d="M99.61 62.807c-.865 7.012-3.28 15.484-9.579 14.72-6.3-.764-14.088-10.5-13.224-17.526.864-7.026 6.681-12.066 12.971-11.288 6.29.778 10.7 7.078 9.831 14.094z" fill="#6C63FF"/><path d="M92.866 80.796s-1.117.187-1.007-.82c.01-.09.026-.18.047-.268.078-.3.102-.612.072-.921 0-.115-.028-.224-.048-.33a4.333 4.333 0 00-.53-1.383l2.807-1.165s-.792 1.332-.477 1.78a.315.315 0 00.19.13.556.556 0 00.215 0h.239c.845 0 .654.476.654.476.315 1.294-2.162 2.501-2.162 2.501z" fill="#6C63FF"/><path d="M93.906 77.818l-1.909.955c0-.115-.028-.225-.047-.33.506-.2 1.288-.544 1.785-.768a.315.315 0 00.171.143z" fill="#444053"/><path d="M92.866 80.796s-1.117.187-1.007-.82c.44-.042.868-.169 1.26-.373a2.917 2.917 0 001.24-1.78c.845 0 .654.477.654.477.33 1.289-2.147 2.496-2.147 2.496z" fill="#6C63FF"/><path opacity=".1" d="M92.866 80.796s-1.117.187-1.007-.82c.44-.042.868-.169 1.26-.373a2.917 2.917 0 001.24-1.78c.845 0 .654.477.654.477.33 1.289-2.147 2.496-2.147 2.496z" fill="#000"/><path opacity=".1" d="M84.49 51.195s-3.34.706-3.522 3.15a2.715 2.715 0 011.179-.325 1.66 1.66 0 00.797-.114 4.515 4.515 0 011.546-2.711z" fill="#fff"/><path d="M92.694 78.448a2.038 2.038 0 00-1.809 2.506c.42 1.403 2.148 1.852 3.274 2.792 1.126.94 1.666 2.444 1.804 3.91a9.576 9.576 0 01-2.753 7.574c-1.012 1.002-2.234 1.766-3.236 2.778a16.536 16.536 0 00-2.787 4.257 9.908 9.908 0 00-1.236 3.575c-.167 2.014.844 3.933 2.052 5.551 1.207 1.618 2.653 3.069 3.589 4.859a10.197 10.197 0 01.582 7.999.955.955 0 01-.339.54.38.38 0 01-.549-.12" stroke="#444053" stroke-miterlimit="10"/><path d="M86.824 78.095a.954.954 0 00-.038 1.217 1.504 1.504 0 001.164.54c.54 0 1.14-.168 1.585.142a1.39 1.39 0 01.477 1.041c-.004.393.036.785.12 1.17.108.312.284.597.515.835.26.303.586.541.954.697.792.31 1.718.033 2.53.29 1.078.34 1.656 1.495 1.98 2.578a7.422 7.422 0 01.234 4 13.8 13.8 0 01-1.083 2.448 5.532 5.532 0 00-.707 2.563 2.348 2.348 0 001.346 2.143" stroke="#444053" stroke-miterlimit="10"/><path d="M128.306 125.843l-.898.54 1.213 4.391s.401.229.978.611c1.069.701 2.739 1.909 3.622 3.212 1.37 1.976 7.464 7.522 6.682 5.212-.783-2.31-1.127-1.876-1.127-1.876s1.337-3.489-1.956-5.059c-2.501-1.193-6.128-4.63-7.727-6.205-.472-.511-.787-.826-.787-.826z" fill="#EFB7B9"/><path d="M146.474 137.59a7.858 7.858 0 011.37 1.761 2.626 2.626 0 01.191 2.162c-.163.387-.439.716-.606 1.098-.797 1.842 1.274 3.856.882 5.828-.238 1.217-1.336 2.038-2.281 2.863-.945.826-1.875 1.91-1.622 3.141.183.561.44 1.096.763 1.589a1.718 1.718 0 01.096 1.685c-.554.855-2.177.711-2.387 1.704-.209.888 1.012 1.8.525 2.563a1.11 1.11 0 01-1.202.334 8.921 8.921 0 00-1.284-.348 1.575 1.575 0 00-1.445.726 1.58 1.58 0 00-.049 1.617c.253.454.74.84.683 1.351a1.072 1.072 0 01-.587.754 2.217 2.217 0 01-2.945-.878c-.401-.778-.286-1.713-.234-2.587.053-.873 0-1.857-.625-2.472a4.073 4.073 0 00-1.059-.645 11.12 11.12 0 01-2.931-2.114c-.754-.759-1.431-1.723-1.364-2.787.071-1.208 1.078-2.248.997-3.451-.081-1.203-1.293-2.096-2.319-2.831-1.026-.735-2.1-1.866-1.766-3.083.362-1.313 2.061-1.699 2.901-2.768.307-.418.522-.896.63-1.404.225-.887.282-1.808.478-2.696.165-.91.655-1.73 1.379-2.306.907-.625 2.109-.582 3.197-.42 1.088.163 2.21.425 3.279.167.797-.195 1.518-.668 2.324-.811a3.02 3.02 0 012.687.979c.382.415.382.525.916.582a1.901 1.901 0 011.408.697z" fill="#925978"/><path opacity=".1" d="M145.009 157.946c-.39.295-.83.518-1.298.659a3.963 3.963 0 011.298-.659zm-4.19 4.062a1.516 1.516 0 00-.544.067 1.614 1.614 0 011.245-.477c.436.083.866.199 1.284.348.174.04.353.051.53.033a.253.253 0 01-.024.053 1.125 1.125 0 01-1.203.334 8.845 8.845 0 00-1.288-.358zm-8.91-23.702c-.215.892-.272 1.813-.478 2.701a3.67 3.67 0 01-.629 1.403c-.84 1.069-2.544 1.456-2.902 2.769-.334 1.217.735 2.343 1.761 3.078 1.026.735 2.233 1.571 2.319 2.831.086 1.26-.921 2.248-.992 3.45-.067 1.065.611 2.034 1.365 2.793a11.16 11.16 0 002.93 2.114c.384.156.74.374 1.054.644.63.611.688 1.594.63 2.468-.057.873-.167 1.809.234 2.592a2.242 2.242 0 002.587 1.031 1.57 1.57 0 01-.344.267 2.217 2.217 0 01-2.944-.878c-.401-.783-.287-1.714-.234-2.592.052-.878 0-1.857-.63-2.468a3.832 3.832 0 00-1.055-.644 11.24 11.24 0 01-2.93-2.114c-.754-.759-1.432-1.728-1.365-2.793.072-1.202 1.079-2.243.998-3.45-.082-1.208-1.294-2.091-2.32-2.831-1.026-.74-2.1-1.861-1.766-3.078.363-1.313 2.062-1.699 2.902-2.769.307-.418.522-.896.63-1.403.224-.888.281-1.809.477-2.701a3.818 3.818 0 011.394-2.301c.16-.108.331-.199.51-.272a3.97 3.97 0 00-1.202 2.153z" fill="#000"/><path d="M109.956 149.971l-.978-1.361s-1.785 2.535.801 4.124c2.587 1.59.177-2.763.177-2.763z" fill="#4C4981"/><path opacity=".1" d="M109.956 149.971l-.978-1.361s-1.785 2.535.801 4.124c2.587 1.59.177-2.763.177-2.763z" fill="#000"/><path d="M101.48 192.412s-.172 2.548-.573 5.03c-.286 1.776-.692 3.523-1.236 4.267-1.303 1.8-1.016 7.637-1.016 7.637l-1.623 6.63c.12 1.346-.806 3.107-1.245 3.851-.13.225-.22.358-.22.358l1.131 1.91 1.823.453s3.126-1.04 2.191-3.098a3.13 3.13 0 01-.21-1.303c0-2.658 1.761-7.13 1.761-7.13s4.295-8.191 3.846-9.871a3.141 3.141 0 01-.09-.553c-.134-1.862.954-5.079.954-5.079l-5.493-3.102zm-28.104-12.243c-2.95 1.909-7.985 6.973-8.915 8.3-1.155 1.647-4.08 3.518-4.08 3.518l-2.062 1.236a2.688 2.688 0 00-.711.683 5.066 5.066 0 00-.32.477l2.968 3.46s.816-.63 1.718-1.432c.902-.801 2-1.909 2.277-2.62.534-1.394 3.851-3.012 3.851-3.012s6.152-3.641 6.858-4.248a12.266 12.266 0 012.21-1.484c.42-.229.906-.477 1.47-.721a33.846 33.846 0 004.557-2.735l-2.863-4.295-5.25 2.143a3.771 3.771 0 00-1.708.73z" fill="#EFB7B9"/><path opacity=".1" d="M95.787 219.832c-.13.225-.22.358-.22.358l1.131 1.909 1.823.454s3.126-1.041 2.191-3.098a3.133 3.133 0 01-.21-1.303c-.955.224-1.284 1.561-1.284 1.561s-.124.554-1.584 1.069c-.988.329-1.566-.439-1.847-.95z" fill="#000"/><path d="M95.51 219.694c-.43.343-.597 1.909-.659 2.983-.033.525-.043.931-.043 1.012 0 .243 1.623.792 2.635.52 1.011-.272 5.068.955 5.068.955a11.513 11.513 0 004.099-.673c1.337-.478 1.198-1.065.64-1.556a4.63 4.63 0 00-1.465-.788 3.505 3.505 0 01-1.48-1.203 8.409 8.409 0 00-1.909-1.823c-.658-.439-1.398-.826-1.87-.744-1.031.167-1.36 1.575-1.36 1.575s-.124.548-1.58 1.069c-1.456.52-2.038-1.361-2.076-1.327z" fill="#444053"/><path opacity=".1" d="M94.851 222.677c-.033.525-.043.931-.043 1.012 0 .243 1.623.792 2.635.52 1.011-.272 5.068.955 5.068.955a11.513 11.513 0 004.099-.673c1.337-.478 1.198-1.065.64-1.556-1.069.343-3.174.954-4.438.873-1.508-.067-6.586-.902-7.96-1.131zM57.698 193.91h-.09a5.081 5.081 0 00-.32.478l2.968 3.46s.816-.63 1.718-1.432c-.243-1.775-3.994-2.835-3.994-2.835l-.282.329z" fill="#000"/><path d="M54.61 194.941s.282 3.843 1.117 5.251c.63 1.078 1.179.897 2.234.348.334-.177.72-.387 1.178-.611 1.91-.916 1.943-1.857 1.943-1.857 2.777-2.715-3.279-4.429-3.279-4.429l-.281.349a4.29 4.29 0 00-1.981.42 5.74 5.74 0 00-.93.529z" fill="#444053"/><path opacity=".1" d="M54.61 194.941s.282 3.843 1.117 5.251c.63 1.078 1.179.897 2.234.348a3.815 3.815 0 01-1.962-2.386 11.812 11.812 0 01-.477-3.752c-.32.151-.625.332-.912.539z" fill="#000"/><path d="M128.306 143.217l-5.145 3.775-1.059.778.744 2.544.768 2.625 2.158 2.277s2.901-.363 4.557-1.828a3.095 3.095 0 001.107-1.966c.031-.239.09-.473.177-.697.104-.26.251-.5.434-.711.229-.254.5-.466.802-.626 1.479-.806 3.584-.563 3.584-.563s-.539-6.587-1.608-5.589c-.692.649-2.468.477-3.632.248-.63-.114-1.083-.238-1.083-.238l-1.804-.029z" fill="#EFB7B9"/><path opacity=".1" d="M137.717 150.701a5.432 5.432 0 10-.002-10.864 5.432 5.432 0 00.002 10.864z" fill="#000"/><path d="M137.888 150.596a5.431 5.431 0 100-10.862 5.431 5.431 0 000 10.862z" fill="#EFB7B9"/><path d="M109.522 151.813c-.998.716-2.258 2.544-2.258 2.544l1.322 7.699 7.34 2.711h.029c.42-.363 5.727-4.931 7.836-4.215 2.19.75 6.385-1.723 6.385-1.723s1.776-3.727 2.248-4.529c.473-.802-.386-4.263-.386-4.263-.148.258-.291.478-.435.712a6.669 6.669 0 01-1.336 1.522 2.765 2.765 0 01-1.856.73 2.079 2.079 0 00-.54.029c-2.61.477-3.34-2.129-3.55-3.217a5.243 5.243 0 01-.062-.477l-1.108-2.339-.696-1.465s-11.421 5.78-12.409 6.023c-.189.052-.367.14-.524.258z" fill="#444053"/><path d="M131.599 150.725a7.443 7.443 0 01-.478.654l1.432 2.386a7.922 7.922 0 00-.105-1.642l-.849-1.398z" fill="#925978"/><path d="M130.763 151.784c-.16.17-.33.329-.51.478l-.062.047 1.737 2.898c.162-.325.305-.602.415-.788l-1.58-2.635zm-1.684 1.113l2.181 3.646c.133-.277.272-.549.4-.811l-1.885-3.141a2.901 2.901 0 01-.696.306zm-1.389.143l2.911 4.859.396-.817-2.458-4.095h-.138c-.18-.01-.361.001-.539.034l-.172.019zm2.472 5.77l-.353.215-3.727-6.205c.323.173.683.268 1.05.277l3.221 5.37-.191.343z" fill="#fff"/><path d="M121.887 145.818l2.438 4.067v-.086a4.818 4.818 0 01-.066-.477l-1.108-2.334-.696-1.466-.568.296z" fill="#925978"/><path d="M120.756 146.386l7.912 13.193c.253-.115.477-.23.687-.33l-7.917-13.206-.682.343zm-1.131.563l7.865 13.121c.248-.092.486-.187.716-.286l-7.899-13.173-.682.338zm-1.131.568l7.76 12.945c.252-.062.505-.139.754-.22l-7.832-13.064-.682.339zm-1.131.564l7.549 12.591a5.71 5.71 0 00.826-.096l-7.698-12.834-.677.339zm-1.136.563l7.087 11.818c.162.001.323.026.477.076.173.058.353.097.535.115l-7.402-12.348-.697.339zm-1.136.558l6.91 11.532c.247-.094.5-.168.759-.22l-6.987-11.646-.682.334z" fill="#fff"/><path d="M113.955 149.756l6.891 11.503c.234-.124.478-.234.688-.334l-6.896-11.498-.683.329zm-1.145.554l6.948 11.584c.215-.139.435-.268.649-.392l-6.896-11.522-.701.33zm-1.146.544l7.044 11.741c.201-.143.416-.286.626-.429l-6.978-11.613-.692.301zm-1.155.52l7.159 11.97.611-.477-7.087-11.822-.683.329z" fill="#925978"/><path d="M109.507 151.823l-.138.105 7.316 12.204c.172-.143.377-.305.597-.477l-7.255-12.1a1.489 1.489 0 00-.52.268zm-.52.443c-.181.177-.368.373-.544.573l7.068 11.785.405.152v-.023l.354-.301-7.283-12.186zm-.888.979c-.191.234-.362.477-.477.64l6.018 10.023 1.136.42-6.677-11.083zm-.821 1.083l-.023.039.334 1.952 4.142 6.911 1.136.42-5.589-9.322z" fill="#fff"/><path d="M107.823 157.689l.357 2.066 1.661 2.773 1.136.42-3.154-5.259zm.591 3.436l.163.936.51.19-.673-1.126z" fill="#925978"/><path opacity=".1" d="M109.521 151.813c.368 1.16.759 2.21.759 2.21l2.706 5.637 5.99-2.592a9.32 9.32 0 00.515-2.974c-.086-1.145.477-2.782 3.341-3.78.167-.057.338-.114.525-.167.327-.093.646-.213.954-.358a5.486 5.486 0 002.997-3.188l.038-.119 3.933-2.821a1.584 1.584 0 00-.105-.177c-.63-.114-1.084-.238-1.084-.238l-1.804-.029-5.144 3.775-.697-1.465s-11.42 5.78-12.408 6.024a1.545 1.545 0 00-.516.262z" fill="#000"/><path d="M119.076 139.89a5.344 5.344 0 01-2.038 2.893c-1.666 1.198-1.432 1.88-1.432 1.88l-4.93 3.026s-.854 1.15-1.699.955c-.844-.196 1.198 5.25 1.198 5.25l2.706 5.637 5.99-2.592a9.319 9.319 0 00.515-2.973c-.091-1.213.52-2.974 3.87-3.943a5.654 5.654 0 003.957-3.551c.024-.076.033-.119.033-.119l3.937-2.821a2.182 2.182 0 00-1.484-1.107 5.308 5.308 0 01-.635-.134c-.577-.172-.849-.477-.844-1.002 0-.721-.029-3.819-1.36-3.914-1.332-.096-7.784 2.515-7.784 2.515z" fill="#4C4981"/><path d="M129.064 142.243l-2.5 2.244.649 1.937c.024-.076.033-.119.033-.119l3.937-2.821a2.2 2.2 0 00-1.484-1.107 5.12 5.12 0 01-.635-.134z" fill="#4C4981"/><path opacity=".1" d="M129.064 142.243l-2.5 2.244.649 1.937c.024-.076.033-.119.033-.119l3.937-2.821a2.2 2.2 0 00-1.484-1.107 5.12 5.12 0 01-.635-.134zm-.758-16.4l-.898.54 1.213 4.391s.401.229.978.611c-.1-.477-.539-2.73-.673-3.957-.048-.449-.057-.759 0-.802.057-.043.096 0 .177.034a62.22 62.22 0 00-.797-.817z" fill="#000"/><path d="M120.035 123.677s-1.518 6.238-.83 9.393c0 0 .572 4.615-.129 6.82l7.516-1.169.268-1.394s-1.346-.954-1.566-2.157a30.268 30.268 0 00-.591-2.501 20.027 20.027 0 00-.478-3.341c-.281-.817.883-.955 1.766-.392a2.1 2.1 0 01.329.248 1.108 1.108 0 00.282 1.456c.317.223.673.385 1.05.478.555.147 1.122.247 1.694.3 0 0-.539-2.673-.687-4.057-.053-.448-.062-.759 0-.797.262-.157 2.109 1.671 2.109 1.671s.091-2.301-.911-2.778c0 0-.158.658-.697.42-.539-.239-6.395-3.484-6.395-3.484s-2.214-1.886-2.73 1.284z" fill="#4C4981"/><path opacity=".1" d="M125.232 126.211l.759 2.754c.118.071.228.155.329.248a1.104 1.104 0 00.282 1.456c.317.223.673.385 1.05.477.471.108.95.185 1.432.229 0 0-.54-2.673-.692-4.052l-3.16-1.112z" fill="#000"/><path d="M125.514 126.263l.806 2.936a1.104 1.104 0 00.282 1.456c.792.596 2.749.758 2.749.758s-.54-2.672-.688-4.057l-3.149-1.093z" fill="#4C4981"/><path opacity=".1" d="M125.581 126.211l.806 2.931a1.112 1.112 0 00.277 1.46c.797.597 2.754.754 2.754.754s-.54-2.673-.692-4.052l-3.145-1.093z" fill="#fff"/><path opacity=".1" d="M106.959 195.495l-5.479-3.083s-.172 2.548-.573 5.03c1.885 1.194 3.637 2.33 5.111 3.131-.143-1.861.941-5.078.941-5.078zm-33.583-15.326a17.025 17.025 0 002.271 3.021s.554.769 1.522 1.843c.42-.229.907-.478 1.47-.721a33.854 33.854 0 004.558-2.735l-2.863-4.296-5.25 2.144a3.77 3.77 0 00-1.709.744z" fill="#000"/><path d="M90.91 162.662c-.984 1.542-5.766 6.682-5.766 6.682a26.306 26.306 0 00-2.157 3.26c-.84 1.575-3.417 3.537-5.388 5.312-1.97 1.776-1.97.587-3.135 1.227-1.165.639 2.3 4.343 2.3 4.343s5.865 8.114 12.513 8.458c6.648.344 16.365 9.121 20.402 9.994 4.038.874 1.532-1.431 3.25-2.028s2.558-2.487 2.558-2.487-.63-4.625-.114-5.646c.515-1.022 1.116-5.193 1.116-5.193s0-3.69.287-4.296c.286-.606.152-4.911-.058-6.157-.21-1.246.912-3.045.912-3.045s-.396-.659.157-2.124c.554-1.465-.477-6.147-.477-6.147-8.571-5.031-10.046-10.444-10.046-10.444l-1.074.33c-6.795-1.714-14.302 6.419-15.28 7.961z" fill="#444053"/><path opacity=".1" d="M106.19 154.686s.673 7.279 11.13 10.119c-8.581-5.021-10.056-10.434-10.056-10.434l-1.074.315zm1.146 12.534s-8.62 13.923-8.839 14.653c-.22.73 9.192-14.266 8.839-14.653zm-.769-4.362s-6.614 9.923-7.912 10.343c0 0 6.342-9.58 7.912-10.343zm-4.032-2.349s-4.668 3.341-8.295 2.95l8.295-2.95zm-1.284-2.147s-4.481 1.866-5.612 1.765l5.612-1.765zm10.28 12.772l.339 9.207-1.628-2.716 1.289-6.491zm27.689-30.461c-.086.511-.363 1.017-.219 1.513.138.342.366.64.658.864.683.635 1.332 1.432 1.432 2.334.124 1.322-.931 2.534-.821 3.856a2.218 2.218 0 00.94 1.642c.476.33 1.062.458 1.632.358a2.817 2.817 0 002.038-1.952c.26-.956.275-1.962.043-2.926-.477-2.534-1.708-4.859-2.911-7.159a1.114 1.114 0 00-.387-.477c-.42-.244-2.033-.272-2.434.052-.553.444.506 1.613.029 1.895z" fill="#000"/><path d="M139.397 140.568c-.091.511-.363 1.017-.225 1.513.139.343.368.641.664.864.677.635 1.326 1.408 1.431 2.334.12 1.322-.954 2.534-.825 3.856a2.265 2.265 0 00.94 1.642 2.214 2.214 0 001.637.358 2.803 2.803 0 002.033-1.952c.264-.955.28-1.962.048-2.926-.478-2.534-1.709-4.859-2.912-7.159a1.145 1.145 0 00-.386-.477c-.42-.244-2.033-.272-2.434.052-.563.425.506 1.613.029 1.895z" fill="#925978"/><path d="M148.98 172.618l-2.716 2.077 1.017.72 5.512 3.909s1.909 3.957 5.249 2.864c3.341-1.093-1.909-4.482-2.271-4.625-.363-.143-1.036-.539-1.036-.539l-4.901-3.747-.854-.659z" fill="#EFB7B9"/><path opacity=".1" d="M148.98 172.618l-2.716 2.076 1.017.721c1.283-.816 2.386-1.704 2.562-2.138l-.863-.659zm-31.274-17.531l-5.875 3.819 4.124 5.818c.42-.363 5.727-4.931 7.836-4.215 2.19.75 6.385-1.723 6.385-1.723s1.776-3.727 2.248-4.529c.473-.802-.386-4.262-.386-4.262.228-.254.499-.466.801-.626-.26-.01-.521.006-.778.048-1.159.511-1.751 1.317-1.794 2.811v.411c0 .229.024.477.053.73v.119c.286 2.33-.755 3.313-.755 3.313a5.132 5.132 0 01-2.915 2.386c-2.048.659-8.944-4.1-8.944-4.1z" fill="#000"/><path d="M117.916 155.436l-5.875 3.818 4.639 6.572s2.3-1.26 3.054-2.19c.754-.931 4.591-2.478 4.591-2.478 4.63 1.633 6.615-1.145 6.615-1.145s5.374 8.367 5.727 8.405c.353.038 3.264 2.329 3.264 2.329s2.253 2.897 2.911 3.136c.249.085.488.194.716.325.067.036.131.077.191.124l-1.971 1.145c.009.025.02.049.033.072l.024.038c.285.501.701.915 1.203 1.198.892.477 6.719-3.155 6.624-3.971a.878.878 0 00-.177-.42 4.926 4.926 0 00-1.517-1.184l-.153-.086-.057-.028s-3.37-3.38-4.462-3.876c-1.093-.496-4.773-6.424-4.773-6.424s-1.909-2.544-1.661-3.093c.249-.549-.978-5.169-1.751-5.25-.773-.082-1.117-1.141-1.117-1.141.511-1.074-.024-1.432-.625-1.527a3.614 3.614 0 00-1.079 0c-1.259.558-1.851 1.465-1.794 3.221 0 .263.029.549.067.85.286 2.329-.754 3.312-.754 3.312a5.142 5.142 0 01-2.916 2.387c-2.081.639-8.977-4.119-8.977-4.119z" fill="#4C4981"/><path opacity=".1" d="M149.471 172.394a.69.69 0 01.072.243c.095.817-5.727 4.468-6.624 3.976a3.248 3.248 0 01-1.098-1.026l-.024-.038a.469.469 0 01-.033-.072l1.971-1.145a1.485 1.485 0 00-.191-.124l.086-.048a5.898 5.898 0 004.171-3.036l1.67 1.27z" fill="#000"/><path d="M143.735 174.332l-1.971 1.145c.283.55.721 1.005 1.26 1.308.892.477 6.719-3.155 6.624-3.971-.072-.649-1.213-1.341-1.695-1.604a5.893 5.893 0 01-4.218 3.122z" fill="#4C4981"/><path opacity=".1" d="M143.735 174.332l-1.971 1.145c.283.55.721 1.005 1.26 1.308.892.477 6.719-3.155 6.624-3.971-.072-.649-1.213-1.341-1.695-1.604a5.893 5.893 0 01-4.218 3.122z" fill="#fff"/><path d="M130.477 153.006l1.432.616 1.431-3.852a3.674 3.674 0 00-1.078 0c-1.251.573-1.842 1.48-1.785 3.236z" fill="#4C4981"/><path opacity=".1" d="M130.539 152.973l1.432.611 1.432-3.852a3.681 3.681 0 00-1.079 0c-1.25.573-1.842 1.48-1.785 3.241zm9.22-12.615c-.09.511-.367 1.017-.224 1.513.137.342.365.641.659.864.682.635 1.331 1.408 1.431 2.334.12 1.322-.954 2.534-.825 3.856.023.412.158.81.391 1.151.148.186.325.347.525.477a2.19 2.19 0 001.632.358c.201-.034.396-.098.578-.191a2.257 2.257 0 01-.926.401 2.183 2.183 0 01-2.157-.869 2.302 2.302 0 01-.42-1.131c-.11-1.322.954-2.534.825-3.856-.081-.926-.73-1.7-1.431-2.334a2.018 2.018 0 01-.664-.864c-.138-.478.134-1.003.225-1.513.477-.282-.583-1.432-.048-1.91a.875.875 0 01.277-.124c-.325.516.591 1.571.152 1.838zm-12.484 10.491s-1.861.129-2.086 1.093c0 0 1.785-1.723 1.537-2.172" fill="#000"/><path d="M158.462 179.668s-4.81-2.305-4.161.592c.649 2.897 4.161-.592 4.161-.592z" fill="#EFB7B9"/><path d="M152.831 160.826l-4.558 2.083 23.398 51.229 4.558-2.082-23.398-51.23z" fill="#6C63FF"/><path d="M91.82 78.672c-.887 1.948-3.049 3.68-2.41 5.728.33 1.055 1.337 1.732 2.272 2.32 2.186 1.384 4.415 2.816 6 4.859 1.584 2.042 2.443 4.844 1.526 7.264-.625 1.656-1.98 2.935-2.772 4.52a9.477 9.477 0 00-.52 6.377 22.007 22.007 0 002.62 5.97c.405.697.882 1.432 1.641 1.709a5.645 5.645 0 001.733.143c2.018.077 3.841 1.432 4.92 3.127 1.078 1.694 1.513 3.746 1.727 5.756.105 1.012.182 2.086.755 2.926.801 1.174 2.328 1.56 3.732 1.799a47.27 47.27 0 0011.043.568" stroke="#444053" stroke-miterlimit="10"/><path d="M122.889 128.764h-2.229a2.167 2.167 0 000 4.334h2.229a2.167 2.167 0 100-4.334z" fill="#444053"/></g><defs><linearGradient id="paint0_linear" x1="453.353" y1="382.971" x2="453.353" y2="279.036" gradientUnits="userSpaceOnUse"><stop stop-color="gray" stop-opacity=".25"/><stop offset=".54" stop-color="gray" stop-opacity=".12"/><stop offset="1" stop-color="gray" stop-opacity=".1"/></linearGradient><linearGradient id="paint1_linear" x1="-11723.3" y1="53295.9" x2="-12745.9" y2="26679.3" gradientUnits="userSpaceOnUse"><stop stop-color="gray" stop-opacity=".25"/><stop offset=".54" stop-color="gray" stop-opacity=".12"/><stop offset="1" stop-color="gray" stop-opacity=".1"/></linearGradient><clipPath id="clip0"><path fill="#fff" d="M0 0h542v408.97H0z"/></clipPath></defs></svg>