<svg width="25" height="26" viewBox="0 0 25 26" fill="none" xmlns="http://www.w3.org/2000/svg">
<ellipse cx="12.5" cy="12.7551" rx="12.5" ry="12.7551" fill="#00D1FF"/>
<rect x="8" y="6" width="3.12706" height="14.3845" rx="1" fill="url(#paint0_linear)"/>
<g filter="url(#filter0_d)">
<path fill-rule="evenodd" clip-rule="evenodd" d="M16.8993 8.44802C17.3276 8.05213 17.3276 7.37516 16.8993 6.97926L16.5185 6.62732C16.1353 6.27315 15.5442 6.27315 15.161 6.62732L9.86793 11.5194C9.86532 11.5218 9.8613 11.5218 9.85869 11.5194V11.5194C9.85608 11.5169 9.85205 11.5169 9.84944 11.5194L8.79453 12.4943C8.36618 12.8902 8.36618 13.5672 8.79453 13.9631L15.128 19.8168C15.5112 20.1709 16.1023 20.1709 16.4855 19.8168L16.8663 19.4648C17.2946 19.0689 17.2946 18.3919 16.8663 17.996L12.512 13.9716C12.0837 13.5758 12.0837 12.8988 12.512 12.5029L16.8993 8.44802Z" fill="url(#paint1_linear)"/>
</g>
<defs>
<filter id="filter0_d" x="7.47327" y="5.36169" width="10.7473" height="15.7207" filterUnits="userSpaceOnUse" color-interpolation-filters="sRGB">
<feFlood flood-opacity="0" result="BackgroundImageFix"/>
<feColorMatrix in="SourceAlpha" type="matrix" values="0 0 0 0 0 0 0 0 0 0 0 0 0 0 0 0 0 0 127 0"/>
<feOffset/>
<feGaussianBlur stdDeviation="0.5"/>
<feColorMatrix type="matrix" values="0 0 0 0 0 0 0 0 0 0 0 0 0 0 0 0 0 0 0.37 0"/>
<feBlend mode="normal" in2="BackgroundImageFix" result="effect1_dropShadow"/>
<feBlend mode="normal" in="SourceGraphic" in2="effect1_dropShadow" result="shape"/>
</filter>
<linearGradient id="paint0_linear" x1="9.56353" y1="6" x2="9.56353" y2="20.3845" gradientUnits="userSpaceOnUse">
<stop stop-color="#6372FF"/>
<stop offset="1" stop-color="#5CBBE3"/>
</linearGradient>
<linearGradient id="paint1_linear" x1="12.8469" y1="6.36169" x2="12.8469" y2="20.0824" gradientUnits="userSpaceOnUse">
<stop stop-color="#6372FF"/>
<stop offset="1" stop-color="#5CBBE3"/>
</linearGradient>
</defs>
</svg>
