<svg width="9" height="11" fill="none" xmlns="http://www.w3.org/2000/svg"><path d="M5.602 7H3.445v.75H7.22c.187 0 .281.094.281.281v.938c0 .187-.094.281-.281.281H3.445v1.219a.22.22 0 01-.093.187.223.223 0 01-.188.094H1.781c-.187 0-.281-.094-.281-.281V9.25H.281C.094 9.25 0 9.156 0 8.969V8.03c0-.187.094-.281.281-.281H1.5V7H.281C.094 7 0 6.906 0 6.719V5.664c0-.078.023-.14.07-.187a.291.291 0 01.211-.094H1.5V.53c0-.187.094-.281.281-.281h3.82c1 0 1.813.313 2.438.938.64.609.961 1.414.961 2.414 0 1-.32 1.82-.96 2.46C7.413 6.688 6.601 7 5.601 7zM3.445 1.867v3.516H5.25c.563 0 1-.156 1.313-.469.312-.328.468-.766.468-1.312 0-.532-.156-.954-.468-1.266-.313-.313-.743-.469-1.29-.469H3.445z" fill="#787878"/></svg>